<?xml version="1.0" standalone="no"?>
<!DOCTYPE svg PUBLIC "-//W3C//DTD SVG 1.1//EN" "http://www.w3.org/Graphics/SVG/1.1/DTD/svg11.dtd" >
<svg>
<metadata>
Created by FontForge 20090622 at Mon Nov  2 14:49:42 2015
 By deploy user
Copyright (C) 2001, 2008 Hoefler &#38; Frere-Jones. http://www.typography.com
</metadata>
<defs>
<font id="Gotham-Thin" horiz-adv-x="600" >
  <font-face 
    font-family="Gotham Thin"
    font-weight="250"
    font-stretch="normal"
    units-per-em="1000"
    panose-1="0 0 0 0 0 0 0 0 0 0"
    ascent="800"
    descent="-200"
    x-height="500"
    cap-height="700"
    bbox="-201 -200 1115 968"
    underline-thickness="50"
    underline-position="-50"
    unicode-range="U+0020-U+FB04"
  />
<missing-glyph horiz-adv-x="500" 
d="M0 -200v1000h500v-1000h-500zM71 750l179 -390l179 390h-358zM50 -76l172 376l-172 376v-752zM450 676l-172 -376l172 -376v752zM250 240l-179 -390h358z" />
    <glyph glyph-name="f_f" unicode="ff" horiz-adv-x="650" 
d="M453 0v481h-79v19h79v72q0 85 41 126q35 35 95 35q39 0 70 -14v-21q-30 14 -70 14q-115 0 -115 -144v-68h183v-19h-183v-481h-21zM128 0v481h-79v19h79v72q0 85 41 126q35 35 95 35q39 0 70 -14v-21q-30 14 -70 14q-115 0 -115 -144v-68h183v-19h-183v-481h-21z" />
    <glyph glyph-name="fi" unicode="fi" horiz-adv-x="544" 
d="M128 0v481h-79v19h79v72q0 85 41 126q35 35 95 35q39 0 70 -14v-21q-30 14 -70 14q-115 0 -115 -144v-68h183v-19h-183v-481h-21zM424 0v500h21v-500h-21zM419 643v57h31v-57h-31z" />
    <glyph glyph-name="fl" unicode="fl" horiz-adv-x="544" 
d="M128 0v481h-79v19h79v72q0 85 41 126q35 35 95 35q39 0 70 -14v-21q-30 14 -70 14q-115 0 -115 -144v-68h183v-19h-183v-481h-21zM424 0v730h21v-730h-21z" />
    <glyph glyph-name="f_f_i" unicode="ffi" horiz-adv-x="869" 
d="M453 0v481h-79v19h79v72q0 85 41 126q35 35 95 35q39 0 70 -14v-21q-30 14 -70 14q-115 0 -115 -144v-68h183v-19h-183v-481h-21zM128 0v481h-79v19h79v72q0 85 41 126q35 35 95 35q39 0 70 -14v-21q-30 14 -70 14q-115 0 -115 -144v-68h183v-19h-183v-481h-21zM749 0
v500h21v-500h-21zM744 643v57h31v-57h-31z" />
    <glyph glyph-name="f_f_l" unicode="ffl" horiz-adv-x="869" 
d="M453 0v481h-79v19h79v72q0 85 41 126q35 35 95 35q39 0 70 -14v-21q-30 14 -70 14q-115 0 -115 -144v-68h183v-19h-183v-481h-21zM128 0v481h-79v19h79v72q0 85 41 126q35 35 95 35q39 0 70 -14v-21q-30 14 -70 14q-115 0 -115 -144v-68h183v-19h-183v-481h-21zM749 0
v730h21v-730h-21z" />
    <glyph glyph-name=".notdef" horiz-adv-x="500" 
d="M0 -200v1000h500v-1000h-500zM71 750l179 -390l179 390h-358zM50 -76l172 376l-172 376v-752zM450 676l-172 -376l172 -376v752zM250 240l-179 -390h358z" />
    <glyph glyph-name=".null" horiz-adv-x="0" 
 />
    <glyph glyph-name="nonmarkingreturn" horiz-adv-x="333" 
 />
    <glyph glyph-name="space" unicode=" " horiz-adv-x="280" 
 />
    <glyph glyph-name="exclam" unicode="!" horiz-adv-x="194" 
d="M92 183l-6 409v108h22v-108l-6 -409h-10zM79 0v52h36v-52h-36z" />
    <glyph glyph-name="quotedbl" unicode="&#x22;" horiz-adv-x="304" 
d="M188 446l35 254h25v-2l-48 -252h-12zM60 446l35 254h25v-2l-48 -252h-12z" />
    <glyph glyph-name="numbersign" unicode="#" horiz-adv-x="660" 
d="M570 220v-19h-127l-34 -201h-20l34 201h-239l-34 -201h-20l34 201h-115v19h119l45 266h-124v19h127l34 195h20l-34 -195h239l34 195h20l-34 -195h115v-19h-118l-45 -266h123zM233 486l-46 -266h239l46 266h-239z" />
    <glyph glyph-name="dollar" unicode="$" horiz-adv-x="622" 
d="M525 617l-14 -16q-85 74 -190 79v-316q117 -27 171.5 -67.5t54.5 -114.5q0 -79 -59.5 -130.5t-157.5 -51.5h-9v-98h-19v99q-137 11 -235 107l15 15q95 -93 220 -104v330q-109 23 -159.5 63.5t-50.5 112.5q0 74 58.5 124t151.5 50v59h19v-60q116 -4 204 -81zM525 181
q0 67 -47.5 101.5t-156.5 61.5v-326h10q87 0 140.5 46.5t53.5 116.5zM114 526q0 -64 43.5 -98t144.5 -58v311q-84 0 -136 -44.5t-52 -110.5z" />
    <glyph glyph-name="percent" unicode="%" horiz-adv-x="794" 
d="M209 348q-68 0 -111.5 53t-43.5 126v2q0 73 43.5 126t111.5 53t111.5 -53t43.5 -126v-2q0 -74 -43 -126.5t-112 -52.5zM208 689q-59 0 -95.5 -47t-36.5 -112v-2q0 -65 37.5 -113t96.5 -48t95.5 46.5t36.5 112.5v2q0 65 -37.5 113t-96.5 48zM389 354l254 346h22l-263 -358
l-251 -342h-22zM585 -8q-68 0 -111.5 53t-43.5 126v2q0 73 43.5 126t111.5 53t111.5 -53t43.5 -126v-2q0 -74 -43 -126.5t-112 -52.5zM586 11q59 0 95.5 46.5t36.5 112.5v2q0 65 -37.5 113t-96.5 48t-95.5 -47t-36.5 -112v-2q0 -65 37.5 -113t96.5 -48z" />
    <glyph glyph-name="ampersand" unicode="&#x26;" horiz-adv-x="666" 
d="M615 -10l-119 129q-103 -129 -237 -129q-90 0 -148.5 53t-58.5 128v2q0 42 15 76t46 60t59.5 42t72.5 37q-94 98 -94 177v2q0 56 43 100.5t116 44.5q68 0 111.5 -42.5t43.5 -98.5v-2q0 -56 -41.5 -98.5t-144.5 -88.5l216 -233q54 76 98 196l19 -6q-46 -124 -104 -204
l122 -132zM265 396q101 44 140 83t39 90v2q0 48 -37.5 85t-96.5 37q-62 0 -100 -38.5t-38 -86.5v-2q0 -76 93 -170zM259 10q127 0 224 123l-223 240q-44 -20 -70 -34.5t-56.5 -39t-45 -55.5t-14.5 -71v-2q0 -66 51.5 -113.5t133.5 -47.5z" />
    <glyph glyph-name="quotesingle" unicode="'" horiz-adv-x="176" 
d="M60 446l35 254h25v-2l-48 -252h-12z" />
    <glyph glyph-name="parenleft" unicode="(" horiz-adv-x="390" 
d="M329 -140q-129 74 -195.5 183.5t-66.5 243.5t66.5 243.5t195.5 183.5l10 -16q-122 -69 -185.5 -175.5t-63.5 -235.5t63.5 -235.5t185.5 -175.5z" />
    <glyph glyph-name="parenright" unicode=")" horiz-adv-x="390" 
d="M61 -140l-10 16q122 69 185.5 175.5t63.5 235.5t-63.5 235.5t-185.5 175.5l10 16q129 -74 195.5 -183.5t66.5 -243.5t-66.5 -243.5t-195.5 -183.5z" />
    <glyph glyph-name="asterisk" unicode="*" horiz-adv-x="430" 
d="M204 406l6 140l-118 -76l-12 19l126 65l-126 65l12 19l118 -76l-6 140h22l-6 -140l118 76l12 -19l-126 -65l126 -65l-12 -19l-118 76l6 -140h-22z" />
    <glyph glyph-name="plus" unicode="+" 
d="M290 113v230h-219v18h219v230h20v-230h219v-18h-219v-230h-20z" />
    <glyph glyph-name="comma" unicode="," horiz-adv-x="164" 
d="M63 -81l-7 13q28 13 26 68h-18v52h36v-46q0 -41 -8.5 -59.5t-28.5 -27.5z" />
    <glyph glyph-name="hyphen" unicode="-" horiz-adv-x="388" 
d="M70 287v21h248v-21h-248z" />
    <glyph glyph-name="period" unicode="." horiz-adv-x="164" 
d="M64 0v52h36v-52h-36z" />
    <glyph glyph-name="slash" unicode="/" horiz-adv-x="471" 
d="M-18 -128l470 926h23l-470 -926h-23z" />
    <glyph glyph-name="zero" unicode="0" horiz-adv-x="710" 
d="M355 -12q-131 0 -208.5 105t-77.5 256v2q0 150 77.5 255.5t208.5 105.5t208.5 -105t77.5 -256v-2q0 -150 -77.5 -255.5t-208.5 -105.5zM356 8q81 0 142 48t91 124.5t30 167.5v2q0 141 -72 241.5t-193 100.5q-81 0 -142 -48t-91 -124.5t-30 -167.5v-2q0 -141 72 -241.5
t193 -100.5z" />
    <glyph glyph-name="one" unicode="1" horiz-adv-x="315" 
d="M173 0v680l-131 -59l-9 19l143 65h18v-705h-21z" />
    <glyph glyph-name="two" unicode="2" horiz-adv-x="567" 
d="M40 0v13l317 307q74 72 99.5 120t25.5 92q0 65 -52.5 111.5t-132.5 46.5q-141 0 -218 -141l-19 11q81 150 238 150q90 0 148 -51t58 -125v-2q0 -51 -26.5 -100.5t-107.5 -127.5l-294 -284h438v-20h-474z" />
    <glyph glyph-name="three" unicode="3" horiz-adv-x="537" 
d="M261 -12q-79 0 -143.5 34t-107.5 91l18 14q40 -54 100.5 -86.5t133.5 -32.5q85 0 144.5 49t59.5 123v2q0 89 -69 131.5t-191 42.5h-24l-7 14l272 310h-399v20h428v-16l-270 -308q134 -1 208 -49t74 -144v-2q0 -83 -66.5 -138t-160.5 -55z" />
    <glyph glyph-name="four" unicode="4" horiz-adv-x="620" 
d="M453 0v183h-412l-6 13l421 509h18v-502h115v-20h-115v-183h-21zM66 203h387v468z" />
    <glyph glyph-name="five" unicode="5" horiz-adv-x="591" 
d="M294 -12q-69 0 -134.5 32t-104.5 80l17 15q39 -47 98 -77t125 -30q96 0 157 55.5t61 142.5v2q0 83 -61.5 135t-152.5 52q-99 0 -186 -47l-13 7l21 345h373v-20h-353l-18 -304q81 39 178 39q101 0 167.5 -57.5t66.5 -148.5v-2q0 -96 -67.5 -157.5t-173.5 -61.5z" />
    <glyph glyph-name="six" unicode="6" horiz-adv-x="626" 
d="M328 -12q-104 0 -175 71q-83 83 -83 269v2q0 168 73.5 275t201.5 107q109 0 196 -81l-14 -16q-83 77 -183 77q-117 0 -184.5 -102.5t-67.5 -261.5q0 -52 2 -88q9 80 76.5 134.5t153.5 54.5q105 0 174.5 -61t69.5 -154v-2q0 -91 -69.5 -157.5t-170.5 -66.5zM329 8
q90 0 153.5 61t63.5 142v2q0 85 -63.5 140.5t-159.5 55.5q-87 0 -150.5 -58t-63.5 -136v-2q0 -83 64.5 -144t155.5 -61z" />
    <glyph glyph-name="seven" unicode="7" horiz-adv-x="533" 
d="M138 0l344 680h-430v20h455v-13l-345 -687h-24z" />
    <glyph glyph-name="eight" unicode="8" horiz-adv-x="626" 
d="M313 -10q-117 0 -186.5 54.5t-69.5 133.5v2q0 67 52 116.5t131 64.5q-72 18 -113.5 62t-41.5 106v2q0 76 65.5 127.5t162.5 51.5t162.5 -51.5t65.5 -127.5v-2q0 -62 -41.5 -106t-113.5 -62q79 -17 131 -66.5t52 -114.5v-2q0 -79 -69.5 -133.5t-186.5 -54.5zM314 371
q87 0 146 43.5t59 113.5v2q0 68 -60 114t-147 46t-146 -45t-59 -113v-2q0 -70 60 -114.5t147 -44.5zM314 10q106 0 169.5 48t63.5 119v2q0 74 -68.5 123t-166.5 49t-165.5 -48t-67.5 -122v-2q0 -71 64.5 -120t170.5 -49z" />
    <glyph glyph-name="nine" unicode="9" horiz-adv-x="626" 
d="M282 8q117 0 184.5 102.5t67.5 261.5q0 16 -2 84q-9 -83 -76 -137t-154 -54q-105 0 -174.5 61t-69.5 157v2q0 95 70 161t170 66q104 0 175 -71q83 -83 83 -269v-2q0 -168 -73.5 -275t-201.5 -107q-115 0 -202 87l15 16q85 -83 188 -83zM303 285q87 0 150.5 58t63.5 139v2
q0 87 -64 147.5t-156 60.5q-89 0 -153 -61t-64 -145v-2q0 -88 63.5 -143.5t159.5 -55.5z" />
    <glyph glyph-name="colon" unicode=":" horiz-adv-x="168" 
d="M66 448v52h36v-52h-36zM66 0v52h36v-52h-36z" />
    <glyph glyph-name="semicolon" unicode=";" horiz-adv-x="168" 
d="M66 448v52h36v-52h-36zM65 -81l-7 13q28 13 26 68h-18v52h36v-46q0 -41 -8.5 -59.5t-28.5 -27.5z" />
    <glyph glyph-name="less" unicode="&#x3c;" 
d="M517 112l-460 235v10l460 235v-23l-428 -217l428 -217v-23z" />
    <glyph glyph-name="equal" unicode="=" 
d="M93 460v20h414v-20h-414zM93 225v20h414v-20h-414z" />
    <glyph glyph-name="greater" unicode="&#x3e;" 
d="M83 112v23l428 217l-428 217v23l460 -235v-10z" />
    <glyph glyph-name="question" unicode="?" horiz-adv-x="499" 
d="M213 183l-8 157l3 3q96 7 156.5 53.5t60.5 122.5v2q0 71 -53 119.5t-136 48.5q-60 0 -111 -32t-83 -85l-18 12q78 125 213 125q93 0 151.5 -54t58.5 -133v-2q0 -85 -63.5 -135.5t-153.5 -59.5l-7 -142h-10zM200 0v52h36v-52h-36z" />
    <glyph glyph-name="at" unicode="@" horiz-adv-x="949" 
d="M489 -163q-181 0 -303 118.5t-122 306.5q0 88 31.5 170t86 143.5t133 99t166.5 37.5q171 0 287.5 -114.5t116.5 -272.5q0 -119 -51.5 -181.5t-113.5 -62.5q-55 0 -81.5 35.5t-24.5 85.5q-26 -54 -73.5 -87.5t-101.5 -33.5q-72 0 -118.5 44.5t-46.5 120.5q0 98 62.5 166
t145.5 68q58 0 100.5 -33.5t52.5 -88.5l18 99l20 -4l-35 -191q-5 -25 -5 -56q0 -107 87 -107q55 0 100 57.5t45 167.5q0 152 -111 261t-274 109q-112 0 -204 -60.5t-142 -159t-50 -211.5q0 -181 116.5 -294.5t289.5 -113.5q132 0 232 67l11 -16q-103 -69 -244 -69zM439 101
q67 0 119 52q66 66 66 159q0 63 -40.5 105.5t-101.5 42.5q-69 0 -122 -53q-64 -64 -64 -160q0 -68 39.5 -107t103.5 -39z" />
    <glyph glyph-name="A" unicode="A" horiz-adv-x="767" 
d="M37 0l337 705h19l337 -705h-24l-100 210h-446l-100 -210h-23zM170 230h426l-213 446z" />
    <glyph glyph-name="B" unicode="B" horiz-adv-x="725" 
d="M104 0v700h287q124 0 184 -60q45 -45 45 -116v-2q0 -63 -37 -107t-98 -58q74 -11 123 -58t49 -116v-2q0 -86 -65.5 -133.5t-184.5 -47.5h-303zM598 521v2q0 72 -55.5 114.5t-152.5 42.5h-264v-316h281q83 0 137 40t54 117zM635 182q0 76 -60 119t-151 43h-298v-324h281
q108 0 168 42t60 118v2z" />
    <glyph glyph-name="C" unicode="C" horiz-adv-x="726" 
d="M415 -12q-146 0 -244 105t-98 255v2q0 150 98 256t246 106q91 0 150 -28t116 -83l-15 -15q-51 49 -109 77.5t-143 28.5q-137 0 -229 -100.5t-92 -240.5v-2q0 -141 92.5 -241t228.5 -100q149 0 255 114l16 -15q-113 -119 -272 -119z" />
    <glyph glyph-name="D" unicode="D" horiz-adv-x="774" 
d="M104 0v700h225q163 0 267.5 -100t104.5 -249v-2q0 -149 -104.5 -249t-267.5 -100h-225zM328 680h-202v-660h204q153 0 251 94.5t98 233.5v2q0 140 -99 235t-252 95z" />
    <glyph glyph-name="E" unicode="E" horiz-adv-x="661" 
d="M104 0v700h489v-20h-467v-318h424v-20h-424v-322h472v-20h-494z" />
    <glyph glyph-name="F" unicode="F" horiz-adv-x="624" 
d="M104 0v700h484v-20h-462v-325h419v-20h-419v-335h-22z" />
    <glyph glyph-name="G" unicode="G" horiz-adv-x="779" 
d="M418 -12q-159 0 -252 104t-93 256v2q0 95 41 176.5t121.5 133.5t183.5 52q76 0 131.5 -22t111.5 -68l-14 -17q-53 43 -106 65t-124 22q-142 0 -232.5 -102.5t-90.5 -238.5v-2q0 -142 88 -241.5t236 -99.5q136 0 249 96v225h-258v22h280v-255q-119 -108 -272 -108z" />
    <glyph glyph-name="H" unicode="H" horiz-adv-x="752" 
d="M104 0v700h22v-337h500v337h22v-700h-22v343h-500v-343h-22z" />
    <glyph glyph-name="I" unicode="I" horiz-adv-x="244" 
d="M111 0v700h22v-700h-22z" />
    <glyph glyph-name="J" unicode="J" horiz-adv-x="534" 
d="M230 -11q-66 0 -120 37t-80 103l20 9q24 -61 72 -95t110 -34q81 0 133 58t52 171v462h22v-459q0 -130 -66 -196q-56 -56 -143 -56z" />
    <glyph glyph-name="K" unicode="K" horiz-adv-x="705" 
d="M104 0v700h22v-473l484 473h31l-304 -295l315 -405h-27l-303 390l-196 -191v-199h-22z" />
    <glyph glyph-name="L" unicode="L" horiz-adv-x="584" 
d="M104 0v700h22v-680h430v-20h-452z" />
    <glyph glyph-name="M" unicode="M" horiz-adv-x="859" 
d="M104 0v700h21l305 -434l305 434h20v-700h-22v663l-303 -432h-1l-303 432v-663h-22z" />
    <glyph glyph-name="N" unicode="N" horiz-adv-x="780" 
d="M104 0v700h19l532 -664v664h21v-700h-19l-532 664v-664h-21z" />
    <glyph glyph-name="O" unicode="O" horiz-adv-x="842" 
d="M421 -12q-154 0 -251 106.5t-97 254.5v2q0 148 97 254.5t251 106.5t251 -106.5t97 -254.5v-2q0 -148 -97 -254.5t-251 -106.5zM422 8q143 0 234 100.5t91 239.5v2q0 139 -92.5 240.5t-234.5 101.5q-143 0 -234 -100.5t-91 -239.5v-2q0 -139 92.5 -240.5t234.5 -101.5z
" />
    <glyph glyph-name="P" unicode="P" horiz-adv-x="668" 
d="M103 0v700h246q128 0 198.5 -55.5t70.5 -154.5v-2q0 -101 -72.5 -157t-200.5 -56h-220v-275h-22zM125 295h220q118 0 184.5 50t66.5 142v2q0 90 -66 140.5t-183 50.5h-222v-385z" />
    <glyph glyph-name="Q" unicode="Q" horiz-adv-x="842" 
d="M774 7l-14 -16l-102 89q-97 -92 -237 -92q-154 0 -251 106.5t-97 254.5v2q0 148 97 254.5t251 106.5t251 -106.5t97 -254.5v-2q0 -149 -96 -254zM422 8q129 0 220 86l-155 135l14 16l156 -136q90 99 90 239v2q0 139 -92.5 240.5t-234.5 101.5q-143 0 -234 -100.5
t-91 -239.5v-2q0 -139 92.5 -240.5t234.5 -101.5z" />
    <glyph glyph-name="R" unicode="R" horiz-adv-x="724" 
d="M104 0v700h286q135 0 201 -66q50 -50 50 -130v-2q0 -87 -62.5 -138.5t-166.5 -57.5l233 -306h-27l-232 305h-260v-305h-22zM126 325h253q117 0 178.5 49t61.5 127v2q0 83 -61 130t-170 47h-262v-355z" />
    <glyph glyph-name="S" unicode="S" horiz-adv-x="642" 
d="M336 -10q-159 0 -277 112l16 16q111 -108 263 -108q97 0 156 46.5t59 118.5v2q0 66 -49.5 104t-179.5 64t-184.5 68t-54.5 116v2q0 74 65 126.5t163 52.5q134 0 238 -80l-14 -18q-103 78 -226 78q-89 0 -146.5 -47t-57.5 -111v-2q0 -65 49.5 -102t176.5 -63
q134 -27 188 -70.5t54 -116.5v-2q0 -80 -65 -133t-174 -53z" />
    <glyph glyph-name="T" unicode="T" horiz-adv-x="582" 
d="M280 0v680h-253v20h528v-20h-253v-680h-22z" />
    <glyph glyph-name="U" unicode="U" horiz-adv-x="752" 
d="M376 -11q-129 0 -206 82t-77 239v390h22v-390q0 -147 71 -224t191 -77q121 0 190.5 76.5t69.5 223.5v391h22v-390q0 -157 -76.5 -239t-206.5 -82z" />
    <glyph glyph-name="V" unicode="V" horiz-adv-x="727" 
d="M355 -5l-318 705h24l303 -674l303 674h23l-318 -705h-17z" />
    <glyph glyph-name="W" unicode="W" horiz-adv-x="1017" 
d="M277 -5l-233 705h23l220 -670l213 672h17l214 -673l220 671h22l-233 -705h-19l-213 666l-212 -666h-19z" />
    <glyph glyph-name="X" unicode="X" horiz-adv-x="672" 
d="M598 700h27l-276 -344l286 -356h-26l-273 342l-272 -342h-27l285 356l-275 344h26l263 -330z" />
    <glyph glyph-name="Y" unicode="Y" horiz-adv-x="657" 
d="M318 0v293l-296 407h26l282 -388l279 388h26l-295 -407v-293h-22z" />
    <glyph glyph-name="Z" unicode="Z" horiz-adv-x="678" 
d="M66 0v13l507 667h-490v20h521v-13l-507 -667h504v-20h-535z" />
    <glyph glyph-name="bracketleft" unicode="[" horiz-adv-x="410" 
d="M98 -130v830h263v-17h-241v-796h241v-17h-263z" />
    <glyph glyph-name="backslash" unicode="\" horiz-adv-x="471" 
d="M466 -128l-470 926h23l470 -926h-23z" />
    <glyph glyph-name="bracketright" unicode="]" horiz-adv-x="410" 
d="M49 -130v17h241v796h-241v17h263v-830h-263z" />
    <glyph glyph-name="asciicircum" unicode="^" horiz-adv-x="500" 
d="M88 494l156 209h12l156 -209h-17l-145 183l-145 -183h-17z" />
    <glyph glyph-name="underscore" unicode="_" horiz-adv-x="550" 
d="M-2 -149v20h554v-20h-554z" />
    <glyph glyph-name="grave" unicode="`" horiz-adv-x="500" 
d="M279 595l-97 102l24 11l87 -113h-14z" />
    <glyph glyph-name="a" unicode="a" horiz-adv-x="566" 
d="M238 -12q-78 0 -132.5 39.5t-54.5 110.5v2q0 76 62.5 117.5t160.5 41.5q102 0 188 -31v42q0 89 -49.5 133.5t-139.5 44.5q-79 0 -166 -42l-8 18q90 44 175 44q105 0 160 -55q49 -49 49 -142v-311h-21v118q-18 -51 -77 -90.5t-147 -39.5zM239 8q97 0 160 52.5t63 122.5v64
q-85 32 -187 32q-89 0 -145.5 -36t-56.5 -102v-2q0 -63 48 -97t118 -34z" />
    <glyph glyph-name="b" unicode="b" horiz-adv-x="655" 
d="M345 -12q-85 0 -147 46.5t-84 120.5v-155h-21v730h21v-385q22 74 84 120.5t147 46.5q108 0 179 -75.5t71 -185.5v-2q0 -110 -71 -185.5t-179 -75.5zM344 8q101 0 165 69t64 171v2q0 102 -64 172t-165 70q-100 0 -165.5 -70.5t-65.5 -170.5v-2q0 -99 66 -170t165 -71z" />
    <glyph glyph-name="c" unicode="c" horiz-adv-x="561" 
d="M313 -12q-107 0 -181 77t-74 184v2q0 108 74 184.5t182 76.5q112 0 200 -93l-15 -14q-82 87 -186 87q-99 0 -166 -70.5t-67 -169.5v-2q0 -98 68.5 -170t165.5 -72q106 0 188 93l15 -14q-85 -99 -204 -99z" />
    <glyph glyph-name="d" unicode="d" horiz-adv-x="655" 
d="M310 -12q-108 0 -179 75.5t-71 185.5v2q0 110 71 185.5t179 75.5q85 0 147 -46.5t84 -120.5v385h21v-730h-21v155q-22 -74 -84 -120.5t-147 -46.5zM311 8q100 0 165.5 70.5t65.5 170.5v2q0 99 -66 170t-165 71q-101 0 -165 -69t-64 -171v-2q0 -102 64 -172t165 -70z" />
    <glyph glyph-name="e" unicode="e" horiz-adv-x="583" 
d="M308 -12q-106 0 -178 72t-72 190v2q0 111 68 185.5t172 74.5q110 0 170 -80t60 -184v-4h-447q3 -106 68.5 -171t159.5 -65q55 0 104 28.5t81 72.5l17 -12q-34 -49 -87 -79t-116 -30zM81 263h424q-3 92 -58.5 160.5t-149.5 68.5q-92 0 -152 -65t-64 -164z" />
    <glyph glyph-name="f" unicode="f" horiz-adv-x="325" 
d="M128 0v481h-79v19h79v72q0 85 41 126q35 35 95 35q39 0 70 -14v-21q-30 14 -70 14q-115 0 -115 -144v-68h183v-19h-183v-481h-21z" />
    <glyph glyph-name="g" unicode="g" horiz-adv-x="646" 
d="M310 -163q-123 0 -227 77l13 17q97 -74 214 -74q102 0 162 57.5t60 165.5v102q-28 -65 -89 -105t-136 -40q-102 0 -174.5 69.5t-72.5 166.5v2q0 98 72.5 167.5t174.5 69.5q75 0 136 -40t89 -105v133h21v-424q0 -111 -64 -175t-179 -64zM308 57q93 0 159.5 63.5
t66.5 151.5v2q0 88 -66.5 153t-159.5 65q-94 0 -159.5 -63.5t-65.5 -152.5v-2q0 -90 66 -153.5t159 -63.5z" />
    <glyph glyph-name="h" unicode="h" horiz-adv-x="608" 
d="M93 0v730h21v-367q15 55 67.5 102t133.5 47q100 0 155 -62t55 -167v-283h-21v281q0 96 -49.5 153.5t-141.5 57.5q-83 0 -141 -62.5t-58 -152.5v-277h-21z" />
    <glyph glyph-name="i" unicode="i" horiz-adv-x="219" 
d="M94 643v57h31v-57h-31zM99 0v500h21v-500h-21z" />
    <glyph glyph-name="j" unicode="j" horiz-adv-x="221" 
d="M96 643v57h31v-57h-31zM23 -167q-20 0 -36 4v20q13 -4 36 -4q35 0 56.5 25.5t21.5 71.5v550h21v-548q0 -58 -26.5 -88.5t-72.5 -30.5z" />
    <glyph glyph-name="k" unicode="k" horiz-adv-x="543" 
d="M93 0v730h21v-555l347 325h28l-238 -221l254 -279h-26l-241 266l-124 -115v-151h-21z" />
    <glyph glyph-name="l" unicode="l" horiz-adv-x="219" 
d="M99 0v730h21v-730h-21z" />
    <glyph glyph-name="m" unicode="m" horiz-adv-x="923" 
d="M93 0v500h21v-128q12 53 61 96.5t112 43.5q77 0 122 -41.5t60 -107.5q15 58 65 103.5t114 45.5q86 0 137 -56t51 -160v-296h-21v294q0 95 -46 146.5t-122 51.5q-67 0 -119.5 -58.5t-52.5 -141.5v-292h-21v294q0 95 -46 146.5t-122 51.5q-67 0 -119.5 -58.5t-52.5 -141.5
v-292h-21z" />
    <glyph glyph-name="n" unicode="n" horiz-adv-x="608" 
d="M93 0v500h21v-137q15 55 67.5 102t133.5 47q100 0 155 -62t55 -167v-283h-21v281q0 96 -49.5 153.5t-141.5 57.5q-83 0 -141 -62.5t-58 -152.5v-277h-21z" />
    <glyph glyph-name="o" unicode="o" horiz-adv-x="634" 
d="M317 -12q-114 0 -187 76t-73 184v2q0 108 72.5 185t187.5 77q114 0 187 -76t73 -184v-2q0 -108 -72.5 -185t-187.5 -77zM318 8q104 0 170.5 70.5t66.5 170.5v2q0 100 -68 170.5t-171 70.5q-104 0 -170.5 -70.5t-66.5 -170.5v-2q0 -100 68 -170.5t171 -70.5z" />
    <glyph glyph-name="p" unicode="p" horiz-adv-x="655" 
d="M93 -160v660h21v-155q22 74 84 120.5t147 46.5q108 0 179 -75.5t71 -185.5v-2q0 -110 -71 -185.5t-179 -75.5q-85 0 -147 46.5t-84 120.5v-315h-21zM344 8q101 0 165 69t64 171v2q0 102 -64 172t-165 70q-100 0 -165.5 -70.5t-65.5 -170.5v-2q0 -99 66 -170t165 -71z" />
    <glyph glyph-name="q" unicode="q" horiz-adv-x="655" 
d="M541 -160v315q-22 -74 -84 -120.5t-147 -46.5q-108 0 -179 75.5t-71 185.5v2q0 110 71 185.5t179 75.5q85 0 147 -46.5t84 -120.5v155h21v-660h-21zM311 8q100 0 165.5 70.5t65.5 170.5v2q0 99 -66 170t-165 71q-101 0 -165 -69t-64 -171v-2q0 -102 64 -172t165 -70z" />
    <glyph glyph-name="r" unicode="r" horiz-adv-x="335" 
d="M93 0v500h21v-160q19 70 74 121.5t132 50.5v-20h-5q-87 0 -144 -76t-57 -157v-259h-21z" />
    <glyph glyph-name="s" unicode="s" horiz-adv-x="490" 
d="M246 -9q-114 0 -202 74l13 17q85 -71 190 -71q68 0 113 31.5t45 79.5v2q0 22 -10.5 40t-22.5 29t-39.5 22.5t-42.5 16l-49 14.5q-91 26 -133 53t-42 81v2q0 54 48.5 90.5t125.5 36.5q94 0 174 -56l-12 -18q-76 54 -162 54q-67 0 -109.5 -30.5t-42.5 -75.5v-2
q0 -45 40 -69t119 -46q35 -10 57.5 -17t48 -19.5t40 -26t24.5 -33.5t10 -45v-2q0 -58 -51 -95t-130 -37z" />
    <glyph glyph-name="t" unicode="t" horiz-adv-x="373" 
d="M248 -9q-62 0 -95 35.5t-33 101.5v353h-79v19h79v173h21v-173h185v-19h-185v-351q0 -57 27 -88t80 -31q40 0 76 18v-22q-35 -16 -76 -16z" />
    <glyph glyph-name="u" unicode="u" horiz-adv-x="608" 
d="M293 -12q-100 0 -155 62t-55 167v283h21v-281q0 -96 49.5 -153.5t141.5 -57.5q83 0 141 62.5t58 152.5v277h21v-500h-21v137q-15 -55 -67.5 -102t-133.5 -47z" />
    <glyph glyph-name="v" unicode="v" horiz-adv-x="560" 
d="M273 -4l-232 504h23l217 -478l216 478h22l-230 -504h-16z" />
    <glyph glyph-name="w" unicode="w" horiz-adv-x="804" 
d="M223 -4l-175 504h22l161 -472l163 475h17l162 -475l162 472h21l-175 -504h-17l-162 476l-162 -476h-17z" />
    <glyph glyph-name="x" unicode="x" horiz-adv-x="530" 
d="M67 500l198 -233l199 233h24l-211 -246l219 -254h-25l-206 241l-207 -241h-24l219 254l-211 246h25z" />
    <glyph glyph-name="y" unicode="y" horiz-adv-x="569" 
d="M293 22l215 478h22l-232 -510q-42 -92 -75.5 -122.5t-84.5 -30.5q-50 0 -94 27l10 17q42 -25 84 -25q45 0 75 28.5t70 115.5l-241 500h23z" />
    <glyph glyph-name="z" unicode="z" horiz-adv-x="487" 
d="M36 0v12l381 469h-369v19h400v-12l-381 -469h383v-19h-414z" />
    <glyph glyph-name="braceleft" unicode="{" horiz-adv-x="440" 
d="M371 -141q-43 8 -74 19t-51 26.5t-31.5 30t-17 38.5t-7 42.5t-1.5 49.5v80q0 57 -30.5 94.5t-94.5 37.5h-20v20h20q64 0 94.5 37.5t30.5 94.5v80q0 31 1.5 49.5t7 42.5t17 38.5t31.5 30t51 26.5t74 19l4 -19q-57 -11 -91.5 -27.5t-49.5 -43t-19 -50t-4 -66.5v-80
q0 -59 -28 -97.5t-83 -44.5q55 -6 83 -44.5t28 -97.5v-80q0 -43 4 -66.5t19 -50t49.5 -43t91.5 -27.5z" />
    <glyph glyph-name="bar" unicode="|" horiz-adv-x="257" 
d="M119 -128v926h19v-926h-19z" />
    <glyph glyph-name="braceright" unicode="}" horiz-adv-x="440" 
d="M69 -141l-4 19q57 11 91.5 27.5t49.5 43t19 50t4 66.5v80q0 59 28 97.5t83 44.5q-55 6 -83 44.5t-28 97.5v80q0 43 -4 66.5t-19 50t-49.5 43t-91.5 27.5l4 19q43 -8 74 -19t51 -26.5t31.5 -30t17 -38.5t7 -42.5t1.5 -49.5v-80q0 -57 30.5 -94.5t94.5 -37.5h20v-20h-20
q-64 0 -94.5 -37.5t-30.5 -94.5v-80q0 -31 -1.5 -49.5t-7 -42.5t-17 -38.5t-31.5 -30t-51 -26.5t-74 -19z" />
    <glyph glyph-name="asciitilde" unicode="~" horiz-adv-x="440" 
d="M284 258q-21 0 -71 31q-42 27 -59 27q-38 0 -57 -63l-13 3q17 80 72 80q21 0 71 -31q42 -27 59 -27q38 0 57 63l13 -3q-17 -80 -72 -80z" />
    <glyph glyph-name="uni00A0" unicode="&#xa0;" horiz-adv-x="280" 
 />
    <glyph glyph-name="exclamdown" unicode="&#xa1;" horiz-adv-x="194" 
d="M79 648v52h36v-52h-36zM86 0v108l6 409h10l6 -409v-108h-22z" />
    <glyph glyph-name="cent" unicode="&#xa2;" horiz-adv-x="561" 
d="M391 706l-19 -94q80 -14 152 -88l-14 -14q-66 68 -141 83l-94 -477q19 -4 45 -4q113 0 193 92l14 -12q-84 -99 -208 -99q-28 0 -48 4l-20 -103h-19l21 108q-82 22 -133.5 92.5t-51.5 160.5q0 107 75 184.5t181 77.5q11 0 29 -2l18 91h20zM89 356q0 -82 46.5 -147.5
t121.5 -87.5l93 475q-18 2 -27 2q-98 0 -166 -71.5t-68 -170.5z" />
    <glyph glyph-name="sterling" unicode="&#xa3;" horiz-adv-x="599" 
d="M65 0v13l91 8v298h-91v20h91v117q0 129 67 196q58 58 146 58q118 0 191 -111l-18 -12q-68 103 -174 103q-78 0 -130 -52q-60 -60 -60 -179v-120h302v-20h-302v-299h375v-20h-488z" />
    <glyph glyph-name="yen" unicode="&#xa5;" horiz-adv-x="617" 
d="M92 290v20h194l-264 390h28l260 -388l259 388h26l-264 -390h194v-20h-205v-150h205v-20h-205v-120h-22v120h-206v20h206v150h-206z" />
    <glyph glyph-name="section" unicode="&#xa7;" horiz-adv-x="632" 
d="M367 227q130 -33 130 -117v-2q0 -50 -49.5 -84t-132.5 -34q-57 0 -113 20t-89 48l14 17q31 -26 84 -45.5t104 -19.5q73 0 116.5 27.5t43.5 70.5v2q0 47 -51.5 75.5t-158.5 48.5q-192 35 -192 128v2q0 49 52 81.5t141 27.5q-130 33 -130 117v2q0 50 49.5 84t132.5 34
q57 0 113 -20t89 -48l-14 -17q-31 26 -84 45.5t-104 19.5q-73 0 -116.5 -27.5t-43.5 -70.5v-2q0 -47 51.5 -75.5t158.5 -48.5q192 -35 192 -128v-2q0 -49 -52 -81.5t-141 -27.5zM386 243q63 0 107.5 26t44.5 65v2q0 40 -42 66t-132 43q-61 12 -117 12q-63 0 -107.5 -26
t-44.5 -65v-2q0 -40 42 -66t132 -43q61 -12 117 -12z" />
    <glyph glyph-name="dieresis" unicode="&#xa8;" horiz-adv-x="500" 
d="M297 614v50h36v-50h-36zM167 614v50h36v-50h-36z" />
    <glyph glyph-name="copyright" unicode="&#xa9;" horiz-adv-x="830" 
d="M415 -12q-150 0 -256 106t-106 255v2q0 149 106 255t256 106t256 -106t106 -255v-2q0 -149 -106 -255t-256 -106zM415 5q142 0 243 101t101 243v2q0 142 -101 243t-243 101t-243 -101t-101 -243v-2q0 -142 101 -243t243 -101zM422 164q-77 0 -129 55.5t-52 133.5v2
q0 79 52 134.5t130 55.5q80 0 141 -59l-14 -14q-55 55 -128 55q-69 0 -115 -50.5t-46 -120.5q-1 -1 0 -2q0 -70 46.5 -121t115.5 -51q74 0 129 59l14 -13q-60 -64 -144 -64z" />
    <glyph glyph-name="ordfeminine" unicode="&#xaa;" horiz-adv-x="420" 
d="M189 414q-43 0 -74 22t-31 62v2q0 42 34 65t89 23q52 0 99 -15v19q0 93 -100 93q-41 0 -89 -23l-7 16q50 24 97 24q59 0 90 -31q27 -27 27 -78v-173h-18v57q-34 -63 -117 -63zM82 318v15h247v-15h-247zM190 431q50 0 83 27t33 65v34q-51 15 -100 15q-46 0 -74 -19
t-28 -52v-2q0 -32 25 -50t61 -18z" />
    <glyph glyph-name="guillemotleft" unicode="&#xab;" horiz-adv-x="462" 
d="M390 47l-176 205v6l176 205l12 -10l-164 -198l164 -198zM220 47l-176 205v6l176 205l12 -10l-164 -198l164 -198z" />
    <glyph glyph-name="registered" unicode="&#xae;" horiz-adv-x="416" 
d="M208 360q-73 0 -123.5 51t-50.5 123v1q0 72 51 123.5t123 51.5q73 0 123.5 -51t50.5 -123v-1q0 -72 -51 -123.5t-123 -51.5zM208 375q66 0 112 47t46 113q0 67 -45.5 113.5t-112.5 46.5q-66 0 -112 -47t-46 -113q0 -67 45.5 -113.5t112.5 -46.5zM144 450v175h76
q28 0 46 -13.5t18 -38.5q0 -41 -46 -52l53 -71h-24l-51 68h-53v-68h-19zM163 535h54q22 0 35 10t13 27q0 36 -47 36h-55v-73z" />
    <glyph glyph-name="macron" unicode="&#xaf;" horiz-adv-x="500" 
d="M120 621v19h260v-19h-260z" />
    <glyph glyph-name="degree" unicode="&#xb0;" horiz-adv-x="430" 
d="M215 426q-58 0 -100.5 41t-42.5 98v2q0 57 42.5 98t100.5 41t100.5 -41t42.5 -98v-2q0 -57 -42.5 -98t-100.5 -41zM215 444q50 0 86.5 36t36.5 85v2q0 49 -36.5 85t-86.5 36t-86.5 -36t-36.5 -85v-2q0 -49 36.5 -85t86.5 -36z" />
    <glyph glyph-name="plusminus" unicode="&#xb1;" 
d="M529 373h-219v-213h-20v213h-219v18h219v213h20v-213h219v-18zM529 0h-458v18h458v-18z" />
    <glyph glyph-name="two.sup" unicode="&#xb2;" horiz-adv-x="400" 
d="M61 426v18l164 142q46 40 64.5 67t18.5 61q0 39 -28 64t-72 25q-70 0 -123 -83l-17 10q62 92 141 92q51 0 85.5 -31t34.5 -76q0 -41 -20 -70t-72 -73l-148 -127h245v-19h-273z" />
    <glyph glyph-name="three.sup" unicode="&#xb3;" horiz-adv-x="400" 
d="M196 416q-87 0 -141 66l16 13q50 -60 126 -60q45 0 77.5 26.5t32.5 67.5q0 44 -35.5 67.5t-98.5 23.5h-23l-5 13l152 160h-225v19h251v-18l-148 -156q73 0 113 -28.5t40 -79.5q0 -49 -39 -81.5t-93 -32.5z" />
    <glyph glyph-name="acute" unicode="&#xb4;" horiz-adv-x="500" 
d="M207 595l87 113l24 -11l-97 -102h-14z" />
    <glyph glyph-name="paragraph" unicode="&#xb6;" horiz-adv-x="458" 
d="M332 0v277h-11q-116 0 -192.5 56.5t-76.5 154.5v2q0 97 71 153.5t183 56.5h48v-700h-22z" />
    <glyph glyph-name="periodcentered" unicode="&#xb7;" horiz-adv-x="164" 
d="M64 266v52h36v-52h-36z" />
    <glyph glyph-name="cedilla" unicode="&#xb8;" horiz-adv-x="500" 
d="M197 -141l-22 11l85 132h15z" />
    <glyph glyph-name="one.sup" unicode="&#xb9;" horiz-adv-x="325" 
d="M197 426h-21v370l-102 -36l-6 18l113 41h16v-393z" />
    <glyph glyph-name="ordmasculine" unicode="&#xba;" horiz-adv-x="421" 
d="M210 414q-62 0 -102.5 42.5t-40.5 101.5v2q0 60 41 102.5t103 42.5t102.5 -42t40.5 -102v-2q0 -59 -41 -102t-103 -43zM72 318v15h277v-15h-277zM212 432q53 0 87.5 36.5t34.5 89.5v2q0 53 -35.5 90t-88.5 37t-88 -36.5t-35 -89.5v-2q0 -53 36 -90t89 -37z" />
    <glyph glyph-name="guillemotright" unicode="&#xbb;" horiz-adv-x="462" 
d="M242 47l-12 10l164 198l-164 198l12 10l176 -205v-6zM72 47l-12 10l164 198l-164 198l12 10l176 -205v-6z" />
    <glyph glyph-name="onequarter" unicode="&#xbc;" horiz-adv-x="825" 
d="M712 97v-99h-19v99h-206l-6 16l207 279h24v-277h63v-18h-63zM693 115v253l-188 -253h188zM149 0l244 355l233 345h25l-244 -355l-233 -345h-25zM192 314h-21v370l-102 -36l-6 18l113 41h16v-393z" />
    <glyph glyph-name="onehalf" unicode="&#xbd;" horiz-adv-x="825" 
d="M192 314h-21v370l-102 -36l-6 18l113 41h16v-393zM496 0v18l164 142q46 40 64.5 67t18.5 61q0 39 -28 64t-72 25q-70 0 -123 -83l-17 10q62 92 141 92q51 0 85.5 -31t34.5 -76q0 -41 -20 -70t-72 -73l-148 -127h245v-19h-273zM139 0l244 355l233 345h25l-244 -355
l-233 -345h-25z" />
    <glyph glyph-name="threequarters" unicode="&#xbe;" horiz-adv-x="900" 
d="M787 97v-99h-19v99h-206l-6 16l207 279h24v-277h63v-18h-63zM768 115v253l-188 -253h188zM196 304q-87 0 -141 66l16 13q50 -60 126 -60q45 0 77.5 26.5t32.5 67.5q0 44 -35.5 67.5t-98.5 23.5h-23l-5 13l152 160h-225v19h251v-18l-148 -156q73 0 113 -28.5t40 -79.5
q0 -49 -39 -81.5t-93 -32.5zM219 0l244 355l233 345h25l-244 -355l-233 -345h-25z" />
    <glyph glyph-name="questiondown" unicode="&#xbf;" horiz-adv-x="499" 
d="M263 648v52h36v-52h-36zM262 -9q-93 0 -151.5 54t-58.5 133v2q0 85 63.5 135.5t153.5 59.5l7 142h10l8 -157l-3 -3q-96 -7 -156.5 -53.5t-60.5 -122.5v-2q0 -71 53 -119.5t136 -48.5q60 0 111 32t83 85l18 -12q-78 -125 -213 -125z" />
    <glyph glyph-name="Agrave" unicode="&#xc0;" horiz-adv-x="767" 
d="M37 0l337 705h19l337 -705h-24l-100 210h-446l-100 -210h-23zM170 230h426l-213 446zM396 770h-18l-104 87l23 12z" />
    <glyph glyph-name="Aacute" unicode="&#xc1;" horiz-adv-x="767" 
d="M37 0l337 705h19l337 -705h-24l-100 210h-446l-100 -210h-23zM170 230h426l-213 446zM370 770l99 99l23 -12l-104 -87h-18z" />
    <glyph glyph-name="Acircumflex" unicode="&#xc2;" horiz-adv-x="767" 
d="M37 0l337 705h19l337 -705h-24l-100 210h-446l-100 -210h-23zM170 230h426l-213 446zM268 765l106 97h18l106 -97h-21l-94 75l-94 -75h-21z" />
    <glyph glyph-name="Atilde" unicode="&#xc3;" horiz-adv-x="767" 
d="M37 0l337 705h19l337 -705h-24l-100 210h-446l-100 -210h-23zM170 230h426l-213 446zM449 781q-21 0 -71 28q-42 24 -59 24q-38 0 -57 -57l-13 3q17 74 72 74q21 0 71 -28q42 -24 59 -24q38 0 57 57l13 -3q-17 -74 -72 -74z" />
    <glyph glyph-name="Adieresis" unicode="&#xc4;" horiz-adv-x="767" 
d="M37 0l337 705h19l337 -705h-24l-100 210h-446l-100 -210h-23zM170 230h426l-213 446zM434 789v50h38v-50h-38zM294 789v50h38v-50h-38z" />
    <glyph glyph-name="Aring" unicode="&#xc5;" horiz-adv-x="767" 
d="M37 0l324 679q-35 6 -57 29.5t-22 56.5q0 38 29.5 63t71.5 25t71.5 -25t29.5 -63q0 -32 -22.5 -56t-56.5 -30l325 -679h-24l-100 210h-446l-100 -210h-23zM170 230h426l-213 446zM383 693q34 0 58 20t24 52t-24 52t-58 20t-58 -20t-24 -52t24 -52t58 -20z" />
    <glyph glyph-name="AE" unicode="&#xc6;" horiz-adv-x="1014" 
d="M0 0l449 700h497v-20h-452v-318h409v-20h-409v-322h457v-20h-479v210h-314l-134 -210h-24zM171 230h301v450h-12z" />
    <glyph glyph-name="Ccedilla" unicode="&#xc7;" horiz-adv-x="726" 
d="M351 -141l-22 11l76 119q-143 4 -237.5 107.5t-94.5 251.5v2q0 150 98 256t246 106q91 0 150 -28t116 -83l-15 -15q-51 49 -109 77.5t-143 28.5q-137 0 -229 -100.5t-92 -240.5v-2q0 -141 92.5 -241t228.5 -100q149 0 255 114l16 -15q-111 -116 -266 -119z" />
    <glyph glyph-name="Egrave" unicode="&#xc8;" horiz-adv-x="661" 
d="M104 0v700h489v-20h-467v-318h424v-20h-424v-322h472v-20h-494zM364 765h-18l-104 87l23 12z" />
    <glyph glyph-name="Eacute" unicode="&#xc9;" horiz-adv-x="661" 
d="M104 0v700h489v-20h-467v-318h424v-20h-424v-322h472v-20h-494zM338 765l99 99l23 -12l-104 -87h-18z" />
    <glyph glyph-name="Ecircumflex" unicode="&#xca;" horiz-adv-x="661" 
d="M104 0v700h489v-20h-467v-318h424v-20h-424v-322h472v-20h-494zM236 765l106 97h18l106 -97h-21l-94 75l-94 -75h-21z" />
    <glyph glyph-name="Edieresis" unicode="&#xcb;" horiz-adv-x="661" 
d="M104 0v700h489v-20h-467v-318h424v-20h-424v-322h472v-20h-494zM402 784v50h38v-50h-38zM262 784v50h38v-50h-38z" />
    <glyph glyph-name="Igrave" unicode="&#xcc;" horiz-adv-x="244" 
d="M111 0v700h22v-700h-22zM135 765h-18l-104 87l23 12z" />
    <glyph glyph-name="Iacute" unicode="&#xcd;" horiz-adv-x="244" 
d="M111 0v700h22v-700h-22zM109 765l99 99l23 -12l-104 -87h-18z" />
    <glyph glyph-name="Icircumflex" unicode="&#xce;" horiz-adv-x="244" 
d="M111 0v700h22v-700h-22zM7 765l106 97h18l106 -97h-21l-94 75l-94 -75h-21z" />
    <glyph glyph-name="Idieresis" unicode="&#xcf;" horiz-adv-x="244" 
d="M111 0v700h22v-700h-22zM173 784v50h38v-50h-38zM33 784v50h38v-50h-38z" />
    <glyph glyph-name="Eth" unicode="&#xd0;" horiz-adv-x="804" 
d="M134 0v342h-75v20h75v338h225q163 0 267.5 -100t104.5 -249v-2q0 -149 -104.5 -249t-267.5 -100h-225zM408 342h-252v-322h204q153 0 251 94.5t98 233.5v2q0 140 -99 235t-252 95h-202v-318h252v-20z" />
    <glyph glyph-name="Ntilde" unicode="&#xd1;" horiz-adv-x="780" 
d="M104 0v700h19l532 -664v664h21v-700h-19l-532 664v-664h-21zM464 771q-21 0 -71 28q-42 24 -59 24q-38 0 -57 -57l-13 3q17 74 72 74q21 0 71 -28q42 -24 59 -24q38 0 57 57l13 -3q-17 -74 -72 -74z" />
    <glyph glyph-name="Ograve" unicode="&#xd2;" horiz-adv-x="842" 
d="M421 -12q-154 0 -251 106.5t-97 254.5v2q0 148 97 254.5t251 106.5t251 -106.5t97 -254.5v-2q0 -148 -97 -254.5t-251 -106.5zM422 8q143 0 234 100.5t91 239.5v2q0 139 -92.5 240.5t-234.5 101.5q-143 0 -234 -100.5t-91 -239.5v-2q0 -139 92.5 -240.5t234.5 -101.5z
M434 770h-18l-104 87l23 12z" />
    <glyph glyph-name="Oacute" unicode="&#xd3;" horiz-adv-x="842" 
d="M421 -12q-154 0 -251 106.5t-97 254.5v2q0 148 97 254.5t251 106.5t251 -106.5t97 -254.5v-2q0 -148 -97 -254.5t-251 -106.5zM422 8q143 0 234 100.5t91 239.5v2q0 139 -92.5 240.5t-234.5 101.5q-143 0 -234 -100.5t-91 -239.5v-2q0 -139 92.5 -240.5t234.5 -101.5z
M408 770l99 99l23 -12l-104 -87h-18z" />
    <glyph glyph-name="Ocircumflex" unicode="&#xd4;" horiz-adv-x="842" 
d="M421 -12q-154 0 -251 106.5t-97 254.5v2q0 148 97 254.5t251 106.5t251 -106.5t97 -254.5v-2q0 -148 -97 -254.5t-251 -106.5zM422 8q143 0 234 100.5t91 239.5v2q0 139 -92.5 240.5t-234.5 101.5q-143 0 -234 -100.5t-91 -239.5v-2q0 -139 92.5 -240.5t234.5 -101.5z
M306 770l106 97h18l106 -97h-21l-94 75l-94 -75h-21z" />
    <glyph glyph-name="Otilde" unicode="&#xd5;" horiz-adv-x="842" 
d="M421 -12q-154 0 -251 106.5t-97 254.5v2q0 148 97 254.5t251 106.5t251 -106.5t97 -254.5v-2q0 -148 -97 -254.5t-251 -106.5zM422 8q143 0 234 100.5t91 239.5v2q0 139 -92.5 240.5t-234.5 101.5q-143 0 -234 -100.5t-91 -239.5v-2q0 -139 92.5 -240.5t234.5 -101.5z
M487 781q-21 0 -71 28q-42 24 -59 24q-38 0 -57 -57l-13 3q17 74 72 74q21 0 71 -28q42 -24 59 -24q38 0 57 57l13 -3q-17 -74 -72 -74z" />
    <glyph glyph-name="Odieresis" unicode="&#xd6;" horiz-adv-x="842" 
d="M421 -12q-154 0 -251 106.5t-97 254.5v2q0 148 97 254.5t251 106.5t251 -106.5t97 -254.5v-2q0 -148 -97 -254.5t-251 -106.5zM422 8q143 0 234 100.5t91 239.5v2q0 139 -92.5 240.5t-234.5 101.5q-143 0 -234 -100.5t-91 -239.5v-2q0 -139 92.5 -240.5t234.5 -101.5z
M472 789v50h38v-50h-38zM332 789v50h38v-50h-38z" />
    <glyph glyph-name="multiply" unicode="&#xd7;" 
d="M491 146l-192 193l-192 -193l-13 13l193 192l-193 192l15 15l192 -193l192 193l13 -13l-193 -192l193 -192z" />
    <glyph glyph-name="Oslash" unicode="&#xd8;" horiz-adv-x="842" 
d="M739 705h26l-93 -100q97 -103 97 -254v-2q0 -148 -97 -254.5t-251 -106.5q-143 0 -238 93l-80 -86h-26l93 99q-97 105 -97 255v2q0 148 97 254.5t251 106.5q140 0 238 -93zM95 350q0 -143 89 -241l460 495q-91 88 -224 88q-143 0 -234 -100.5t-91 -239.5v-2zM422 8
q143 0 234 100.5t91 239.5v2q0 143 -89 240l-461 -494q91 -88 225 -88z" />
    <glyph glyph-name="Ugrave" unicode="&#xd9;" horiz-adv-x="752" 
d="M376 -11q-129 0 -206 82t-77 239v390h22v-390q0 -147 71 -224t191 -77q121 0 190.5 76.5t69.5 223.5v391h22v-390q0 -157 -76.5 -239t-206.5 -82zM389 760h-18l-104 87l23 12z" />
    <glyph glyph-name="Uacute" unicode="&#xda;" horiz-adv-x="752" 
d="M376 -11q-129 0 -206 82t-77 239v390h22v-390q0 -147 71 -224t191 -77q121 0 190.5 76.5t69.5 223.5v391h22v-390q0 -157 -76.5 -239t-206.5 -82zM363 760l99 99l23 -12l-104 -87h-18z" />
    <glyph glyph-name="Ucircumflex" unicode="&#xdb;" horiz-adv-x="752" 
d="M376 -11q-129 0 -206 82t-77 239v390h22v-390q0 -147 71 -224t191 -77q121 0 190.5 76.5t69.5 223.5v391h22v-390q0 -157 -76.5 -239t-206.5 -82zM261 760l106 97h18l106 -97h-21l-94 75l-94 -75h-21z" />
    <glyph glyph-name="Udieresis" unicode="&#xdc;" horiz-adv-x="752" 
d="M376 -11q-129 0 -206 82t-77 239v390h22v-390q0 -147 71 -224t191 -77q121 0 190.5 76.5t69.5 223.5v391h22v-390q0 -157 -76.5 -239t-206.5 -82zM427 779v50h38v-50h-38zM287 779v50h38v-50h-38z" />
    <glyph glyph-name="Yacute" unicode="&#xdd;" horiz-adv-x="657" 
d="M318 0v293l-296 407h26l282 -388l279 388h26l-295 -407v-293h-22zM315 760l99 99l23 -12l-104 -87h-18z" />
    <glyph glyph-name="Thorn" unicode="&#xde;" horiz-adv-x="668" 
d="M103 0v700h22v-135h224q128 0 198.5 -55.5t70.5 -154.5v-2q0 -101 -72.5 -157t-200.5 -56h-220v-140h-22zM125 160h220q118 0 184.5 50t66.5 142v2q0 90 -66 140.5t-183 50.5h-222v-385z" />
    <glyph glyph-name="germandbls" unicode="&#xdf;" horiz-adv-x="571" 
d="M263 -3v20q102 2 165.5 48t63.5 127v2q0 74 -61.5 116.5t-167.5 48.5v19q83 21 134 67t51 117v2q0 61 -46.5 106.5t-115.5 45.5q-84 0 -128 -58t-44 -153v-505h-21v507q0 104 50 166.5t144 62.5q79 0 131 -50.5t52 -120.5v-2q0 -68 -44 -116t-121 -74q94 -12 151.5 -58.5
t57.5 -119.5v-2q0 -90 -70.5 -143t-180.5 -53z" />
    <glyph glyph-name="agrave" unicode="&#xe0;" horiz-adv-x="566" 
d="M238 -12q-78 0 -132.5 39.5t-54.5 110.5v2q0 76 62.5 117.5t160.5 41.5q102 0 188 -31v42q0 89 -49.5 133.5t-139.5 44.5q-79 0 -166 -42l-8 18q90 44 175 44q105 0 160 -55q49 -49 49 -142v-311h-21v118q-18 -51 -77 -90.5t-147 -39.5zM239 8q97 0 160 52.5t63 122.5v64
q-85 32 -187 32q-89 0 -145.5 -36t-56.5 -102v-2q0 -63 48 -97t118 -34zM283 595l-97 102l24 11l87 -113h-14z" />
    <glyph glyph-name="aacute" unicode="&#xe1;" horiz-adv-x="566" 
d="M238 -12q-78 0 -132.5 39.5t-54.5 110.5v2q0 76 62.5 117.5t160.5 41.5q102 0 188 -31v42q0 89 -49.5 133.5t-139.5 44.5q-79 0 -166 -42l-8 18q90 44 175 44q105 0 160 -55q49 -49 49 -142v-311h-21v118q-18 -51 -77 -90.5t-147 -39.5zM239 8q97 0 160 52.5t63 122.5v64
q-85 32 -187 32q-89 0 -145.5 -36t-56.5 -102v-2q0 -63 48 -97t118 -34zM273 595l87 113l24 -11l-97 -102h-14z" />
    <glyph glyph-name="acircumflex" unicode="&#xe2;" horiz-adv-x="566" 
d="M238 -12q-78 0 -132.5 39.5t-54.5 110.5v2q0 76 62.5 117.5t160.5 41.5q102 0 188 -31v42q0 89 -49.5 133.5t-139.5 44.5q-79 0 -166 -42l-8 18q90 44 175 44q105 0 160 -55q49 -49 49 -142v-311h-21v118q-18 -51 -77 -90.5t-147 -39.5zM239 8q97 0 160 52.5t63 122.5v64
q-85 32 -187 32q-89 0 -145.5 -36t-56.5 -102v-2q0 -63 48 -97t118 -34zM173 595l105 112h14l105 -112h-18l-94 87l-94 -87h-18z" />
    <glyph glyph-name="atilde" unicode="&#xe3;" horiz-adv-x="566" 
d="M238 -12q-78 0 -132.5 39.5t-54.5 110.5v2q0 76 62.5 117.5t160.5 41.5q102 0 188 -31v42q0 89 -49.5 133.5t-139.5 44.5q-79 0 -166 -42l-8 18q90 44 175 44q105 0 160 -55q49 -49 49 -142v-311h-21v118q-18 -51 -77 -90.5t-147 -39.5zM239 8q97 0 160 52.5t63 122.5v64
q-85 32 -187 32q-89 0 -145.5 -36t-56.5 -102v-2q0 -63 48 -97t118 -34zM351 606q-21 0 -71 31q-42 27 -59 27q-38 0 -57 -63l-13 3q17 80 72 80q21 0 71 -31q42 -27 59 -27q38 0 57 63l13 -3q-17 -80 -72 -80z" />
    <glyph glyph-name="adieresis" unicode="&#xe4;" horiz-adv-x="566" 
d="M238 -12q-78 0 -132.5 39.5t-54.5 110.5v2q0 76 62.5 117.5t160.5 41.5q102 0 188 -31v42q0 89 -49.5 133.5t-139.5 44.5q-79 0 -166 -42l-8 18q90 44 175 44q105 0 160 -55q49 -49 49 -142v-311h-21v118q-18 -51 -77 -90.5t-147 -39.5zM239 8q97 0 160 52.5t63 122.5v64
q-85 32 -187 32q-89 0 -145.5 -36t-56.5 -102v-2q0 -63 48 -97t118 -34zM332 614v50h36v-50h-36zM202 614v50h36v-50h-36z" />
    <glyph glyph-name="aring" unicode="&#xe5;" horiz-adv-x="566" 
d="M238 -12q-78 0 -132.5 39.5t-54.5 110.5v2q0 76 62.5 117.5t160.5 41.5q102 0 188 -31v42q0 89 -49.5 133.5t-139.5 44.5q-79 0 -166 -42l-8 18q90 44 175 44q105 0 160 -55q49 -49 49 -142v-311h-21v118q-18 -51 -77 -90.5t-147 -39.5zM239 8q97 0 160 52.5t63 122.5v64
q-85 32 -187 32q-89 0 -145.5 -36t-56.5 -102v-2q0 -63 48 -97t118 -34zM285 594q-40 0 -68.5 27.5t-28.5 65.5t28.5 65.5t68.5 27.5t68.5 -27.5t28.5 -65.5t-28.5 -65.5t-68.5 -27.5zM285 610q33 0 56 22.5t23 54.5t-23 54.5t-56 22.5t-56 -22.5t-23 -54.5t23 -54.5
t56 -22.5z" />
    <glyph glyph-name="ae" unicode="&#xe6;" horiz-adv-x="980" 
d="M250 -12q-88 0 -143.5 39t-55.5 111v2q0 76 62.5 117.5t160.5 41.5q101 0 183 -30q5 40 6 43q-2 89 -51.5 132.5t-138.5 43.5q-79 0 -166 -42l-8 18q90 44 175 44q177 0 202 -149q27 70 85 111.5t134 41.5q110 0 170 -80t60 -184v-4h-447q3 -105 68 -170.5t158 -65.5
q119 0 188 92l16 -12q-73 -100 -205 -100q-68 0 -125 33.5t-89 92.5q-30 -50 -94 -88t-145 -38zM478 263h424q-3 92 -58.5 160.5t-149.5 68.5q-92 0 -152 -65t-64 -164zM251 8q74 0 137.5 37t91.5 89q-23 51 -23 115q-82 30 -182 30q-89 0 -145.5 -36t-56.5 -102v-2
q0 -64 49 -97.5t129 -33.5z" />
    <glyph glyph-name="ccedilla" unicode="&#xe7;" horiz-adv-x="561" 
d="M252 -141l-22 11l76 118q-104 3 -176 79t-72 182v2q0 108 74 184.5t182 76.5q112 0 200 -93l-15 -14q-82 87 -186 87q-99 0 -166 -70.5t-67 -169.5v-2q0 -98 68.5 -170t165.5 -72q106 0 188 93l15 -14q-83 -95 -195 -99z" />
    <glyph glyph-name="egrave" unicode="&#xe8;" horiz-adv-x="583" 
d="M308 -12q-106 0 -178 72t-72 190v2q0 111 68 185.5t172 74.5q110 0 170 -80t60 -184v-4h-447q3 -106 68.5 -171t159.5 -65q55 0 104 28.5t81 72.5l17 -12q-34 -49 -87 -79t-116 -30zM81 263h424q-3 92 -58.5 160.5t-149.5 68.5q-92 0 -152 -65t-64 -164zM295 595l-97 102
l24 11l87 -113h-14z" />
    <glyph glyph-name="eacute" unicode="&#xe9;" horiz-adv-x="583" 
d="M308 -12q-106 0 -178 72t-72 190v2q0 111 68 185.5t172 74.5q110 0 170 -80t60 -184v-4h-447q3 -106 68.5 -171t159.5 -65q55 0 104 28.5t81 72.5l17 -12q-34 -49 -87 -79t-116 -30zM81 263h424q-3 92 -58.5 160.5t-149.5 68.5q-92 0 -152 -65t-64 -164zM285 595l87 113
l24 -11l-97 -102h-14z" />
    <glyph glyph-name="ecircumflex" unicode="&#xea;" horiz-adv-x="583" 
d="M308 -12q-106 0 -178 72t-72 190v2q0 111 68 185.5t172 74.5q110 0 170 -80t60 -184v-4h-447q3 -106 68.5 -171t159.5 -65q55 0 104 28.5t81 72.5l17 -12q-34 -49 -87 -79t-116 -30zM81 263h424q-3 92 -58.5 160.5t-149.5 68.5q-92 0 -152 -65t-64 -164zM185 595l105 112
h14l105 -112h-18l-94 87l-94 -87h-18z" />
    <glyph glyph-name="edieresis" unicode="&#xeb;" horiz-adv-x="583" 
d="M308 -12q-106 0 -178 72t-72 190v2q0 111 68 185.5t172 74.5q110 0 170 -80t60 -184v-4h-447q3 -106 68.5 -171t159.5 -65q55 0 104 28.5t81 72.5l17 -12q-34 -49 -87 -79t-116 -30zM81 263h424q-3 92 -58.5 160.5t-149.5 68.5q-92 0 -152 -65t-64 -164zM344 614v50h36
v-50h-36zM214 614v50h36v-50h-36z" />
    <glyph glyph-name="igrave" unicode="&#xec;" horiz-adv-x="219" 
d="M99 0v500h21v-500h-21zM107 595l-97 102l24 11l87 -113h-14z" />
    <glyph glyph-name="iacute" unicode="&#xed;" horiz-adv-x="219" 
d="M99 0v500h21v-500h-21zM97 595l87 113l24 -11l-97 -102h-14z" />
    <glyph glyph-name="icircumflex" unicode="&#xee;" horiz-adv-x="219" 
d="M99 0v500h21v-500h-21zM-3 595l105 112h14l105 -112h-18l-94 87l-94 -87h-18z" />
    <glyph glyph-name="idieresis" unicode="&#xef;" horiz-adv-x="219" 
d="M99 0v500h21v-500h-21zM156 614v50h36v-50h-36zM26 614v50h36v-50h-36z" />
    <glyph glyph-name="eth" unicode="&#xf0;" horiz-adv-x="630" 
d="M452 716l-97 -62q97 -84 157.5 -185t60.5 -200v-2q0 -120 -72.5 -199.5t-183.5 -79.5q-113 0 -186.5 74t-73.5 186v2q0 110 74.5 185.5t183.5 75.5q126 0 202 -94q-50 113 -181 224l-106 -68l-12 17l102 65q-50 41 -103 75h35q57 -37 87 -62l101 65zM317 8q99 0 166.5 73
t67.5 178v2q0 99 -68 164.5t-168 65.5t-168 -70.5t-68 -170.5v-2q0 -103 68 -171.5t170 -68.5z" />
    <glyph glyph-name="ntilde" unicode="&#xf1;" horiz-adv-x="608" 
d="M93 0v500h21v-137q15 55 67.5 102t133.5 47q100 0 155 -62t55 -167v-283h-21v281q0 96 -49.5 153.5t-141.5 57.5q-83 0 -141 -62.5t-58 -152.5v-277h-21zM375 606q-21 0 -71 31q-42 27 -59 27q-38 0 -57 -63l-13 3q17 80 72 80q21 0 71 -31q42 -27 59 -27q38 0 57 63
l13 -3q-17 -80 -72 -80z" />
    <glyph glyph-name="ograve" unicode="&#xf2;" horiz-adv-x="634" 
d="M317 -12q-114 0 -187 76t-73 184v2q0 108 72.5 185t187.5 77q114 0 187 -76t73 -184v-2q0 -108 -72.5 -185t-187.5 -77zM318 8q104 0 170.5 70.5t66.5 170.5v2q0 100 -68 170.5t-171 70.5q-104 0 -170.5 -70.5t-66.5 -170.5v-2q0 -100 68 -170.5t171 -70.5zM315 595
l-97 102l24 11l87 -113h-14z" />
    <glyph glyph-name="oacute" unicode="&#xf3;" horiz-adv-x="634" 
d="M317 -12q-114 0 -187 76t-73 184v2q0 108 72.5 185t187.5 77q114 0 187 -76t73 -184v-2q0 -108 -72.5 -185t-187.5 -77zM318 8q104 0 170.5 70.5t66.5 170.5v2q0 100 -68 170.5t-171 70.5q-104 0 -170.5 -70.5t-66.5 -170.5v-2q0 -100 68 -170.5t171 -70.5zM305 595
l87 113l24 -11l-97 -102h-14z" />
    <glyph glyph-name="ocircumflex" unicode="&#xf4;" horiz-adv-x="634" 
d="M317 -12q-114 0 -187 76t-73 184v2q0 108 72.5 185t187.5 77q114 0 187 -76t73 -184v-2q0 -108 -72.5 -185t-187.5 -77zM318 8q104 0 170.5 70.5t66.5 170.5v2q0 100 -68 170.5t-171 70.5q-104 0 -170.5 -70.5t-66.5 -170.5v-2q0 -100 68 -170.5t171 -70.5zM205 595
l105 112h14l105 -112h-18l-94 87l-94 -87h-18z" />
    <glyph glyph-name="otilde" unicode="&#xf5;" horiz-adv-x="634" 
d="M317 -12q-114 0 -187 76t-73 184v2q0 108 72.5 185t187.5 77q114 0 187 -76t73 -184v-2q0 -108 -72.5 -185t-187.5 -77zM318 8q104 0 170.5 70.5t66.5 170.5v2q0 100 -68 170.5t-171 70.5q-104 0 -170.5 -70.5t-66.5 -170.5v-2q0 -100 68 -170.5t171 -70.5zM383 606
q-21 0 -71 31q-42 27 -59 27q-38 0 -57 -63l-13 3q17 80 72 80q21 0 71 -31q42 -27 59 -27q38 0 57 63l13 -3q-17 -80 -72 -80z" />
    <glyph glyph-name="odieresis" unicode="&#xf6;" horiz-adv-x="634" 
d="M317 -12q-114 0 -187 76t-73 184v2q0 108 72.5 185t187.5 77q114 0 187 -76t73 -184v-2q0 -108 -72.5 -185t-187.5 -77zM318 8q104 0 170.5 70.5t66.5 170.5v2q0 100 -68 170.5t-171 70.5q-104 0 -170.5 -70.5t-66.5 -170.5v-2q0 -100 68 -170.5t171 -70.5zM364 614v50
h36v-50h-36zM234 614v50h36v-50h-36z" />
    <glyph glyph-name="divide" unicode="&#xf7;" 
d="M282 537v52h36v-52h-36zM529 343h-458v18h458v-18zM282 115v52h36v-52h-36z" />
    <glyph glyph-name="oslash" unicode="&#xf8;" horiz-adv-x="634" 
d="M548 505h25l-68 -71q72 -77 72 -182v-2q0 -108 -72.5 -185t-187.5 -77q-103 0 -176 65l-55 -58h-25l68 71q-72 74 -72 182v2q0 108 72.5 185t187.5 77q104 0 175 -66zM79 249q0 -101 64 -168l335 350q-66 61 -162 61q-104 0 -170.5 -70.5t-66.5 -170.5v-2zM318 8
q104 0 170.5 70.5t66.5 170.5v2q0 101 -64 168l-335 -351q66 -60 162 -60z" />
    <glyph glyph-name="ugrave" unicode="&#xf9;" horiz-adv-x="608" 
d="M293 -12q-100 0 -155 62t-55 167v283h21v-281q0 -96 49.5 -153.5t141.5 -57.5q83 0 141 62.5t58 152.5v277h21v-500h-21v137q-15 -55 -67.5 -102t-133.5 -47zM297 590l-97 102l24 11l87 -113h-14z" />
    <glyph glyph-name="uacute" unicode="&#xfa;" horiz-adv-x="608" 
d="M293 -12q-100 0 -155 62t-55 167v283h21v-281q0 -96 49.5 -153.5t141.5 -57.5q83 0 141 62.5t58 152.5v277h21v-500h-21v137q-15 -55 -67.5 -102t-133.5 -47zM287 590l87 113l24 -11l-97 -102h-14z" />
    <glyph glyph-name="ucircumflex" unicode="&#xfb;" horiz-adv-x="608" 
d="M293 -12q-100 0 -155 62t-55 167v283h21v-281q0 -96 49.5 -153.5t141.5 -57.5q83 0 141 62.5t58 152.5v277h21v-500h-21v137q-15 -55 -67.5 -102t-133.5 -47zM187 590l105 112h14l105 -112h-18l-94 87l-94 -87h-18z" />
    <glyph glyph-name="udieresis" unicode="&#xfc;" horiz-adv-x="608" 
d="M293 -12q-100 0 -155 62t-55 167v283h21v-281q0 -96 49.5 -153.5t141.5 -57.5q83 0 141 62.5t58 152.5v277h21v-500h-21v137q-15 -55 -67.5 -102t-133.5 -47zM346 609v50h36v-50h-36zM216 609v50h36v-50h-36z" />
    <glyph glyph-name="yacute" unicode="&#xfd;" horiz-adv-x="569" 
d="M293 22l215 478h22l-232 -510q-42 -92 -75.5 -122.5t-84.5 -30.5q-50 0 -94 27l10 17q42 -25 84 -25q45 0 75 28.5t70 115.5l-241 500h23zM274 590l87 113l24 -11l-97 -102h-14z" />
    <glyph glyph-name="thorn" unicode="&#xfe;" horiz-adv-x="655" 
d="M93 -160v890h21v-385q22 74 84 120.5t147 46.5q108 0 179 -75.5t71 -185.5v-2q0 -110 -71 -185.5t-179 -75.5q-85 0 -147 46.5t-84 120.5v-315h-21zM344 8q101 0 165 69t64 171v2q0 102 -64 172t-165 70q-100 0 -165.5 -70.5t-65.5 -170.5v-2q0 -99 66 -170t165 -71z" />
    <glyph glyph-name="ydieresis" unicode="&#xff;" horiz-adv-x="569" 
d="M293 22l215 478h22l-232 -510q-42 -92 -75.5 -122.5t-84.5 -30.5q-50 0 -94 27l10 17q42 -25 84 -25q45 0 75 28.5t70 115.5l-241 500h23zM333 609v50h36v-50h-36zM203 609v50h36v-50h-36z" />
    <glyph glyph-name="Amacron" unicode="&#x100;" horiz-adv-x="767" 
d="M37 0l337 705h19l337 -705h-24l-100 210h-446l-100 -210h-23zM170 230h426l-213 446zM247 796v20h272v-20h-272z" />
    <glyph glyph-name="amacron" unicode="&#x101;" horiz-adv-x="566" 
d="M238 -12q-78 0 -132.5 39.5t-54.5 110.5v2q0 76 62.5 117.5t160.5 41.5q102 0 188 -31v42q0 89 -49.5 133.5t-139.5 44.5q-79 0 -166 -42l-8 18q90 44 175 44q105 0 160 -55q49 -49 49 -142v-311h-21v118q-18 -51 -77 -90.5t-147 -39.5zM239 8q97 0 160 52.5t63 122.5v64
q-85 32 -187 32q-89 0 -145.5 -36t-56.5 -102v-2q0 -63 48 -97t118 -34zM155 621v19h260v-19h-260z" />
    <glyph glyph-name="Abreve" unicode="&#x102;" horiz-adv-x="767" 
d="M37 0l337 705h19l337 -705h-24l-100 210h-446l-100 -210h-23zM170 230h426l-213 446zM383 769q-55 0 -87 23t-39 61h17q19 -64 109 -64q89 0 109 64h17q-8 -38 -40 -61t-86 -23z" />
    <glyph glyph-name="abreve" unicode="&#x103;" horiz-adv-x="566" 
d="M238 -12q-78 0 -132.5 39.5t-54.5 110.5v2q0 76 62.5 117.5t160.5 41.5q102 0 188 -31v42q0 89 -49.5 133.5t-139.5 44.5q-79 0 -166 -42l-8 18q90 44 175 44q105 0 160 -55q49 -49 49 -142v-311h-21v118q-18 -51 -77 -90.5t-147 -39.5zM239 8q97 0 160 52.5t63 122.5v64
q-85 32 -187 32q-89 0 -145.5 -36t-56.5 -102v-2q0 -63 48 -97t118 -34zM285 594q-55 0 -87 27.5t-38 71.5h16q7 -33 35 -56.5t74 -23.5q47 0 74.5 23.5t34.5 56.5h16q-6 -43 -38.5 -71t-86.5 -28z" />
    <glyph glyph-name="Aogonek" unicode="&#x104;" horiz-adv-x="767" 
d="M747 -143v-16q-48 0 -79 21t-31 53q0 49 66 91l-97 204h-446l-100 -210h-23l337 705h19l337 -705h-12q-58 -38 -58 -83q0 -25 22.5 -41t64.5 -19zM170 230h426l-213 446z" />
    <glyph glyph-name="aogonek" unicode="&#x105;" horiz-adv-x="566" 
d="M508 -143v-16q-48 0 -79 21t-31 53q0 49 64 90v113q-18 -51 -77 -90.5t-147 -39.5q-78 0 -132.5 39.5t-54.5 110.5v2q0 76 62.5 117.5t160.5 41.5q102 0 188 -31v42q0 89 -49.5 133.5t-139.5 44.5q-79 0 -166 -42l-8 18q90 44 175 44q105 0 160 -55q49 -49 49 -142v-311
h-4q-58 -38 -58 -83q0 -25 22.5 -41t64.5 -19zM239 8q97 0 160 52.5t63 122.5v64q-85 32 -187 32q-89 0 -145.5 -36t-56.5 -102v-2q0 -63 48 -97t118 -34z" />
    <glyph glyph-name="Cacute" unicode="&#x106;" horiz-adv-x="726" 
d="M415 -12q-146 0 -244 105t-98 255v2q0 150 98 256t246 106q91 0 150 -28t116 -83l-15 -15q-51 49 -109 77.5t-143 28.5q-137 0 -229 -100.5t-92 -240.5v-2q0 -141 92.5 -241t228.5 -100q149 0 255 114l16 -15q-113 -119 -272 -119zM399 770l99 99l23 -12l-104 -87h-18z
" />
    <glyph glyph-name="cacute" unicode="&#x107;" horiz-adv-x="561" 
d="M313 -12q-107 0 -181 77t-74 184v2q0 108 74 184.5t182 76.5q112 0 200 -93l-15 -14q-82 87 -186 87q-99 0 -166 -70.5t-67 -169.5v-2q0 -98 68.5 -170t165.5 -72q106 0 188 93l15 -14q-85 -99 -204 -99zM304 595l87 113l24 -11l-97 -102h-14z" />
    <glyph glyph-name="Cdotaccent" unicode="&#x10a;" horiz-adv-x="726" 
d="M415 -12q-146 0 -244 105t-98 255v2q0 150 98 256t246 106q91 0 150 -28t116 -83l-15 -15q-51 49 -109 77.5t-143 28.5q-137 0 -229 -100.5t-92 -240.5v-2q0 -141 92.5 -241t228.5 -100q149 0 255 114l16 -15q-113 -119 -272 -119zM393 789v50h38v-50h-38z" />
    <glyph glyph-name="cdotaccent" unicode="&#x10b;" horiz-adv-x="561" 
d="M313 -12q-107 0 -181 77t-74 184v2q0 108 74 184.5t182 76.5q112 0 200 -93l-15 -14q-82 87 -186 87q-99 0 -166 -70.5t-67 -169.5v-2q0 -98 68.5 -170t165.5 -72q106 0 188 93l15 -14q-85 -99 -204 -99zM298 614v50h36v-50h-36z" />
    <glyph glyph-name="Ccaron" unicode="&#x10c;" horiz-adv-x="726" 
d="M415 -12q-146 0 -244 105t-98 255v2q0 150 98 256t246 106q91 0 150 -28t116 -83l-15 -15q-51 49 -109 77.5t-143 28.5q-137 0 -229 -100.5t-92 -240.5v-2q0 -141 92.5 -241t228.5 -100q149 0 255 114l16 -15q-113 -119 -272 -119zM527 867l-106 -97h-18l-106 97h21
l94 -75l94 75h21z" />
    <glyph glyph-name="ccaron" unicode="&#x10d;" horiz-adv-x="561" 
d="M313 -12q-107 0 -181 77t-74 184v2q0 108 74 184.5t182 76.5q112 0 200 -93l-15 -14q-82 87 -186 87q-99 0 -166 -70.5t-67 -169.5v-2q0 -98 68.5 -170t165.5 -72q106 0 188 93l15 -14q-85 -99 -204 -99zM428 707l-105 -112h-14l-105 112h18l94 -87l94 87h18z" />
    <glyph glyph-name="Dcaron" unicode="&#x10e;" horiz-adv-x="774" 
d="M104 0v700h225q163 0 267.5 -100t104.5 -249v-2q0 -149 -104.5 -249t-267.5 -100h-225zM328 680h-202v-660h204q153 0 251 94.5t98 233.5v2q0 140 -99 235t-252 95zM475 862l-106 -97h-18l-106 97h21l94 -75l94 75h21z" />
    <glyph glyph-name="dcaron" unicode="&#x10f;" horiz-adv-x="655" 
d="M310 -12q-108 0 -179 75.5t-71 185.5v2q0 110 71 185.5t179 75.5q85 0 147 -46.5t84 -120.5v385h21v-730h-21v155q-22 -74 -84 -120.5t-147 -46.5zM311 8q100 0 165.5 70.5t65.5 170.5v2q0 99 -66 170t-165 71q-101 0 -165 -69t-64 -171v-2q0 -102 64 -172t165 -70z
M622 581l17 149h25v-2l-30 -147h-12z" />
    <glyph glyph-name="Dcroat" unicode="&#x110;" horiz-adv-x="804" 
d="M134 0v342h-75v20h75v338h225q163 0 267.5 -100t104.5 -249v-2q0 -149 -104.5 -249t-267.5 -100h-225zM408 342h-252v-322h204q153 0 251 94.5t98 233.5v2q0 140 -99 235t-252 95h-202v-318h252v-20z" />
    <glyph glyph-name="dcroat" unicode="&#x111;" horiz-adv-x="655" 
d="M356 618v19h185v93h21v-93h70v-19h-70v-618h-21v155q-22 -74 -84 -120.5t-147 -46.5q-108 0 -179 75.5t-71 185.5v2q0 110 71 185.5t179 75.5q85 0 147 -46.5t84 -120.5v273h-185zM311 8q100 0 165.5 70.5t65.5 170.5v2q0 99 -66 170t-165 71q-101 0 -165 -69t-64 -171
v-2q0 -102 64 -172t165 -70z" />
    <glyph glyph-name="Emacron" unicode="&#x112;" horiz-adv-x="661" 
d="M104 0v700h489v-20h-467v-318h424v-20h-424v-322h472v-20h-494zM215 791v20h272v-20h-272z" />
    <glyph glyph-name="emacron" unicode="&#x113;" horiz-adv-x="583" 
d="M308 -12q-106 0 -178 72t-72 190v2q0 111 68 185.5t172 74.5q110 0 170 -80t60 -184v-4h-447q3 -106 68.5 -171t159.5 -65q55 0 104 28.5t81 72.5l17 -12q-34 -49 -87 -79t-116 -30zM81 263h424q-3 92 -58.5 160.5t-149.5 68.5q-92 0 -152 -65t-64 -164zM167 621v19h260
v-19h-260z" />
    <glyph glyph-name="Ebreve" unicode="&#x114;" horiz-adv-x="661" 
d="M104 0v700h489v-20h-467v-318h424v-20h-424v-322h472v-20h-494zM351 764q-55 0 -87 23t-39 61h17q19 -64 109 -64q89 0 109 64h17q-8 -38 -40 -61t-86 -23z" />
    <glyph glyph-name="ebreve" unicode="&#x115;" horiz-adv-x="583" 
d="M308 -12q-106 0 -178 72t-72 190v2q0 111 68 185.5t172 74.5q110 0 170 -80t60 -184v-4h-447q3 -106 68.5 -171t159.5 -65q55 0 104 28.5t81 72.5l17 -12q-34 -49 -87 -79t-116 -30zM81 263h424q-3 92 -58.5 160.5t-149.5 68.5q-92 0 -152 -65t-64 -164zM297 594
q-55 0 -87 27.5t-38 71.5h16q7 -33 35 -56.5t74 -23.5q47 0 74.5 23.5t34.5 56.5h16q-6 -43 -38.5 -71t-86.5 -28z" />
    <glyph glyph-name="Edotaccent" unicode="&#x116;" horiz-adv-x="661" 
d="M104 0v700h489v-20h-467v-318h424v-20h-424v-322h472v-20h-494zM332 784v50h38v-50h-38z" />
    <glyph glyph-name="edotaccent" unicode="&#x117;" horiz-adv-x="583" 
d="M308 -12q-106 0 -178 72t-72 190v2q0 111 68 185.5t172 74.5q110 0 170 -80t60 -184v-4h-447q3 -106 68.5 -171t159.5 -65q55 0 104 28.5t81 72.5l17 -12q-34 -49 -87 -79t-116 -30zM81 263h424q-3 92 -58.5 160.5t-149.5 68.5q-92 0 -152 -65t-64 -164zM279 614v50h36
v-50h-36z" />
    <glyph glyph-name="Eogonek" unicode="&#x118;" horiz-adv-x="661" 
d="M104 0v700h489v-20h-467v-318h424v-20h-424v-322h472v-20h-30q-58 -38 -58 -83q0 -25 22.5 -41t64.5 -19v-16q-48 0 -79 21t-31 53q0 45 56 85h-439z" />
    <glyph glyph-name="eogonek" unicode="&#x119;" horiz-adv-x="583" 
d="M494 109l17 -12q-26 -36 -88 -85q-63 -49 -63 -93q0 -56 87 -62v-16q-48 0 -79 21t-31 52q0 45 52 88q-42 -14 -81 -14q-106 0 -178 72t-72 190v2q0 111 68 185.5t172 74.5q110 0 170 -80t60 -184v-4h-447q3 -106 68.5 -171t159.5 -65q55 0 104 28.5t81 72.5zM81 263h424
q-3 92 -58.5 160.5t-149.5 68.5q-92 0 -152 -65t-64 -164z" />
    <glyph glyph-name="Ecaron" unicode="&#x11a;" horiz-adv-x="661" 
d="M104 0v700h489v-20h-467v-318h424v-20h-424v-322h472v-20h-494zM466 862l-106 -97h-18l-106 97h21l94 -75l94 75h21z" />
    <glyph glyph-name="ecaron" unicode="&#x11b;" horiz-adv-x="583" 
d="M308 -12q-106 0 -178 72t-72 190v2q0 111 68 185.5t172 74.5q110 0 170 -80t60 -184v-4h-447q3 -106 68.5 -171t159.5 -65q55 0 104 28.5t81 72.5l17 -12q-34 -49 -87 -79t-116 -30zM81 263h424q-3 92 -58.5 160.5t-149.5 68.5q-92 0 -152 -65t-64 -164zM409 707
l-105 -112h-14l-105 112h18l94 -87l94 87h18z" />
    <glyph glyph-name="Gbreve" unicode="&#x11e;" horiz-adv-x="779" 
d="M418 -12q-159 0 -252 104t-93 256v2q0 95 41 176.5t121.5 133.5t183.5 52q76 0 131.5 -22t111.5 -68l-14 -17q-53 43 -106 65t-124 22q-142 0 -232.5 -102.5t-90.5 -238.5v-2q0 -142 88 -241.5t236 -99.5q136 0 249 96v225h-258v22h280v-255q-119 -108 -272 -108z
M410 769q-55 0 -87 23t-39 61h17q19 -64 109 -64q89 0 109 64h17q-8 -38 -40 -61t-86 -23z" />
    <glyph glyph-name="gbreve" unicode="&#x11f;" horiz-adv-x="646" 
d="M310 -163q-123 0 -227 77l13 17q97 -74 214 -74q102 0 162 57.5t60 165.5v102q-28 -65 -89 -105t-136 -40q-102 0 -174.5 69.5t-72.5 166.5v2q0 98 72.5 167.5t174.5 69.5q75 0 136 -40t89 -105v133h21v-424q0 -111 -64 -175t-179 -64zM308 57q93 0 159.5 63.5
t66.5 151.5v2q0 88 -66.5 153t-159.5 65q-94 0 -159.5 -63.5t-65.5 -152.5v-2q0 -90 66 -153.5t159 -63.5zM330 594q-55 0 -87 27.5t-38 71.5h16q7 -33 35 -56.5t74 -23.5q47 0 74.5 23.5t34.5 56.5h16q-6 -43 -38.5 -71t-86.5 -28z" />
    <glyph glyph-name="Gdotaccent" unicode="&#x120;" horiz-adv-x="779" 
d="M418 -12q-159 0 -252 104t-93 256v2q0 95 41 176.5t121.5 133.5t183.5 52q76 0 131.5 -22t111.5 -68l-14 -17q-53 43 -106 65t-124 22q-142 0 -232.5 -102.5t-90.5 -238.5v-2q0 -142 88 -241.5t236 -99.5q136 0 249 96v225h-258v22h280v-255q-119 -108 -272 -108z
M391 789v50h38v-50h-38z" />
    <glyph glyph-name="gdotaccent" unicode="&#x121;" horiz-adv-x="646" 
d="M310 -163q-123 0 -227 77l13 17q97 -74 214 -74q102 0 162 57.5t60 165.5v102q-28 -65 -89 -105t-136 -40q-102 0 -174.5 69.5t-72.5 166.5v2q0 98 72.5 167.5t174.5 69.5q75 0 136 -40t89 -105v133h21v-424q0 -111 -64 -175t-179 -64zM308 57q93 0 159.5 63.5
t66.5 151.5v2q0 88 -66.5 153t-159.5 65q-94 0 -159.5 -63.5t-65.5 -152.5v-2q0 -90 66 -153.5t159 -63.5zM312 614v50h36v-50h-36z" />
    <glyph glyph-name="Gcommaaccent" unicode="&#x122;" horiz-adv-x="779" 
d="M418 -12q-159 0 -252 104t-93 256v2q0 95 41 176.5t121.5 133.5t183.5 52q76 0 131.5 -22t111.5 -68l-14 -17q-53 43 -106 65t-124 22q-142 0 -232.5 -102.5t-90.5 -238.5v-2q0 -142 88 -241.5t236 -99.5q136 0 249 96v225h-258v22h280v-255q-119 -108 -272 -108z
M390 -187l-7 13q23 11 26 48h-18v47h36v-21q0 -41 -8.5 -59.5t-28.5 -27.5z" />
    <glyph glyph-name="gcommaaccent" unicode="&#x123;" horiz-adv-x="646" 
d="M310 -163q-123 0 -227 77l13 17q97 -74 214 -74q102 0 162 57.5t60 165.5v102q-28 -65 -89 -105t-136 -40q-102 0 -174.5 69.5t-72.5 166.5v2q0 98 72.5 167.5t174.5 69.5q75 0 136 -40t89 -105v133h21v-424q0 -111 -64 -175t-179 -64zM308 57q93 0 159.5 63.5
t66.5 151.5v2q0 88 -66.5 153t-159.5 65q-94 0 -159.5 -63.5t-65.5 -152.5v-2q0 -90 66 -153.5t159 -63.5zM349 721l7 -13q-23 -11 -26 -48h18v-47h-36v21q0 41 8.5 59.5t28.5 27.5z" />
    <glyph glyph-name="Hbar" unicode="&#x126;" horiz-adv-x="752" 
d="M29 529v19h75v152h22v-152h500v152h22v-152h75v-19h-75v-529h-22v343h-500v-343h-22v529h-75zM126 363h500v166h-500v-166z" />
    <glyph glyph-name="hbar" unicode="&#x127;" horiz-adv-x="608" 
d="M299 618h-185v-255q15 55 67.5 102t133.5 47q100 0 155 -62t55 -167v-283h-21v281q0 96 -49.5 153.5t-141.5 57.5q-83 0 -141 -62.5t-58 -152.5v-277h-21v618h-70v19h70v93h21v-93h185v-19z" />
    <glyph glyph-name="Imacron" unicode="&#x12a;" horiz-adv-x="244" 
d="M111 0v700h22v-700h-22zM-14 791v20h272v-20h-272z" />
    <glyph glyph-name="imacron" unicode="&#x12b;" horiz-adv-x="219" 
d="M99 0v500h21v-500h-21zM-21 621v19h260v-19h-260z" />
    <glyph glyph-name="Ibreve" unicode="&#x12c;" horiz-adv-x="244" 
d="M111 0v700h22v-700h-22zM122 764q-55 0 -87 23t-39 61h17q19 -64 109 -64q89 0 109 64h17q-8 -38 -40 -61t-86 -23z" />
    <glyph glyph-name="ibreve" unicode="&#x12d;" horiz-adv-x="219" 
d="M99 0v500h21v-500h-21zM109 594q-55 0 -87 27.5t-38 71.5h16q7 -33 35 -56.5t74 -23.5q47 0 74.5 23.5t34.5 56.5h16q-6 -43 -38.5 -71t-86.5 -28z" />
    <glyph glyph-name="Iogonek" unicode="&#x12e;" horiz-adv-x="244" 
d="M159 -143v-16q-48 0 -79 21t-31 53q0 47 62 89v696h22v-700h-3q-58 -38 -58 -83q0 -25 22.5 -41t64.5 -19z" />
    <glyph glyph-name="iogonek" unicode="&#x12f;" horiz-adv-x="219" 
d="M146 -143v-16q-48 0 -79 21t-31 53q0 47 63 90v495h21v-500h-3q-58 -38 -58 -83q0 -25 22.5 -41t64.5 -19zM94 643v57h31v-57h-31z" />
    <glyph glyph-name="Idotaccent" unicode="&#x130;" horiz-adv-x="244" 
d="M111 0v700h22v-700h-22zM103 784v50h38v-50h-38z" />
    <glyph glyph-name="dotlessi" unicode="&#x131;" horiz-adv-x="219" 
d="M99 0v500h21v-500h-21z" />
    <glyph glyph-name="Kcommaaccent" unicode="&#x136;" horiz-adv-x="705" 
d="M104 0v700h22v-473l484 473h31l-304 -295l315 -405h-27l-303 390l-196 -191v-199h-22zM333 -177l-7 13q23 11 26 48h-18v47h36v-21q0 -41 -8.5 -59.5t-28.5 -27.5z" />
    <glyph glyph-name="kcommaaccent" unicode="&#x137;" horiz-adv-x="543" 
d="M93 0v730h21v-555l347 325h28l-238 -221l254 -279h-26l-241 266l-124 -115v-151h-21zM257 -177l-7 13q23 11 26 48h-18v47h36v-21q0 -41 -8.5 -59.5t-28.5 -27.5z" />
    <glyph glyph-name="Lacute" unicode="&#x139;" horiz-adv-x="584" 
d="M104 0v700h22v-680h430v-20h-452zM117 765l99 99l23 -12l-104 -87h-18z" />
    <glyph glyph-name="lacute" unicode="&#x13a;" horiz-adv-x="219" 
d="M99 0v730h21v-730h-21zM97 777l99 99l23 -12l-104 -87h-18z" />
    <glyph glyph-name="Lcommaaccent" unicode="&#x13b;" horiz-adv-x="584" 
d="M104 0v700h22v-680h430v-20h-452zM305 -182l-7 13q23 11 26 48h-18v47h36v-21q0 -41 -8.5 -59.5t-28.5 -27.5z" />
    <glyph glyph-name="lcommaaccent" unicode="&#x13c;" horiz-adv-x="219" 
d="M99 0v730h21v-730h-21zM89 -182l-7 13q23 11 26 48h-18v47h36v-21q0 -41 -8.5 -59.5t-28.5 -27.5z" />
    <glyph glyph-name="Lcaron" unicode="&#x13d;" horiz-adv-x="584" 
d="M104 0v700h22v-680h430v-20h-452zM254 551l17 149h25v-2l-30 -147h-12z" />
    <glyph glyph-name="lcaron" unicode="&#x13e;" horiz-adv-x="219" 
d="M99 0v730h21v-730h-21zM180 581l17 149h25v-2l-30 -147h-12z" />
    <glyph glyph-name="Ldot" unicode="&#x13f;" horiz-adv-x="584" 
d="M416 325v57h33v-57h-33zM104 0v700h22v-680h430v-20h-452z" />
    <glyph glyph-name="ldot" unicode="&#x140;" horiz-adv-x="219" 
d="M203 337v57h33v-57h-33zM99 0v730h21v-730h-21z" />
    <glyph glyph-name="Lslash" unicode="&#x141;" horiz-adv-x="610" 
d="M364 430l-212 -102v-308h430v-20h-452v317l-95 -45v22l95 45v361h22v-350l212 102v-22z" />
    <glyph glyph-name="lslash" unicode="&#x142;" horiz-adv-x="259" 
d="M220 408l-80 -45v-363h-21v351l-80 -44v22l80 44v357h21v-345l80 45v-22z" />
    <glyph glyph-name="Nacute" unicode="&#x143;" horiz-adv-x="780" 
d="M104 0v700h19l532 -664v664h21v-700h-19l-532 664v-664h-21zM385 760l99 99l23 -12l-104 -87h-18z" />
    <glyph glyph-name="nacute" unicode="&#x144;" horiz-adv-x="608" 
d="M93 0v500h21v-137q15 55 67.5 102t133.5 47q100 0 155 -62t55 -167v-283h-21v281q0 96 -49.5 153.5t-141.5 57.5q-83 0 -141 -62.5t-58 -152.5v-277h-21zM297 595l87 113l24 -11l-97 -102h-14z" />
    <glyph glyph-name="Ncommaaccent" unicode="&#x145;" horiz-adv-x="780" 
d="M104 0v700h19l532 -664v664h21v-700h-19l-532 664v-664h-21zM378 -177l-7 13q23 11 26 48h-18v47h36v-21q0 -41 -8.5 -59.5t-28.5 -27.5z" />
    <glyph glyph-name="ncommaaccent" unicode="&#x146;" horiz-adv-x="608" 
d="M93 0v500h21v-137q15 55 67.5 102t133.5 47q100 0 155 -62t55 -167v-283h-21v281q0 96 -49.5 153.5t-141.5 57.5q-83 0 -141 -62.5t-58 -152.5v-277h-21zM289 -177l-7 13q23 11 26 48h-18v47h36v-21q0 -41 -8.5 -59.5t-28.5 -27.5z" />
    <glyph glyph-name="Ncaron" unicode="&#x147;" horiz-adv-x="780" 
d="M104 0v700h19l532 -664v664h21v-700h-19l-532 664v-664h-21zM513 857l-106 -97h-18l-106 97h21l94 -75l94 75h21z" />
    <glyph glyph-name="ncaron" unicode="&#x148;" horiz-adv-x="608" 
d="M93 0v500h21v-137q15 55 67.5 102t133.5 47q100 0 155 -62t55 -167v-283h-21v281q0 96 -49.5 153.5t-141.5 57.5q-83 0 -141 -62.5t-58 -152.5v-277h-21zM421 707l-105 -112h-14l-105 112h18l94 -87l94 87h18z" />
    <glyph glyph-name="Omacron" unicode="&#x14c;" horiz-adv-x="842" 
d="M421 -12q-154 0 -251 106.5t-97 254.5v2q0 148 97 254.5t251 106.5t251 -106.5t97 -254.5v-2q0 -148 -97 -254.5t-251 -106.5zM422 8q143 0 234 100.5t91 239.5v2q0 139 -92.5 240.5t-234.5 101.5q-143 0 -234 -100.5t-91 -239.5v-2q0 -139 92.5 -240.5t234.5 -101.5z
M285 796v20h272v-20h-272z" />
    <glyph glyph-name="omacron" unicode="&#x14d;" horiz-adv-x="634" 
d="M317 -12q-114 0 -187 76t-73 184v2q0 108 72.5 185t187.5 77q114 0 187 -76t73 -184v-2q0 -108 -72.5 -185t-187.5 -77zM318 8q104 0 170.5 70.5t66.5 170.5v2q0 100 -68 170.5t-171 70.5q-104 0 -170.5 -70.5t-66.5 -170.5v-2q0 -100 68 -170.5t171 -70.5zM187 621v19
h260v-19h-260z" />
    <glyph glyph-name="Obreve" unicode="&#x14e;" horiz-adv-x="842" 
d="M421 -12q-154 0 -251 106.5t-97 254.5v2q0 148 97 254.5t251 106.5t251 -106.5t97 -254.5v-2q0 -148 -97 -254.5t-251 -106.5zM422 8q143 0 234 100.5t91 239.5v2q0 139 -92.5 240.5t-234.5 101.5q-143 0 -234 -100.5t-91 -239.5v-2q0 -139 92.5 -240.5t234.5 -101.5z
M421 769q-55 0 -87 23t-39 61h17q19 -64 109 -64q89 0 109 64h17q-8 -38 -40 -61t-86 -23z" />
    <glyph glyph-name="obreve" unicode="&#x14f;" horiz-adv-x="634" 
d="M317 -12q-114 0 -187 76t-73 184v2q0 108 72.5 185t187.5 77q114 0 187 -76t73 -184v-2q0 -108 -72.5 -185t-187.5 -77zM318 8q104 0 170.5 70.5t66.5 170.5v2q0 100 -68 170.5t-171 70.5q-104 0 -170.5 -70.5t-66.5 -170.5v-2q0 -100 68 -170.5t171 -70.5zM317 594
q-55 0 -87 27.5t-38 71.5h16q7 -33 35 -56.5t74 -23.5q47 0 74.5 23.5t34.5 56.5h16q-6 -43 -38.5 -71t-86.5 -28z" />
    <glyph glyph-name="Ohungarumlaut" unicode="&#x150;" horiz-adv-x="842" 
d="M421 -12q-154 0 -251 106.5t-97 254.5v2q0 148 97 254.5t251 106.5t251 -106.5t97 -254.5v-2q0 -148 -97 -254.5t-251 -106.5zM422 8q143 0 234 100.5t91 239.5v2q0 139 -92.5 240.5t-234.5 101.5q-143 0 -234 -100.5t-91 -239.5v-2q0 -139 92.5 -240.5t234.5 -101.5z
M342 770l99 99l23 -12l-104 -87h-18zM463 770l99 99l23 -12l-104 -87h-18z" />
    <glyph glyph-name="ohungarumlaut" unicode="&#x151;" horiz-adv-x="634" 
d="M317 -12q-114 0 -187 76t-73 184v2q0 108 72.5 185t187.5 77q114 0 187 -76t73 -184v-2q0 -108 -72.5 -185t-187.5 -77zM318 8q104 0 170.5 70.5t66.5 170.5v2q0 100 -68 170.5t-171 70.5q-104 0 -170.5 -70.5t-66.5 -170.5v-2q0 -100 68 -170.5t171 -70.5zM349 595
l87 113l24 -11l-97 -102h-14zM248 595l87 113l24 -11l-97 -102h-14z" />
    <glyph glyph-name="OE" unicode="&#x152;" horiz-adv-x="1165" 
d="M445 0q-163 0 -267.5 100t-104.5 249v2q0 149 104.5 249t267.5 100h652v-20h-452v-318h409v-20h-409v-322h457v-20h-657zM446 20h177v660h-179q-153 0 -251 -94.5t-98 -233.5v-2q0 -140 99 -235t252 -95z" />
    <glyph glyph-name="oe" unicode="&#x153;" horiz-adv-x="1077" 
d="M317 -12q-114 0 -187 76t-73 184v2q0 108 72.5 185t187.5 77q93 0 160 -52t87 -137q18 86 80.5 137.5t147.5 51.5q110 0 170 -80t60 -184v-4h-447q3 -105 68 -170.5t158 -65.5q119 0 188 92l16 -12q-73 -100 -205 -100q-86 0 -152 51t-84 141q-19 -86 -86 -139t-161 -53z
M318 8q104 0 170.5 70.5t66.5 170.5v2q0 100 -68 170.5t-171 70.5q-104 0 -170.5 -70.5t-66.5 -170.5v-2q0 -100 68 -170.5t171 -70.5zM575 263h424q-3 92 -58.5 160.5t-149.5 68.5q-92 0 -152 -65t-64 -164z" />
    <glyph glyph-name="Racute" unicode="&#x154;" horiz-adv-x="724" 
d="M104 0v700h286q135 0 201 -66q50 -50 50 -130v-2q0 -87 -62.5 -138.5t-166.5 -57.5l233 -306h-27l-232 305h-260v-305h-22zM126 325h253q117 0 178.5 49t61.5 127v2q0 83 -61 130t-170 47h-262v-355zM335 765l99 99l23 -12l-104 -87h-18z" />
    <glyph glyph-name="racute" unicode="&#x155;" horiz-adv-x="335" 
d="M93 0v500h21v-160q19 70 74 121.5t132 50.5v-20h-5q-87 0 -144 -76t-57 -157v-259h-21zM175 595l87 113l24 -11l-97 -102h-14z" />
    <glyph glyph-name="Rcommaaccent" unicode="&#x156;" horiz-adv-x="724" 
d="M104 0v700h286q135 0 201 -66q50 -50 50 -130v-2q0 -87 -62.5 -138.5t-166.5 -57.5l233 -306h-27l-232 305h-260v-305h-22zM126 325h253q117 0 178.5 49t61.5 127v2q0 83 -61 130t-170 47h-262v-355zM328 -177l-7 13q23 11 26 48h-18v47h36v-21q0 -41 -8.5 -59.5
t-28.5 -27.5z" />
    <glyph glyph-name="rcommaaccent" unicode="&#x157;" horiz-adv-x="335" 
d="M93 0v500h21v-160q19 70 74 121.5t132 50.5v-20h-5q-87 0 -144 -76t-57 -157v-259h-21zM86 -182l-7 13q23 11 26 48h-18v47h36v-21q0 -41 -8.5 -59.5t-28.5 -27.5z" />
    <glyph glyph-name="Rcaron" unicode="&#x158;" horiz-adv-x="724" 
d="M104 0v700h286q135 0 201 -66q50 -50 50 -130v-2q0 -87 -62.5 -138.5t-166.5 -57.5l233 -306h-27l-232 305h-260v-305h-22zM126 325h253q117 0 178.5 49t61.5 127v2q0 83 -61 130t-170 47h-262v-355zM463 862l-106 -97h-18l-106 97h21l94 -75l94 75h21z" />
    <glyph glyph-name="rcaron" unicode="&#x159;" horiz-adv-x="335" 
d="M93 0v500h21v-160q19 70 74 121.5t132 50.5v-20h-5q-87 0 -144 -76t-57 -157v-259h-21zM299 707l-105 -112h-14l-105 112h18l94 -87l94 87h18z" />
    <glyph glyph-name="Sacute" unicode="&#x15a;" horiz-adv-x="642" 
d="M336 -10q-159 0 -277 112l16 16q111 -108 263 -108q97 0 156 46.5t59 118.5v2q0 66 -49.5 104t-179.5 64t-184.5 68t-54.5 116v2q0 74 65 126.5t163 52.5q134 0 238 -80l-14 -18q-103 78 -226 78q-89 0 -146.5 -47t-57.5 -111v-2q0 -65 49.5 -102t176.5 -63
q134 -27 188 -70.5t54 -116.5v-2q0 -80 -65 -133t-174 -53zM318 770l99 99l23 -12l-104 -87h-18z" />
    <glyph glyph-name="sacute" unicode="&#x15b;" horiz-adv-x="490" 
d="M246 -9q-114 0 -202 74l13 17q85 -71 190 -71q68 0 113 31.5t45 79.5v2q0 22 -10.5 40t-22.5 29t-39.5 22.5t-42.5 16l-49 14.5q-91 26 -133 53t-42 81v2q0 54 48.5 90.5t125.5 36.5q94 0 174 -56l-12 -18q-76 54 -162 54q-67 0 -109.5 -30.5t-42.5 -75.5v-2
q0 -45 40 -69t119 -46q35 -10 57.5 -17t48 -19.5t40 -26t24.5 -33.5t10 -45v-2q0 -58 -51 -95t-130 -37zM234 595l87 113l24 -11l-97 -102h-14z" />
    <glyph glyph-name="Scedilla" unicode="&#x15e;" horiz-adv-x="642" 
d="M270 -141l-22 11l77 120q-154 5 -266 112l16 16q111 -108 263 -108q97 0 156 46.5t59 118.5v2q0 66 -49.5 104t-179.5 64t-184.5 68t-54.5 116v2q0 74 65 126.5t163 52.5q134 0 238 -80l-14 -18q-103 78 -226 78q-89 0 -146.5 -47t-57.5 -111v-2q0 -65 49.5 -102
t176.5 -63q134 -27 188 -70.5t54 -116.5v-2q0 -79 -64 -132t-170 -54z" />
    <glyph glyph-name="scedilla" unicode="&#x15f;" horiz-adv-x="490" 
d="M180 -141l-22 11l78 121q-111 5 -192 74l13 17q85 -71 190 -71q68 0 113 31.5t45 79.5v2q0 22 -10.5 40t-22.5 29t-39.5 22.5t-42.5 16l-49 14.5q-91 26 -133 53t-42 81v2q0 54 48.5 90.5t125.5 36.5q94 0 174 -56l-12 -18q-76 54 -162 54q-67 0 -109.5 -30.5
t-42.5 -75.5v-2q0 -45 40 -69t119 -46q35 -10 57.5 -17t48 -19.5t40 -26t24.5 -33.5t10 -45v-2q0 -57 -49.5 -93.5t-125.5 -38.5z" />
    <glyph glyph-name="Scaron" unicode="&#x160;" horiz-adv-x="642" 
d="M336 -10q-159 0 -277 112l16 16q111 -108 263 -108q97 0 156 46.5t59 118.5v2q0 66 -49.5 104t-179.5 64t-184.5 68t-54.5 116v2q0 74 65 126.5t163 52.5q134 0 238 -80l-14 -18q-103 78 -226 78q-89 0 -146.5 -47t-57.5 -111v-2q0 -65 49.5 -102t176.5 -63
q134 -27 188 -70.5t54 -116.5v-2q0 -80 -65 -133t-174 -53zM446 867l-106 -97h-18l-106 97h21l94 -75l94 75h21z" />
    <glyph glyph-name="scaron" unicode="&#x161;" horiz-adv-x="490" 
d="M246 -9q-114 0 -202 74l13 17q85 -71 190 -71q68 0 113 31.5t45 79.5v2q0 22 -10.5 40t-22.5 29t-39.5 22.5t-42.5 16l-49 14.5q-91 26 -133 53t-42 81v2q0 54 48.5 90.5t125.5 36.5q94 0 174 -56l-12 -18q-76 54 -162 54q-67 0 -109.5 -30.5t-42.5 -75.5v-2
q0 -45 40 -69t119 -46q35 -10 57.5 -17t48 -19.5t40 -26t24.5 -33.5t10 -45v-2q0 -58 -51 -95t-130 -37zM358 707l-105 -112h-14l-105 112h18l94 -87l94 87h18z" />
    <glyph glyph-name="Tcommaaccent" unicode="&#x162;" horiz-adv-x="582" 
d="M280 0v680h-253v20h528v-20h-253v-680h-22zM271 -182l-7 13q23 11 26 48h-18v47h36v-21q0 -41 -8.5 -59.5t-28.5 -27.5z" />
    <glyph glyph-name="tcommaaccent" unicode="&#x163;" horiz-adv-x="373" 
d="M248 -9q-62 0 -95 35.5t-33 101.5v353h-79v19h79v173h21v-173h185v-19h-185v-351q0 -57 27 -88t80 -31q40 0 76 18v-22q-35 -16 -76 -16zM189 -187l-7 13q23 11 26 48h-18v47h36v-21q0 -41 -8.5 -59.5t-28.5 -27.5z" />
    <glyph glyph-name="Tcaron" unicode="&#x164;" horiz-adv-x="582" 
d="M280 0v680h-253v20h528v-20h-253v-680h-22zM406 862l-106 -97h-18l-106 97h21l94 -75l94 75h21z" />
    <glyph glyph-name="tcaron" unicode="&#x165;" horiz-adv-x="373" 
d="M248 -9q-62 0 -95 35.5t-33 101.5v353h-79v19h79v173h21v-173h185v-19h-185v-351q0 -57 27 -88t80 -31q40 0 76 18v-22q-35 -16 -76 -16zM266 581l17 149h25v-2l-30 -147h-12z" />
    <glyph glyph-name="Umacron" unicode="&#x16a;" horiz-adv-x="752" 
d="M376 -11q-129 0 -206 82t-77 239v390h22v-390q0 -147 71 -224t191 -77q121 0 190.5 76.5t69.5 223.5v391h22v-390q0 -157 -76.5 -239t-206.5 -82zM240 786v20h272v-20h-272z" />
    <glyph glyph-name="umacron" unicode="&#x16b;" horiz-adv-x="608" 
d="M293 -12q-100 0 -155 62t-55 167v283h21v-281q0 -96 49.5 -153.5t141.5 -57.5q83 0 141 62.5t58 152.5v277h21v-500h-21v137q-15 -55 -67.5 -102t-133.5 -47zM169 616v19h260v-19h-260z" />
    <glyph glyph-name="Ubreve" unicode="&#x16c;" horiz-adv-x="752" 
d="M376 -11q-129 0 -206 82t-77 239v390h22v-390q0 -147 71 -224t191 -77q121 0 190.5 76.5t69.5 223.5v391h22v-390q0 -157 -76.5 -239t-206.5 -82zM376 759q-55 0 -87 23t-39 61h17q19 -64 109 -64q89 0 109 64h17q-8 -38 -40 -61t-86 -23z" />
    <glyph glyph-name="ubreve" unicode="&#x16d;" horiz-adv-x="608" 
d="M293 -12q-100 0 -155 62t-55 167v283h21v-281q0 -96 49.5 -153.5t141.5 -57.5q83 0 141 62.5t58 152.5v277h21v-500h-21v137q-15 -55 -67.5 -102t-133.5 -47zM299 589q-55 0 -87 27.5t-38 71.5h16q7 -33 35 -56.5t74 -23.5q47 0 74.5 23.5t34.5 56.5h16q-6 -43 -38.5 -71
t-86.5 -28z" />
    <glyph glyph-name="Uring" unicode="&#x16e;" horiz-adv-x="752" 
d="M376 -11q-129 0 -206 82t-77 239v390h22v-390q0 -147 71 -224t191 -77q121 0 190.5 76.5t69.5 223.5v391h22v-390q0 -157 -76.5 -239t-206.5 -82zM376 749q-42 0 -71.5 25t-29.5 63t29.5 63t71.5 25t71.5 -25t29.5 -63t-29.5 -63t-71.5 -25zM376 765q34 0 58 20t24 52
t-24 52t-58 20t-58 -20t-24 -52t24 -52t58 -20z" />
    <glyph glyph-name="uring" unicode="&#x16f;" horiz-adv-x="608" 
d="M293 -12q-100 0 -155 62t-55 167v283h21v-281q0 -96 49.5 -153.5t141.5 -57.5q83 0 141 62.5t58 152.5v277h21v-500h-21v137q-15 -55 -67.5 -102t-133.5 -47zM299 579q-40 0 -68.5 27.5t-28.5 65.5t28.5 65.5t68.5 27.5t68.5 -27.5t28.5 -65.5t-28.5 -65.5t-68.5 -27.5z
M299 595q33 0 56 22.5t23 54.5t-23 54.5t-56 22.5t-56 -22.5t-23 -54.5t23 -54.5t56 -22.5z" />
    <glyph glyph-name="Uhungarumlaut" unicode="&#x170;" horiz-adv-x="752" 
d="M376 -11q-129 0 -206 82t-77 239v390h22v-390q0 -147 71 -224t191 -77q121 0 190.5 76.5t69.5 223.5v391h22v-390q0 -157 -76.5 -239t-206.5 -82zM297 760l99 99l23 -12l-104 -87h-18zM418 760l99 99l23 -12l-104 -87h-18z" />
    <glyph glyph-name="uhungarumlaut" unicode="&#x171;" horiz-adv-x="608" 
d="M293 -12q-100 0 -155 62t-55 167v283h21v-281q0 -96 49.5 -153.5t141.5 -57.5q83 0 141 62.5t58 152.5v277h21v-500h-21v137q-15 -55 -67.5 -102t-133.5 -47zM331 590l87 113l24 -11l-97 -102h-14zM230 590l87 113l24 -11l-97 -102h-14z" />
    <glyph glyph-name="Uogonek" unicode="&#x172;" horiz-adv-x="752" 
d="M430 -143v-16q-48 0 -79 21t-31 53q0 40 42 74q-124 5 -196.5 87t-72.5 234v390h22v-390q0 -147 71 -224t191 -77h12l5 3l2 -3q112 6 176.5 82.5t64.5 217.5v391h22v-390q0 -154 -73.5 -236t-199.5 -85q-43 -33 -43 -72q0 -25 22.5 -41t64.5 -19z" />
    <glyph glyph-name="uogonek" unicode="&#x173;" horiz-adv-x="608" 
d="M540 -143v-16q-48 0 -79 21t-31 53q0 49 64 90v132q-15 -55 -67.5 -102t-133.5 -47q-100 0 -155 62t-55 167v283h21v-281q0 -96 49.5 -153.5t141.5 -57.5q83 0 141 62.5t58 152.5v277h21v-500h-4q-58 -38 -58 -83q0 -25 22.5 -41t64.5 -19z" />
    <glyph glyph-name="Wcircumflex" unicode="&#x174;" horiz-adv-x="1017" 
d="M277 -5l-233 705h23l220 -670l213 672h17l214 -673l220 671h22l-233 -705h-19l-213 666l-212 -666h-19zM393 765l106 97h18l106 -97h-21l-94 75l-94 -75h-21z" />
    <glyph glyph-name="wcircumflex" unicode="&#x175;" horiz-adv-x="804" 
d="M223 -4l-175 504h22l161 -472l163 475h17l162 -475l162 472h21l-175 -504h-17l-162 476l-162 -476h-17zM290 595l105 112h14l105 -112h-18l-94 87l-94 -87h-18z" />
    <glyph glyph-name="Ycircumflex" unicode="&#x176;" horiz-adv-x="657" 
d="M318 0v293l-296 407h26l282 -388l279 388h26l-295 -407v-293h-22zM213 760l106 97h18l106 -97h-21l-94 75l-94 -75h-21z" />
    <glyph glyph-name="ycircumflex" unicode="&#x177;" horiz-adv-x="569" 
d="M293 22l215 478h22l-232 -510q-42 -92 -75.5 -122.5t-84.5 -30.5q-50 0 -94 27l10 17q42 -25 84 -25q45 0 75 28.5t70 115.5l-241 500h23zM174 590l105 112h14l105 -112h-18l-94 87l-94 -87h-18z" />
    <glyph glyph-name="Ydieresis" unicode="&#x178;" horiz-adv-x="657" 
d="M318 0v293l-296 407h26l282 -388l279 388h26l-295 -407v-293h-22zM379 779v50h38v-50h-38zM239 779v50h38v-50h-38z" />
    <glyph glyph-name="Zacute" unicode="&#x179;" horiz-adv-x="678" 
d="M66 0v13l507 667h-490v20h521v-13l-507 -667h504v-20h-535zM332 765l99 99l23 -12l-104 -87h-18z" />
    <glyph glyph-name="zacute" unicode="&#x17a;" horiz-adv-x="487" 
d="M36 0v12l381 469h-369v19h400v-12l-381 -469h383v-19h-414zM239 595l87 113l24 -11l-97 -102h-14z" />
    <glyph glyph-name="Zdotaccent" unicode="&#x17b;" horiz-adv-x="678" 
d="M66 0v13l507 667h-490v20h521v-13l-507 -667h504v-20h-535zM326 784v50h38v-50h-38z" />
    <glyph glyph-name="zdotaccent" unicode="&#x17c;" horiz-adv-x="487" 
d="M36 0v12l381 469h-369v19h400v-12l-381 -469h383v-19h-414zM233 614v50h36v-50h-36z" />
    <glyph glyph-name="Zcaron" unicode="&#x17d;" horiz-adv-x="678" 
d="M66 0v13l507 667h-490v20h521v-13l-507 -667h504v-20h-535zM460 862l-106 -97h-18l-106 97h21l94 -75l94 75h21z" />
    <glyph glyph-name="zcaron" unicode="&#x17e;" horiz-adv-x="487" 
d="M36 0v12l381 469h-369v19h400v-12l-381 -469h383v-19h-414zM363 707l-105 -112h-14l-105 112h18l94 -87l94 87h18z" />
    <glyph glyph-name="florin" unicode="&#x192;" horiz-adv-x="464" 
d="M61 -4q-20 0 -39 4v20q16 -4 39 -4q38 0 62.5 25.5t36.5 90.5l50 268h-111v20h115l27 144q26 140 134 140q23 0 56 -9v-21q-31 9 -55 9q-46 0 -74.5 -29t-41.5 -100l-25 -134h157v-20h-161l-51 -273q-14 -75 -43.5 -103t-75.5 -28z" />
    <glyph glyph-name="Aringacute" unicode="&#x1fa;" horiz-adv-x="767" 
d="M37 0l324 679q-35 6 -57 29.5t-22 56.5q0 38 29.5 63t71.5 25t71.5 -25t29.5 -63q0 -32 -22.5 -56t-56.5 -30l325 -679h-24l-100 210h-446l-100 -210h-23zM170 230h426l-213 446zM383 693q34 0 58 20t24 52t-24 52t-58 20t-58 -20t-24 -52t24 -52t58 -20zM368 884l90 84
l22 -12l-92 -72h-20z" />
    <glyph glyph-name="aringacute" unicode="&#x1fb;" horiz-adv-x="566" 
d="M272 822l88 93l23 -11l-95 -82h-16zM238 -12q-78 0 -132.5 39.5t-54.5 110.5v2q0 76 62.5 117.5t160.5 41.5q102 0 188 -31v42q0 89 -49.5 133.5t-139.5 44.5q-79 0 -166 -42l-8 18q90 44 175 44q105 0 160 -55q49 -49 49 -142v-311h-21v118q-18 -51 -77 -90.5
t-147 -39.5zM239 8q97 0 160 52.5t63 122.5v64q-85 32 -187 32q-89 0 -145.5 -36t-56.5 -102v-2q0 -63 48 -97t118 -34zM285 594q-40 0 -68.5 27.5t-28.5 65.5t28.5 65.5t68.5 27.5t68.5 -27.5t28.5 -65.5t-28.5 -65.5t-68.5 -27.5zM285 610q33 0 56 22.5t23 54.5t-23 54.5
t-56 22.5t-56 -22.5t-23 -54.5t23 -54.5t56 -22.5z" />
    <glyph glyph-name="AEacute" unicode="&#x1fc;" horiz-adv-x="1014" 
d="M0 0l449 700h497v-20h-452v-318h409v-20h-409v-322h457v-20h-479v210h-314l-134 -210h-24zM171 230h301v450h-12zM593 765l99 99l23 -12l-104 -87h-18z" />
    <glyph glyph-name="aeacute" unicode="&#x1fd;" horiz-adv-x="980" 
d="M250 -12q-88 0 -143.5 39t-55.5 111v2q0 76 62.5 117.5t160.5 41.5q101 0 183 -30q5 40 6 43q-2 89 -51.5 132.5t-138.5 43.5q-79 0 -166 -42l-8 18q90 44 175 44q177 0 202 -149q27 70 85 111.5t134 41.5q110 0 170 -80t60 -184v-4h-447q3 -105 68 -170.5t158 -65.5
q119 0 188 92l16 -12q-73 -100 -205 -100q-68 0 -125 33.5t-89 92.5q-30 -50 -94 -88t-145 -38zM478 263h424q-3 92 -58.5 160.5t-149.5 68.5q-92 0 -152 -65t-64 -164zM251 8q74 0 137.5 37t91.5 89q-23 51 -23 115q-82 30 -182 30q-89 0 -145.5 -36t-56.5 -102v-2
q0 -64 49 -97.5t129 -33.5zM476 595l87 113l24 -11l-97 -102h-14z" />
    <glyph glyph-name="Oslashacute" unicode="&#x1fe;" horiz-adv-x="842" 
d="M739 705h26l-93 -100q97 -103 97 -254v-2q0 -148 -97 -254.5t-251 -106.5q-143 0 -238 93l-80 -86h-26l93 99q-97 105 -97 255v2q0 148 97 254.5t251 106.5q140 0 238 -93zM422 8q143 0 234 100.5t91 239.5v2q0 143 -89 240l-461 -494q91 -88 225 -88zM95 350
q0 -143 89 -241l460 495q-91 88 -224 88q-143 0 -234 -100.5t-91 -239.5v-2zM408 770l99 99l23 -12l-104 -87h-18z" />
    <glyph glyph-name="oslashacute" unicode="&#x1ff;" horiz-adv-x="634" 
d="M548 505h25l-68 -71q72 -77 72 -182v-2q0 -108 -72.5 -185t-187.5 -77q-103 0 -176 65l-55 -58h-25l68 71q-72 74 -72 182v2q0 108 72.5 185t187.5 77q104 0 175 -66zM79 249q0 -101 64 -168l335 350q-66 61 -162 61q-104 0 -170.5 -70.5t-66.5 -170.5v-2zM318 8
q104 0 170.5 70.5t66.5 170.5v2q0 101 -64 168l-335 -351q66 -60 162 -60zM309 595l87 113l24 -11l-97 -102h-14z" />
    <glyph glyph-name="Scommaaccent" unicode="&#x218;" horiz-adv-x="642" 
d="M336 -10q-159 0 -277 112l16 16q111 -108 263 -108q97 0 156 46.5t59 118.5v2q0 66 -49.5 104t-179.5 64t-184.5 68t-54.5 116v2q0 74 65 126.5t163 52.5q134 0 238 -80l-14 -18q-103 78 -226 78q-89 0 -146.5 -47t-57.5 -111v-2q0 -65 49.5 -102t176.5 -63
q134 -27 188 -70.5t54 -116.5v-2q0 -80 -65 -133t-174 -53zM311 -187l-7 13q23 11 26 48h-18v47h36v-21q0 -41 -8.5 -59.5t-28.5 -27.5z" />
    <glyph glyph-name="scommaaccent" unicode="&#x219;" horiz-adv-x="490" 
d="M246 -9q-114 0 -202 74l13 17q85 -71 190 -71q68 0 113 31.5t45 79.5v2q0 22 -10.5 40t-22.5 29t-39.5 22.5t-42.5 16l-49 14.5q-91 26 -133 53t-42 81v2q0 54 48.5 90.5t125.5 36.5q94 0 174 -56l-12 -18q-76 54 -162 54q-67 0 -109.5 -30.5t-42.5 -75.5v-2
q0 -45 40 -69t119 -46q35 -10 57.5 -17t48 -19.5t40 -26t24.5 -33.5t10 -45v-2q0 -58 -51 -95t-130 -37zM226 -187l-7 13q23 11 26 48h-18v47h36v-21q0 -41 -8.5 -59.5t-28.5 -27.5z" />
    <glyph glyph-name="schwa" unicode="&#x259;" horiz-adv-x="583" 
d="M275 512q106 0 178 -72t72 -190v-2q0 -111 -68 -185.5t-172 -74.5q-110 0 -170 80t-60 184v4h447q-3 106 -68.5 171t-159.5 65q-55 0 -104 -28.5t-81 -72.5l-17 12q34 49 87 79t116 30zM502 237h-424q3 -92 58.5 -160.5t149.5 -68.5q92 0 152 65t64 164z" />
    <glyph glyph-name="circumflex" unicode="&#x2c6;" horiz-adv-x="500" 
d="M138 595l105 112h14l105 -112h-18l-94 87l-94 -87h-18z" />
    <glyph glyph-name="caron" unicode="&#x2c7;" horiz-adv-x="500" 
d="M362 707l-105 -112h-14l-105 112h18l94 -87l94 87h18z" />
    <glyph glyph-name="breve" unicode="&#x2d8;" horiz-adv-x="500" 
d="M250 594q-55 0 -87 27.5t-38 71.5h16q7 -33 35 -56.5t74 -23.5q47 0 74.5 23.5t34.5 56.5h16q-6 -43 -38.5 -71t-86.5 -28z" />
    <glyph glyph-name="dotaccent" unicode="&#x2d9;" horiz-adv-x="500" 
d="M232 614v50h36v-50h-36z" />
    <glyph glyph-name="ring" unicode="&#x2da;" horiz-adv-x="500" 
d="M250 594q-40 0 -68.5 27.5t-28.5 65.5t28.5 65.5t68.5 27.5t68.5 -27.5t28.5 -65.5t-28.5 -65.5t-68.5 -27.5zM250 610q33 0 56 22.5t23 54.5t-23 54.5t-56 22.5t-56 -22.5t-23 -54.5t23 -54.5t56 -22.5z" />
    <glyph glyph-name="ogonek" unicode="&#x2db;" horiz-adv-x="500" 
d="M324 -143v-16q-48 0 -79 21t-31 53q0 51 74 97l9 -11q-60 -40 -60 -84q0 -25 22.5 -41t64.5 -19z" />
    <glyph glyph-name="tilde" unicode="&#x2dc;" horiz-adv-x="500" 
d="M314 606q-21 0 -71 31q-42 27 -59 27q-38 0 -57 -63l-13 3q17 80 72 80q21 0 71 -31q42 -27 59 -27q38 0 57 63l13 -3q-17 -80 -72 -80z" />
    <glyph glyph-name="hungarumlaut" unicode="&#x2dd;" horiz-adv-x="500" 
d="M239 595l87 113l24 -11l-97 -102h-14zM138 595l87 113l24 -11l-97 -102h-14z" />
    <glyph glyph-name="commaaccent" unicode="&#x326;" horiz-adv-x="500" 
d="M231 -182l-7 13q23 11 26 48h-18v47h36v-21q0 -41 -8.5 -59.5t-28.5 -27.5z" />
    <glyph glyph-name="baht" unicode="&#xe3f;" horiz-adv-x="621" 
d="M351 779h20l-15 -82q84 -11 130 -55t46 -115q0 -69 -37 -111.5t-97 -59.5q72 -14 118 -59t46 -114q0 -88 -65 -135.5t-185 -47.5h-78l-21 -118h-20l21 118h-110v700h204q5 0 14.5 -0.5t14.5 -0.5zM329 344h-35l-57 -324h75q109 0 168.5 42t59.5 120q0 77 -59 119.5
t-152 42.5zM126 364h152l55 315q-4 0 -12.5 0.5t-13.5 0.5h-181v-316zM510 526q0 63 -41 102.5t-117 48.5l-55 -313h22q86 0 138.5 42.5t52.5 119.5zM126 20h92l57 324h-149v-324z" />
    <glyph glyph-name="Wgrave" unicode="&#x1e80;" horiz-adv-x="1017" 
d="M277 -5l-233 705h23l220 -670l213 672h17l214 -673l220 671h22l-233 -705h-19l-213 666l-212 -666h-19zM521 765h-18l-104 87l23 12z" />
    <glyph glyph-name="wgrave" unicode="&#x1e81;" horiz-adv-x="804" 
d="M223 -4l-175 504h22l161 -472l163 475h17l162 -475l162 472h21l-175 -504h-17l-162 476l-162 -476h-17zM400 595l-97 102l24 11l87 -113h-14z" />
    <glyph glyph-name="Wacute" unicode="&#x1e82;" horiz-adv-x="1017" 
d="M277 -5l-233 705h23l220 -670l213 672h17l214 -673l220 671h22l-233 -705h-19l-213 666l-212 -666h-19zM495 765l99 99l23 -12l-104 -87h-18z" />
    <glyph glyph-name="wacute" unicode="&#x1e83;" horiz-adv-x="804" 
d="M223 -4l-175 504h22l161 -472l163 475h17l162 -475l162 472h21l-175 -504h-17l-162 476l-162 -476h-17zM390 595l87 113l24 -11l-97 -102h-14z" />
    <glyph glyph-name="Wdieresis" unicode="&#x1e84;" horiz-adv-x="1017" 
d="M277 -5l-233 705h23l220 -670l213 672h17l214 -673l220 671h22l-233 -705h-19l-213 666l-212 -666h-19zM559 784v50h38v-50h-38zM419 784v50h38v-50h-38z" />
    <glyph glyph-name="wdieresis" unicode="&#x1e85;" horiz-adv-x="804" 
d="M223 -4l-175 504h22l161 -472l163 475h17l162 -475l162 472h21l-175 -504h-17l-162 476l-162 -476h-17zM449 614v50h36v-50h-36zM319 614v50h36v-50h-36z" />
    <glyph glyph-name="Ygrave" unicode="&#x1ef2;" horiz-adv-x="657" 
d="M318 0v293l-296 407h26l282 -388l279 388h26l-295 -407v-293h-22zM341 760h-18l-104 87l23 12z" />
    <glyph glyph-name="ygrave" unicode="&#x1ef3;" horiz-adv-x="569" 
d="M293 22l215 478h22l-232 -510q-42 -92 -75.5 -122.5t-84.5 -30.5q-50 0 -94 27l10 17q42 -25 84 -25q45 0 75 28.5t70 115.5l-241 500h23zM284 590l-97 102l24 11l87 -113h-14z" />
    <glyph glyph-name="enspace" unicode="&#x2002;" horiz-adv-x="500" 
 />
    <glyph glyph-name="emspace" unicode="&#x2003;" horiz-adv-x="1000" 
 />
    <glyph glyph-name="threeperemspace" unicode="&#x2004;" horiz-adv-x="333" 
 />
    <glyph glyph-name="fourperemspace" unicode="&#x2005;" horiz-adv-x="250" 
 />
    <glyph glyph-name="figurespace" unicode="&#x2007;" 
 />
    <glyph glyph-name="thinspace" unicode="&#x2009;" horiz-adv-x="133" 
 />
    <glyph glyph-name="hairspace" unicode="&#x200a;" horiz-adv-x="75" 
 />
    <glyph glyph-name="endash" unicode="&#x2013;" horiz-adv-x="538" 
d="M70 287v20h398v-20h-398z" />
    <glyph glyph-name="emdash" unicode="&#x2014;" horiz-adv-x="894" 
d="M70 287v20h754v-20h-754z" />
    <glyph glyph-name="quoteleft" unicode="&#x2018;" horiz-adv-x="164" 
d="M64 570v46q0 41 8.5 59.5t28.5 27.5l7 -13q-28 -13 -26 -68h18v-52h-36z" />
    <glyph glyph-name="quoteright" unicode="&#x2019;" horiz-adv-x="164" 
d="M63 567l-7 13q28 13 26 68h-18v52h36v-46q0 -41 -8.5 -59.5t-28.5 -27.5z" />
    <glyph glyph-name="quotesinglbase" unicode="&#x201a;" horiz-adv-x="164" 
d="M63 -81l-7 13q28 13 26 68h-18v52h36v-46q0 -41 -8.5 -59.5t-28.5 -27.5z" />
    <glyph glyph-name="quotedblleft" unicode="&#x201c;" horiz-adv-x="254" 
d="M154 570v46q0 41 8.5 59.5t28.5 27.5l7 -13q-28 -13 -26 -68h18v-52h-36zM64 570v46q0 41 8.5 59.5t28.5 27.5l7 -13q-28 -13 -26 -68h18v-52h-36z" />
    <glyph glyph-name="quotedblright" unicode="&#x201d;" horiz-adv-x="254" 
d="M153 567l-7 13q28 13 26 68h-18v52h36v-46q0 -41 -8.5 -59.5t-28.5 -27.5zM63 567l-7 13q28 13 26 68h-18v52h36v-46q0 -41 -8.5 -59.5t-28.5 -27.5z" />
    <glyph glyph-name="quotedblbase" unicode="&#x201e;" horiz-adv-x="254" 
d="M153 -81l-7 13q28 13 26 68h-18v52h36v-46q0 -41 -8.5 -59.5t-28.5 -27.5zM63 -81l-7 13q28 13 26 68h-18v52h36v-46q0 -41 -8.5 -59.5t-28.5 -27.5z" />
    <glyph glyph-name="dagger" unicode="&#x2020;" horiz-adv-x="388" 
d="M182 238l6 297l-125 -6v22l125 -6l-5 155h22l-5 -155l125 6v-22l-125 6l6 -297h-24z" />
    <glyph glyph-name="daggerdbl" unicode="&#x2021;" horiz-adv-x="388" 
d="M183 0l5 155l-125 -6v22l125 -6l-5 185l5 185l-125 -6v22l125 -6l-5 155h22l-5 -155l125 6v-22l-125 6l5 -185l-5 -185l125 6v-22l-125 6l5 -155h-22z" />
    <glyph glyph-name="bullet" unicode="&#x2022;" horiz-adv-x="430" 
d="M216 248q-44 0 -75 30.5t-31 73.5v2q0 43 31 73.5t75 30.5t75 -30.5t31 -73.5v-2q0 -43 -31 -73.5t-75 -30.5z" />
    <glyph glyph-name="ellipsis" unicode="&#x2026;" horiz-adv-x="484" 
d="M384 0v52h36v-52h-36zM224 0v52h36v-52h-36zM64 0v52h36v-52h-36z" />
    <glyph glyph-name="perthousand" unicode="&#x2030;" horiz-adv-x="1165" 
d="M210 367q59 0 95.5 46.5t36.5 112.5v2q0 65 -37.5 113t-96.5 48t-95.5 -47t-36.5 -112v-2q0 -65 37.5 -113t96.5 -48zM209 348q-68 0 -111.5 53t-43.5 126v2q0 73 43.5 126t111.5 53t111.5 -53t43.5 -126v-2q0 -74 -43 -126.5t-112 -52.5zM665 700l-263 -358l-251 -342
h-22l260 354l254 346h22zM586 11q59 0 95.5 46.5t36.5 112.5v2q0 65 -37.5 113t-96.5 48t-95.5 -47t-36.5 -112v-2q0 -65 37.5 -113t96.5 -48zM585 -8q-68 0 -111.5 53t-43.5 126v2q0 73 43.5 126t111.5 53t111.5 -53t43.5 -126v-2q0 -74 -43 -126.5t-112 -52.5zM957 11
q59 0 95.5 46.5t36.5 112.5v2q0 65 -37.5 113t-96.5 48t-95.5 -47t-36.5 -112v-2q0 -65 37.5 -113t96.5 -48zM956 -8q-68 0 -111.5 53t-43.5 126v2q0 73 43.5 126t111.5 53t111.5 -53t43.5 -126v-2q0 -74 -43 -126.5t-112 -52.5z" />
    <glyph glyph-name="guilsinglleft" unicode="&#x2039;" horiz-adv-x="292" 
d="M220 47l-176 205v6l176 205l12 -10l-164 -198l164 -198z" />
    <glyph glyph-name="guilsinglright" unicode="&#x203a;" horiz-adv-x="292" 
d="M72 47l-12 10l164 198l-164 198l12 10l176 -205v-6z" />
    <glyph glyph-name="fraction" unicode="&#x2044;" horiz-adv-x="100" 
d="M-201 0l244 355l233 345h25l-244 -355l-233 -345h-25z" />
    <glyph glyph-name="zero.sup" unicode="&#x2070;" horiz-adv-x="400" 
d="M199 416q-63 0 -100 56.5t-37 144.5v2q0 88 37.5 145.5t100.5 57.5t100.5 -56.5t37.5 -144.5v-2q0 -88 -38 -145.5t-101 -57.5zM199 803q-52 0 -84 -52t-32 -131v-2q0 -79 32.5 -131t84.5 -52t84.5 52t32.5 131v2q0 79 -32.5 131t-85.5 52z" />
    <glyph glyph-name="four.sup" unicode="&#x2074;" horiz-adv-x="400" 
d="M287 523v-99h-19v99h-206l-6 16l207 279h24v-277h63v-18h-63zM268 541v253l-188 -253h188z" />
    <glyph glyph-name="five.sup" unicode="&#x2075;" horiz-adv-x="400" 
d="M193 416q-75 0 -133 63l15 13q53 -57 120 -57q54 0 88 30t34 75q0 42 -31.5 68.5t-83.5 26.5q-51 0 -106 -25l-13 8l13 194h225v-19h-207l-12 -162q51 23 102 23q59 0 96.5 -32t37.5 -81q0 -54 -42.5 -89.5t-102.5 -35.5z" />
    <glyph glyph-name="six.sup" unicode="&#x2076;" horiz-adv-x="400" 
d="M196 417q-55 0 -92 37q-46 46 -46 149v2q0 96 43 156.5t112 60.5q59 0 105 -44l-16 -16q-38 41 -91 41q-58 0 -95.5 -57t-36.5 -159q41 78 125 78q53 0 89.5 -32.5t36.5 -87.5q0 -53 -39 -90.5t-95 -37.5zM197 436q46 0 79 31t33 77t-29.5 74t-77.5 28q-46 0 -80 -31
t-34 -75t32.5 -74t76.5 -30z" />
    <glyph glyph-name="seven.sup" unicode="&#x2077;" horiz-adv-x="400" 
d="M149 424h-23l187 369h-243v19h265v-16z" />
    <glyph glyph-name="eight.sup" unicode="&#x2078;" horiz-adv-x="400" 
d="M200 416q-60 0 -100 30t-40 77q0 71 89 102q-76 29 -76 94q0 45 38.5 74t90.5 29q51 0 89 -29.5t38 -73.5q0 -68 -75 -94q88 -28 88 -100q0 -49 -40.5 -79t-101.5 -30zM201 804q-46 0 -76.5 -24t-30.5 -61q0 -38 30 -62.5t77 -24.5t77 24.5t30 62.5q0 37 -30.5 61
t-76.5 24zM201 615q-54 0 -87 -26t-33 -66q0 -39 33.5 -64t86.5 -25t86.5 25t33.5 64q0 40 -33.5 66t-86.5 26z" />
    <glyph glyph-name="nine.sup" unicode="&#x2079;" horiz-adv-x="400" 
d="M204 821q55 0 92 -37q46 -46 46 -149v-2q0 -96 -43 -156.5t-112 -60.5q-59 0 -110 47l16 16q42 -44 96 -44q58 0 95.5 56.5t36.5 157.5q-42 -80 -125 -80q-53 0 -89.5 33t-36.5 89q0 55 39 92.5t95 37.5zM198 588q46 0 80 31.5t34 76.5q0 44 -32.5 75t-76.5 31
q-46 0 -79 -31.5t-33 -78.5q0 -48 29.5 -76t77.5 -28z" />
    <glyph glyph-name="zero.inf" unicode="&#x2080;" horiz-adv-x="400" 
d="M199 -142q-63 0 -100 56.5t-37 144.5v2q0 88 37.5 145.5t100.5 57.5t100.5 -56.5t37.5 -144.5v-2q0 -88 -38 -145.5t-101 -57.5zM199 245q-52 0 -84 -52t-32 -131v-2q0 -79 32.5 -131t84.5 -52t84.5 52t32.5 131v2q0 79 -32.5 131t-85.5 52z" />
    <glyph glyph-name="one.inf" unicode="&#x2081;" horiz-adv-x="325" 
d="M197 -132h-21v370l-102 -36l-6 18l113 41h16v-393z" />
    <glyph glyph-name="two.inf" unicode="&#x2082;" horiz-adv-x="400" 
d="M61 -132v18l164 142q46 40 64.5 67t18.5 61q0 39 -28 64t-72 25q-70 0 -123 -83l-17 10q62 92 141 92q51 0 85.5 -31t34.5 -76q0 -41 -20 -70t-72 -73l-148 -127h245v-19h-273z" />
    <glyph glyph-name="three.inf" unicode="&#x2083;" horiz-adv-x="400" 
d="M196 -142q-87 0 -141 66l16 13q50 -60 126 -60q45 0 77.5 26.5t32.5 67.5q0 44 -35.5 67.5t-98.5 23.5h-23l-5 13l152 160h-225v19h251v-18l-148 -156q73 0 113 -28.5t40 -79.5q0 -49 -39 -81.5t-93 -32.5z" />
    <glyph glyph-name="four.inf" unicode="&#x2084;" horiz-adv-x="400" 
d="M287 -35v-99h-19v99h-206l-6 16l207 279h24v-277h63v-18h-63zM268 -17v253l-188 -253h188z" />
    <glyph glyph-name="five.inf" unicode="&#x2085;" horiz-adv-x="400" 
d="M193 -142q-75 0 -133 63l15 13q52 -57 120 -57q54 0 88 30t34 75q0 42 -31.5 68.5t-83.5 26.5q-51 0 -106 -25l-13 8l13 194h225v-19h-207l-12 -162q51 23 102 23q59 0 96.5 -32t37.5 -81q0 -54 -42.5 -89.5t-102.5 -35.5z" />
    <glyph glyph-name="six.inf" unicode="&#x2086;" horiz-adv-x="400" 
d="M196 -141q-55 0 -92 37q-46 46 -46 149v2q0 96 43 156.5t112 60.5q59 0 105 -44l-16 -16q-38 41 -91 41q-58 0 -95.5 -57t-36.5 -159q41 78 125 78q53 0 89.5 -32.5t36.5 -87.5q0 -53 -39 -90.5t-95 -37.5zM197 -122q46 0 79 31t33 77t-29.5 74t-77.5 28q-46 0 -80 -31
t-34 -75t32.5 -74t76.5 -30z" />
    <glyph glyph-name="seven.inf" unicode="&#x2087;" horiz-adv-x="400" 
d="M149 -134h-23l187 369h-243v19h265v-16z" />
    <glyph glyph-name="eight.inf" unicode="&#x2088;" horiz-adv-x="400" 
d="M200 -142q-60 0 -100 30t-40 77q0 71 89 102q-76 29 -76 94q0 45 38.5 74t90.5 29q51 0 89 -29.5t38 -73.5q0 -68 -75 -94q88 -28 88 -100q0 -49 -40.5 -79t-101.5 -30zM201 246q-46 0 -76.5 -24t-30.5 -61q0 -38 30 -62.5t77 -24.5t77 24.5t30 62.5q0 37 -30.5 61
t-76.5 24zM201 57q-54 0 -87 -26t-33 -66q0 -39 33.5 -64t86.5 -25t86.5 25t33.5 64q0 40 -33.5 66t-86.5 26z" />
    <glyph glyph-name="nine.inf" unicode="&#x2089;" horiz-adv-x="400" 
d="M204 263q55 0 92 -37q46 -46 46 -149v-2q0 -96 -43 -156.5t-112 -60.5q-59 0 -110 47l16 16q42 -44 96 -44q58 0 95.5 56.5t36.5 157.5q-42 -80 -125 -80q-53 0 -89.5 33t-36.5 89q0 55 39 92.5t95 37.5zM198 30q46 0 80 31.5t34 76.5q0 44 -32.5 75t-76.5 31
q-46 0 -79 -31.5t-33 -78.5q0 -48 29.5 -76t77.5 -28z" />
    <glyph glyph-name="colonmonetary" unicode="&#x20a1;" horiz-adv-x="594" 
d="M468 779h20l-19 -107q26 -12 62 -41l-13 -16q-30 25 -53 38l-112 -637q94 4 172 74l12 -14q-86 -75 -187 -79l-20 -115h-20l20 115q-61 3 -110 29l-25 -144h-20l27 154q-66 42 -104.5 120.5t-38.5 183.5v5q0 149 73 247.5t187 109.5l14 77h20l-14 -76h4q58 0 107 -22z
M80 341q0 -97 34.5 -170t92.5 -113l109 624q-103 -12 -169.5 -103t-66.5 -233v-5zM224 47q53 -30 110 -31l113 646q-47 22 -104 22h-8z" />
    <glyph glyph-name="naira" unicode="&#x20a6;" horiz-adv-x="814" 
d="M767 237h-102v-237h-23l-167 237h-306v-237h-20v237h-102v19h102v191h-102v19h102v234h23l165 -234h308v234h20v-234h102v-19h-102v-191h102v-19zM349 447l135 -191h161v191h-296zM169 447v-191h293l-135 191h-158zM498 237l147 -208v208h-147zM169 671v-205h145z" />
    <glyph glyph-name="rupee" unicode="&#x20a8;" horiz-adv-x="1060" 
d="M89 0v700h208q118 0 184.5 -54.5t66.5 -146.5v-2q0 -80 -54 -133t-150 -66l218 -298h-27l-215 296q-11 -1 -34 -1h-175v-295h-22zM111 315h175q116 0 178 51t62 130v2q0 84 -61.5 133t-169.5 49h-184v-365zM835 -10q-107 0 -186 69l14 16q75 -65 173 -65q60 0 101.5 30.5
t41.5 80.5q0 44 -31 71t-112 51q-91 27 -129 58.5t-38 83.5q0 57 44 91.5t110 34.5q88 0 161 -54l-12 -17q-72 51 -150 51q-58 0 -95 -29.5t-37 -74.5q0 -44 33 -71.5t119 -52.5t122 -56.5t36 -83.5q0 -61 -47.5 -97t-117.5 -36z" />
    <glyph glyph-name="won" unicode="&#x20a9;" horiz-adv-x="1094" 
d="M977 700l-65 -234h135v-19h-141l-52 -190h193v-19h-199l-67 -243h-23l-76 243h-270l-75 -243h-23l-67 243h-200v19h194l-53 190h-141v19h136l-65 234h23l63 -234h259l73 236h23l73 -236h259l64 234h22zM476 447l-59 -190h259l-59 190h-141zM209 447l52 -190h138l58 190
h-248zM638 447l58 -190h138l52 190h-248zM769 21h2l58 217h-127zM325 22h2l66 216h-127zM546 670l-64 -204h129l-63 204h-2z" />
    <glyph glyph-name="sheqel" unicode="&#x20aa;" horiz-adv-x="614" 
d="M246 128l-32 195h20l31 -188q9 -59 39 -87.5t88 -28.5h113v481h21v-500h-135q-124 0 -145 128zM367 361q0 64 -31 92t-96 28h-131v-481h-21v500h153q74 0 109.5 -32.5t35.5 -104.5v-166h-19v164z" />
    <glyph glyph-name="Euro" unicode="&#x20ac;" horiz-adv-x="720" 
d="M656 570l-19 -11q-81 133 -220 133q-91 0 -158.5 -67.5t-92.5 -174.5h312v-20h-316q-7 -36 -7 -81q0 -40 4 -69h319v-20h-315q21 -114 91.5 -183t169.5 -69q131 0 216 141l18 -10q-91 -151 -234 -151q-108 0 -184 74t-98 198h-93v20h90q-4 29 -4 69q0 41 6 81h-92v20h96
q24 116 98 189t174 73q152 0 239 -142z" />
    <glyph glyph-name="peso" unicode="&#x20b1;" horiz-adv-x="704" 
d="M141 0v473h-102v20h102v207h167q124 0 195 -55.5t74 -151.5h98v-20h-98q-4 -98 -76.5 -153t-196.5 -55h-141v-265h-22zM304 285q115 0 181.5 49.5t69.5 139.5h-392v-189h141zM163 680v-188h392q-3 87 -69 137.5t-180 50.5h-143z" />
    <glyph glyph-name="published" unicode="&#x2117;" horiz-adv-x="830" 
d="M415 -12q-150 0 -256 106t-106 255v2q0 149 106 255t256 106t256 -106t106 -255v-2q0 -149 -106 -255t-256 -106zM415 5q142 0 243 101t101 243v2q0 142 -101 243t-243 101t-243 -101t-101 -243v-2q0 -142 101 -243t243 -101zM309 165v366h131q64 0 101.5 -29.5
t37.5 -80.5v-2q0 -54 -40 -84.5t-103 -30.5h-108v-139h-19zM328 322h108q57 0 90.5 25.5t33.5 69.5v2q0 44 -32.5 69t-88.5 25h-111v-191z" />
    <glyph glyph-name="servicemark" unicode="&#x2120;" horiz-adv-x="682" 
d="M346 392v308h14l129 -187l130 187h14v-308h-15v280l-129 -184h-1l-127 184v-280h-15zM157 387q-69 0 -123 49l10 11q50 -47 114 -47q38 0 63 20t25 49t-20 44.5t-75 26.5q-57 12 -81.5 31.5t-24.5 53.5t29 57t73 23q58 0 105 -36l-9 -12q-46 35 -97 35q-38 0 -62 -19.5
t-24 -46.5q0 -28 21.5 -44t76.5 -28q58 -13 80.5 -32t22.5 -53q0 -35 -29.5 -58.5t-74.5 -23.5z" />
    <glyph glyph-name="trademark" unicode="&#x2122;" horiz-adv-x="656" 
d="M320 392v308h14l129 -187l130 187h14v-308h-15v280l-129 -184h-1l-127 184v-280h-15zM127 392v293h-110v15h235v-15h-110v-293h-15z" />
    <glyph glyph-name="onethird" unicode="&#x2153;" horiz-adv-x="825" 
d="M192 314h-21v370l-102 -36l-6 18l113 41h16v-393zM631 -10q-87 0 -141 66l16 13q50 -60 126 -60q45 0 77.5 26.5t32.5 67.5q0 44 -35.5 67.5t-98.5 23.5h-23l-5 13l152 160h-225v19h251v-18l-148 -156q73 0 113 -28.5t40 -79.5q0 -49 -39 -81.5t-93 -32.5zM124 0l244 355
l233 345h25l-244 -355l-233 -345h-25z" />
    <glyph glyph-name="twothirds" unicode="&#x2154;" horiz-adv-x="900" 
d="M51 314v18l164 142q46 40 64.5 67t18.5 61q0 39 -28 64t-72 25q-70 0 -123 -83l-17 10q62 92 141 92q51 0 85.5 -31t34.5 -76q0 -41 -20 -70t-72 -73l-148 -127h245v-19h-273zM706 -10q-87 0 -141 66l16 13q50 -60 126 -60q45 0 77.5 26.5t32.5 67.5q0 44 -35.5 67.5
t-98.5 23.5h-23l-5 13l152 160h-225v19h251v-18l-148 -156q73 0 113 -28.5t40 -79.5q0 -49 -39 -81.5t-93 -32.5zM199 0l244 355l233 345h25l-244 -355l-233 -345h-25z" />
    <glyph glyph-name="onefifth" unicode="&#x2155;" horiz-adv-x="825" 
d="M192 314h-21v370l-102 -36l-6 18l113 41h16v-393zM628 -10q-75 0 -133 63l15 13q52 -57 120 -57q54 0 88 30t34 75q0 42 -31.5 68.5t-83.5 26.5q-51 0 -106 -25l-13 8l13 194h225v-19h-207l-12 -162q51 23 102 23q59 0 96.5 -32t37.5 -81q0 -54 -42.5 -89.5t-102.5 -35.5
zM134 0l244 355l233 345h25l-244 -355l-233 -345h-25z" />
    <glyph glyph-name="twofifths" unicode="&#x2156;" horiz-adv-x="900" 
d="M51 314v18l164 142q46 40 64.5 67t18.5 61q0 39 -28 64t-72 25q-70 0 -123 -83l-17 10q62 92 141 92q51 0 85.5 -31t34.5 -76q0 -41 -20 -70t-72 -73l-148 -127h245v-19h-273zM703 -10q-75 0 -133 63l15 13q53 -57 120 -57q54 0 88 30t34 75q0 42 -31.5 68.5t-83.5 26.5
q-51 0 -106 -25l-13 8l13 194h225v-19h-207l-12 -162q51 23 102 23q59 0 96.5 -32t37.5 -81q0 -54 -42.5 -89.5t-102.5 -35.5zM209 0l244 355l233 345h25l-244 -355l-233 -345h-25z" />
    <glyph glyph-name="threefifths" unicode="&#x2157;" horiz-adv-x="900" 
d="M186 304q-87 0 -141 66l16 13q50 -60 126 -60q45 0 77.5 26.5t32.5 67.5q0 44 -35.5 67.5t-98.5 23.5h-23l-5 13l152 160h-225v19h251v-18l-148 -156q73 0 113 -28.5t40 -79.5q0 -49 -39 -81.5t-93 -32.5zM703 -10q-75 0 -133 63l15 13q53 -57 120 -57q54 0 88 30t34 75
q0 42 -31.5 68.5t-83.5 26.5q-51 0 -106 -25l-13 8l13 194h225v-19h-207l-12 -162q51 23 102 23q59 0 96.5 -32t37.5 -81q0 -54 -42.5 -89.5t-102.5 -35.5zM194 0l244 355l233 345h25l-244 -355l-233 -345h-25z" />
    <glyph glyph-name="fourfifths" unicode="&#x2158;" horiz-adv-x="900" 
d="M277 411v-99h-19v99h-206l-6 16l207 279h24v-277h63v-18h-63zM258 429v253l-188 -253h188zM703 -10q-75 0 -133 63l15 13q53 -57 120 -57q54 0 88 30t34 75q0 42 -31.5 68.5t-83.5 26.5q-51 0 -106 -25l-13 8l13 194h225v-19h-207l-12 -162q51 23 102 23q59 0 96.5 -32
t37.5 -81q0 -54 -42.5 -89.5t-102.5 -35.5zM209 0l244 355l233 345h25l-244 -355l-233 -345h-25z" />
    <glyph glyph-name="onesixth" unicode="&#x2159;" horiz-adv-x="825" 
d="M631 -9q-55 0 -92 37q-46 46 -46 149v2q0 96 43 156.5t112 60.5q59 0 105 -44l-16 -16q-38 41 -91 41q-58 0 -95.5 -57t-36.5 -159q41 78 125 78q53 0 89.5 -32.5t36.5 -87.5q0 -53 -39 -90.5t-95 -37.5zM632 10q46 0 79 31t33 77t-29.5 74t-77.5 28q-46 0 -80 -31
t-34 -75t32.5 -74t76.5 -30zM139 0l244 355l233 345h25l-244 -355l-233 -345h-25zM192 314h-21v370l-102 -36l-6 18l113 41h16v-393z" />
    <glyph glyph-name="fivesixths" unicode="&#x215a;" horiz-adv-x="900" 
d="M706 -9q-55 0 -92 37q-46 46 -46 149v2q0 96 43 156.5t112 60.5q59 0 105 -44l-16 -16q-38 41 -91 41q-58 0 -95.5 -57t-36.5 -159q41 78 125 78q53 0 89.5 -32.5t36.5 -87.5q0 -53 -39 -90.5t-95 -37.5zM707 10q46 0 79 31t33 77t-29.5 74t-77.5 28q-46 0 -80 -31
t-34 -75t32.5 -74t76.5 -30zM183 304q-75 0 -133 63l15 13q53 -57 120 -57q54 0 88 30t34 75q0 42 -31.5 68.5t-83.5 26.5q-51 0 -106 -25l-13 8l13 194h225v-19h-207l-12 -162q51 23 102 23q59 0 96.5 -32t37.5 -81q0 -54 -42.5 -89.5t-102.5 -35.5zM199 0l244 355l233 345
h25l-244 -355l-233 -345h-25z" />
    <glyph glyph-name="oneeighth" unicode="&#x215b;" horiz-adv-x="825" 
d="M192 314h-21v370l-102 -36l-6 18l113 41h16v-393zM136 0l244 355l233 345h25l-244 -355l-233 -345h-25zM635 -10q-60 0 -100 30t-40 77q0 71 89 102q-76 29 -76 94q0 45 38.5 74t90.5 29q51 0 89 -29.5t38 -73.5q0 -68 -75 -94q88 -28 88 -100q0 -49 -40.5 -79
t-101.5 -30zM636 378q-46 0 -76.5 -24t-30.5 -61q0 -38 30 -62.5t77 -24.5t77 24.5t30 62.5q0 37 -30.5 61t-76.5 24zM636 189q-54 0 -87 -26t-33 -66q0 -39 33.5 -64t86.5 -25t86.5 25t33.5 64q0 40 -33.5 66t-86.5 26z" />
    <glyph glyph-name="threeeighths" unicode="&#x215c;" horiz-adv-x="900" 
d="M186 304q-87 0 -141 66l16 13q50 -60 126 -60q45 0 77.5 26.5t32.5 67.5q0 44 -35.5 67.5t-98.5 23.5h-23l-5 13l152 160h-225v19h251v-18l-148 -156q73 0 113 -28.5t40 -79.5q0 -49 -39 -81.5t-93 -32.5zM710 -10q-60 0 -100 30t-40 77q0 71 89 102q-76 29 -76 94
q0 45 38.5 74t90.5 29q51 0 89 -29.5t38 -73.5q0 -68 -75 -94q88 -28 88 -100q0 -49 -40.5 -79t-101.5 -30zM711 378q-46 0 -76.5 -24t-30.5 -61q0 -38 30 -62.5t77 -24.5t77 24.5t30 62.5q0 37 -30.5 61t-76.5 24zM711 189q-54 0 -87 -26t-33 -66q0 -39 33.5 -64t86.5 -25
t86.5 25t33.5 64q0 40 -33.5 66t-86.5 26zM199 0l244 355l233 345h25l-244 -355l-233 -345h-25z" />
    <glyph glyph-name="fiveeighths" unicode="&#x215d;" horiz-adv-x="900" 
d="M183 304q-75 0 -133 63l15 13q53 -57 120 -57q54 0 88 30t34 75q0 42 -31.5 68.5t-83.5 26.5q-51 0 -106 -25l-13 8l13 194h225v-19h-207l-12 -162q51 23 102 23q59 0 96.5 -32t37.5 -81q0 -54 -42.5 -89.5t-102.5 -35.5zM710 -10q-60 0 -100 30t-40 77q0 71 89 102
q-76 29 -76 94q0 45 38.5 74t90.5 29q51 0 89 -29.5t38 -73.5q0 -68 -75 -94q88 -28 88 -100q0 -49 -40.5 -79t-101.5 -30zM711 378q-46 0 -76.5 -24t-30.5 -61q0 -38 30 -62.5t77 -24.5t77 24.5t30 62.5q0 37 -30.5 61t-76.5 24zM711 189q-54 0 -87 -26t-33 -66
q0 -39 33.5 -64t86.5 -25t86.5 25t33.5 64q0 40 -33.5 66t-86.5 26zM199 0l244 355l233 345h25l-244 -355l-233 -345h-25z" />
    <glyph glyph-name="seveneighths" unicode="&#x215e;" horiz-adv-x="900" 
d="M149 312h-23l187 369h-243v19h265v-16zM710 -10q-60 0 -100 30t-40 77q0 71 89 102q-76 29 -76 94q0 45 38.5 74t90.5 29q51 0 89 -29.5t38 -73.5q0 -68 -75 -94q88 -28 88 -100q0 -49 -40.5 -79t-101.5 -30zM711 378q-46 0 -76.5 -24t-30.5 -61q0 -38 30 -62.5t77 -24.5
t77 24.5t30 62.5q0 37 -30.5 61t-76.5 24zM711 189q-54 0 -87 -26t-33 -66q0 -39 33.5 -64t86.5 -25t86.5 25t33.5 64q0 40 -33.5 66t-86.5 26zM169 0l244 355l233 345h25l-244 -355l-233 -345h-25z" />
    <glyph glyph-name="minus" unicode="&#x2212;" 
d="M529 343h-458v18h458v-18z" />
    <glyph glyph-name="Q.alt" horiz-adv-x="842" 
d="M765 -101l-154 143q-84 -54 -190 -54q-154 0 -251 106.5t-97 254.5v2q0 148 97 254.5t251 106.5t251 -106.5t97 -254.5v-2q0 -89 -37.5 -167t-104.5 -128l163 -153v-2h-25zM422 8q143 0 234 100.5t91 239.5v2q0 139 -92.5 240.5t-234.5 101.5q-143 0 -234 -100.5
t-91 -239.5v-2q0 -139 92.5 -240.5t234.5 -101.5z" />
    <glyph glyph-name="a.alt" horiz-adv-x="655" 
d="M310 -12q-108 0 -179 75.5t-71 185.5v2q0 110 71 185.5t179 75.5q85 0 147 -46.5t84 -120.5v155h21v-500h-21v155q-22 -74 -84 -120.5t-147 -46.5zM311 8q100 0 165.5 70.5t65.5 170.5v2q0 99 -66 170t-165 71q-101 0 -165 -69t-64 -171v-2q0 -102 64 -172t165 -70z" />
    <glyph glyph-name="aacute.alt" horiz-adv-x="655" 
d="M310 -12q-108 0 -179 75.5t-71 185.5v2q0 110 71 185.5t179 75.5q85 0 147 -46.5t84 -120.5v155h21v-500h-21v155q-22 -74 -84 -120.5t-147 -46.5zM311 8q100 0 165.5 70.5t65.5 170.5v2q0 99 -66 170t-165 71q-101 0 -165 -69t-64 -171v-2q0 -102 64 -172t165 -70z
M318 595l87 113l24 -11l-97 -102h-14z" />
    <glyph glyph-name="abreve.alt" horiz-adv-x="655" 
d="M310 -12q-108 0 -179 75.5t-71 185.5v2q0 110 71 185.5t179 75.5q85 0 147 -46.5t84 -120.5v155h21v-500h-21v155q-22 -74 -84 -120.5t-147 -46.5zM311 8q100 0 165.5 70.5t65.5 170.5v2q0 99 -66 170t-165 71q-101 0 -165 -69t-64 -171v-2q0 -102 64 -172t165 -70z
M330 594q-55 0 -87 27.5t-38 71.5h16q7 -33 35 -56.5t74 -23.5q47 0 74.5 23.5t34.5 56.5h16q-6 -43 -38.5 -71t-86.5 -28z" />
    <glyph glyph-name="acircumflex.alt" horiz-adv-x="655" 
d="M310 -12q-108 0 -179 75.5t-71 185.5v2q0 110 71 185.5t179 75.5q85 0 147 -46.5t84 -120.5v155h21v-500h-21v155q-22 -74 -84 -120.5t-147 -46.5zM311 8q100 0 165.5 70.5t65.5 170.5v2q0 99 -66 170t-165 71q-101 0 -165 -69t-64 -171v-2q0 -102 64 -172t165 -70z
M218 595l105 112h14l105 -112h-18l-94 87l-94 -87h-18z" />
    <glyph glyph-name="adieresis.alt" horiz-adv-x="655" 
d="M310 -12q-108 0 -179 75.5t-71 185.5v2q0 110 71 185.5t179 75.5q85 0 147 -46.5t84 -120.5v155h21v-500h-21v155q-22 -74 -84 -120.5t-147 -46.5zM311 8q100 0 165.5 70.5t65.5 170.5v2q0 99 -66 170t-165 71q-101 0 -165 -69t-64 -171v-2q0 -102 64 -172t165 -70z
M377 614v50h36v-50h-36zM247 614v50h36v-50h-36z" />
    <glyph glyph-name="agrave.alt" horiz-adv-x="655" 
d="M310 -12q-108 0 -179 75.5t-71 185.5v2q0 110 71 185.5t179 75.5q85 0 147 -46.5t84 -120.5v155h21v-500h-21v155q-22 -74 -84 -120.5t-147 -46.5zM311 8q100 0 165.5 70.5t65.5 170.5v2q0 99 -66 170t-165 71q-101 0 -165 -69t-64 -171v-2q0 -102 64 -172t165 -70z
M328 595l-97 102l24 11l87 -113h-14z" />
    <glyph glyph-name="amacron.alt" horiz-adv-x="655" 
d="M310 -12q-108 0 -179 75.5t-71 185.5v2q0 110 71 185.5t179 75.5q85 0 147 -46.5t84 -120.5v155h21v-500h-21v155q-22 -74 -84 -120.5t-147 -46.5zM311 8q100 0 165.5 70.5t65.5 170.5v2q0 99 -66 170t-165 71q-101 0 -165 -69t-64 -171v-2q0 -102 64 -172t165 -70z
M200 621v19h260v-19h-260z" />
    <glyph glyph-name="aogonek.alt" horiz-adv-x="655" 
d="M587 -143v-16q-48 0 -79 21t-31 53q0 49 64 90v150q-22 -74 -84 -120.5t-147 -46.5q-108 0 -179 75.5t-71 185.5v2q0 110 71 185.5t179 75.5q85 0 147 -46.5t84 -120.5v155h21v-500h-4q-58 -38 -58 -83q0 -25 22.5 -41t64.5 -19zM311 8q100 0 165.5 70.5t65.5 170.5v2
q0 99 -66 170t-165 71q-101 0 -165 -69t-64 -171v-2q0 -102 64 -172t165 -70z" />
    <glyph glyph-name="aring.alt" horiz-adv-x="655" 
d="M310 -12q-108 0 -179 75.5t-71 185.5v2q0 110 71 185.5t179 75.5q85 0 147 -46.5t84 -120.5v155h21v-500h-21v155q-22 -74 -84 -120.5t-147 -46.5zM311 8q100 0 165.5 70.5t65.5 170.5v2q0 99 -66 170t-165 71q-101 0 -165 -69t-64 -171v-2q0 -102 64 -172t165 -70z
M330 594q-40 0 -68.5 27.5t-28.5 65.5t28.5 65.5t68.5 27.5t68.5 -27.5t28.5 -65.5t-28.5 -65.5t-68.5 -27.5zM330 610q33 0 56 22.5t23 54.5t-23 54.5t-56 22.5t-56 -22.5t-23 -54.5t23 -54.5t56 -22.5z" />
    <glyph glyph-name="aring.alt2" horiz-adv-x="566" 
d="M238 -12q-78 0 -132.5 39.5t-54.5 110.5v2q0 76 62.5 117.5t160.5 41.5q102 0 188 -31v42q0 89 -49.5 133.5t-139.5 44.5q-79 0 -166 -42l-8 18q70 34 135 42q-46 26 -46 79q0 38 28.5 65.5t68.5 27.5t68.5 -27.5t28.5 -65.5q0 -55 -51 -82q64 -11 103 -50
q49 -49 49 -142v-311h-21v118q-18 -51 -77 -90.5t-147 -39.5zM239 8q97 0 160 52.5t63 122.5v64q-85 32 -187 32q-89 0 -145.5 -36t-56.5 -102v-2q0 -63 48 -97t118 -34zM206 585q0 -32 23 -54.5t56 -22.5t56 22.5t23 54.5t-23 54.5t-56 22.5t-56 -22.5t-23 -54.5z" />
    <glyph glyph-name="aringacute.alt" horiz-adv-x="655" 
d="M317 822l88 93l23 -11l-95 -82h-16zM310 -12q-108 0 -179 75.5t-71 185.5v2q0 110 71 185.5t179 75.5q85 0 147 -46.5t84 -120.5v155h21v-500h-21v155q-22 -74 -84 -120.5t-147 -46.5zM311 8q100 0 165.5 70.5t65.5 170.5v2q0 99 -66 170t-165 71q-101 0 -165 -69
t-64 -171v-2q0 -102 64 -172t165 -70zM330 594q-40 0 -68.5 27.5t-28.5 65.5t28.5 65.5t68.5 27.5t68.5 -27.5t28.5 -65.5t-28.5 -65.5t-68.5 -27.5zM330 610q33 0 56 22.5t23 54.5t-23 54.5t-56 22.5t-56 -22.5t-23 -54.5t23 -54.5t56 -22.5z" />
    <glyph glyph-name="aringacute.alt2" horiz-adv-x="566" 
d="M272 720l88 93l23 -11l-95 -82h-16zM238 -12q-78 0 -132.5 39.5t-54.5 110.5v2q0 76 62.5 117.5t160.5 41.5q102 0 188 -31v42q0 89 -49.5 133.5t-139.5 44.5q-79 0 -166 -42l-8 18q70 34 135 42q-46 26 -46 79q0 38 28.5 65.5t68.5 27.5t68.5 -27.5t28.5 -65.5
q0 -55 -51 -82q64 -11 103 -50q49 -49 49 -142v-311h-21v118q-18 -51 -77 -90.5t-147 -39.5zM239 8q97 0 160 52.5t63 122.5v64q-85 32 -187 32q-89 0 -145.5 -36t-56.5 -102v-2q0 -63 48 -97t118 -34zM206 585q0 -32 23 -54.5t56 -22.5t56 22.5t23 54.5t-23 54.5t-56 22.5
t-56 -22.5t-23 -54.5z" />
    <glyph glyph-name="atilde.alt" horiz-adv-x="655" 
d="M310 -12q-108 0 -179 75.5t-71 185.5v2q0 110 71 185.5t179 75.5q85 0 147 -46.5t84 -120.5v155h21v-500h-21v155q-22 -74 -84 -120.5t-147 -46.5zM311 8q100 0 165.5 70.5t65.5 170.5v2q0 99 -66 170t-165 71q-101 0 -165 -69t-64 -171v-2q0 -102 64 -172t165 -70z
M396 606q-21 0 -71 31q-42 27 -59 27q-38 0 -57 -63l-13 3q17 80 72 80q21 0 71 -31q42 -27 59 -27q38 0 57 63l13 -3q-17 -80 -72 -80z" />
    <glyph glyph-name="three.alt" horiz-adv-x="560" 
d="M281 -12q-157 0 -253 128l19 13q40 -55 101 -88t134 -33q88 0 149 48t61 127v2q0 81 -62 120t-166 39h-78v20h79q92 0 150.5 45t58.5 119v2q0 67 -57 114.5t-143 47.5q-132 0 -214 -123l-18 12q40 59 100 95t133 36q96 0 158.5 -53t62.5 -128v-2q0 -70 -46.5 -116.5
t-114.5 -56.5q79 -11 129 -52.5t50 -117.5v-2q0 -85 -68.5 -140.5t-164.5 -55.5z" />
    <glyph glyph-name="registered.alt" horiz-adv-x="830" 
d="M415 -12q-150 0 -256 106t-106 255v2q0 149 106 255t256 106t256 -106t106 -255v-2q0 -149 -106 -255t-256 -106zM415 5q142 0 243 101t101 243v2q0 142 -101 243t-243 101t-243 -101t-101 -243v-2q0 -142 101 -243t243 -101zM285 177v366h152q69 0 104 -35
q27 -27 27 -67v-2q0 -45 -30 -72t-82 -33l121 -157h-24l-119 155h-129v-155h-20zM305 350h129q54 0 84.5 23.5t30.5 64.5v2q0 40 -30.5 62.5t-83.5 22.5h-130v-175z" />
    <glyph glyph-name="R_p" horiz-adv-x="1170" 
d="M89 0v700h208q118 0 184.5 -54.5t66.5 -146.5v-2q0 -80 -54 -133t-150 -66l218 -298h-27l-215 296q-11 -1 -34 -1h-175v-295h-22zM111 315h175q116 0 178 51t62 130v2q0 84 -61.5 133t-169.5 49h-184v-365zM673 -160v660h21v-148q23 71 76 115.5t125 44.5
q95 0 157.5 -75.5t62.5 -185.5v-2q0 -110 -62.5 -185.5t-157.5 -75.5q-72 0 -125 44.5t-76 115.5v-308h-21zM894 8q88 0 143.5 69t55.5 171v2q0 102 -55.5 172t-143.5 70q-86 0 -143.5 -71t-57.5 -170v-2q0 -99 57.5 -170t143.5 -71z" />
    <glyph glyph-name="onehalf.alt" horiz-adv-x="900" 
d="M345 314h-275v18h131v352l-120 -42l-6 18l131 47h16v-375h123v-18zM571 0v18l164 142q46 40 64.5 67t18.5 61q0 39 -28 64t-72 25q-70 0 -123 -83l-17 10q62 92 141 92q51 0 85.5 -31t34.5 -76q0 -41 -20 -70t-72 -73l-148 -127h245v-19h-273zM219 0l244 355l233 345h25
l-244 -355l-233 -345h-25z" />
    <glyph glyph-name="onethird.alt" horiz-adv-x="900" 
d="M345 314h-275v18h131v352l-120 -42l-6 18l131 47h16v-375h123v-18zM706 -10q-87 0 -141 66l16 13q50 -60 126 -60q45 0 77.5 26.5t32.5 67.5q0 44 -35.5 67.5t-98.5 23.5h-23l-5 13l152 160h-225v19h251v-18l-148 -156q73 0 113 -28.5t40 -79.5q0 -49 -39 -81.5
t-93 -32.5zM209 0l244 355l233 345h25l-244 -355l-233 -345h-25z" />
    <glyph glyph-name="onequarter.alt" horiz-adv-x="900" 
d="M787 97v-99h-19v99h-206l-6 16l207 279h24v-277h63v-18h-63zM768 115v253l-188 -253h188zM224 0l244 355l233 345h25l-244 -355l-233 -345h-25zM345 314h-275v18h131v352l-120 -42l-6 18l131 47h16v-375h123v-18z" />
    <glyph glyph-name="onefifth.alt" horiz-adv-x="900" 
d="M345 314h-275v18h131v352l-120 -42l-6 18l131 47h16v-375h123v-18zM703 -10q-75 0 -133 63l15 13q53 -57 120 -57q54 0 88 30t34 75q0 42 -31.5 68.5t-83.5 26.5q-51 0 -106 -25l-13 8l13 194h225v-19h-207l-12 -162q51 23 102 23q59 0 96.5 -32t37.5 -81
q0 -54 -42.5 -89.5t-102.5 -35.5zM214 0l244 355l233 345h25l-244 -355l-233 -345h-25z" />
    <glyph glyph-name="onesixth.alt" horiz-adv-x="900" 
d="M706 -9q-55 0 -92 37q-46 46 -46 149v2q0 96 43 156.5t112 60.5q59 0 105 -44l-16 -16q-38 41 -91 41q-58 0 -95.5 -57t-36.5 -159q41 78 125 78q53 0 89.5 -32.5t36.5 -87.5q0 -53 -39 -90.5t-95 -37.5zM707 10q46 0 79 31t33 77t-29.5 74t-77.5 28q-46 0 -80 -31
t-34 -75t32.5 -74t76.5 -30zM214 0l244 355l233 345h25l-244 -355l-233 -345h-25zM345 314h-275v18h131v352l-120 -42l-6 18l131 47h16v-375h123v-18z" />
    <glyph glyph-name="oneeighth.alt" horiz-adv-x="900" 
d="M345 314h-275v18h131v352l-120 -42l-6 18l131 47h16v-375h123v-18zM214 0l244 355l233 345h25l-244 -355l-233 -345h-25zM710 -10q-60 0 -100 30t-40 77q0 71 89 102q-76 29 -76 94q0 45 38.5 74t90.5 29q51 0 89 -29.5t38 -73.5q0 -68 -75 -94q88 -28 88 -100
q0 -49 -40.5 -79t-101.5 -30zM711 378q-46 0 -76.5 -24t-30.5 -61q0 -38 30 -62.5t77 -24.5t77 24.5t30 62.5q0 37 -30.5 61t-76.5 24zM711 189q-54 0 -87 -26t-33 -66q0 -39 33.5 -64t86.5 -25t86.5 25t33.5 64q0 40 -33.5 66t-86.5 26z" />
    <glyph glyph-name="one.sup_alt" horiz-adv-x="400" 
d="M350 426h-275v18h131v352l-120 -42l-6 18l131 47h16v-375h123v-18z" />
    <glyph glyph-name="one.inf_alt" horiz-adv-x="400" 
d="M350 -132h-275v18h131v352l-120 -42l-6 18l131 47h16v-375h123v-18z" />
    <glyph glyph-name="zero.tab" 
d="M300 -12q-109 0 -175 100.5t-66 260.5v2q0 160 66 260.5t175 100.5t175 -100.5t66 -260.5v-2q0 -160 -66 -260.5t-175 -100.5zM299 692q-99 0 -158.5 -94.5t-59.5 -245.5v-2q0 -150 60.5 -246t159.5 -96t158.5 94.5t59.5 245.5v2q0 150 -60.5 246t-159.5 96z" />
    <glyph glyph-name="one.tab" 
d="M554 0h-456v20h229v662l-212 -84l-7 18l223 89h17v-685h206v-20z" />
    <glyph glyph-name="two.tab" 
d="M530 0h-474v16l313 290q129 119 129 217q0 71 -50.5 119t-134.5 48q-139 0 -218 -146l-20 10q84 156 239 156q95 0 150.5 -53t55.5 -132v-2q0 -58 -31.5 -110.5t-106.5 -122.5l-293 -270h441v-20z" />
    <glyph glyph-name="three.tab" 
d="M290 -12q-159 0 -248 130l19 13q82 -123 231 -123q85 0 145.5 52.5t60.5 128.5v2q0 83 -66.5 126t-188.5 43h-34l-7 14l280 306h-414v20h444v-16l-279 -305q135 2 211 -45.5t76 -141.5v-2q0 -85 -67.5 -143.5t-162.5 -58.5z" />
    <glyph glyph-name="three.tab_alt" 
d="M304 -12q-160 0 -256 128l19 13q89 -121 238 -121q85 0 146 48.5t61 127.5q0 80 -62.5 120t-165.5 40h-78v20h82q93 0 152.5 45t59.5 120q0 70 -55.5 116.5t-145.5 46.5q-137 0 -219 -123l-18 12q40 59 101.5 95t136.5 36q99 0 160.5 -52.5t61.5 -129.5q0 -70 -48 -116.5
t-115 -57.5q76 -13 125.5 -55t49.5 -116q0 -87 -68 -142t-162 -55z" />
    <glyph glyph-name="four.tab" 
d="M423 0v183h-380l-8 16l386 506h23v-502h125v-20h-125v-183h-21zM423 203v470l-359 -470h359z" />
    <glyph glyph-name="five.tab" 
d="M292 -12q-69 0 -132.5 32t-101.5 80l18 14q87 -106 217 -106q96 0 160 56.5t64 143.5v2q0 84 -58 134t-152 50q-91 0 -191 -54l-17 9l26 351h388v-20h-368l-23 -315q94 49 186 49q103 0 167 -55t64 -148v-2q0 -96 -70 -158.5t-177 -62.5z" />
    <glyph glyph-name="six.tab" 
d="M316 431q100 0 164 -61t64 -155v-2q0 -92 -67 -158.5t-164 -66.5t-168 71q-81 81 -81 269v2q0 168 71.5 275t193.5 107q104 0 188 -81l-15 -15q-74 76 -174 76q-112 -1 -177 -101t-65 -263q0 -55 2 -91q8 83 72 138.5t156 55.5zM313 8q87 0 148 61t61 144q0 86 -58 142
t-149 56t-151.5 -58.5t-60.5 -143.5q0 -80 62 -140.5t148 -60.5z" />
    <glyph glyph-name="seven.tab" 
d="M512 680h-440v20h465v-13l-345 -687h-24z" />
    <glyph glyph-name="eight.tab" 
d="M300 -11q-112 0 -178 54.5t-66 133.5v2q0 67 48.5 117t125.5 65q-70 18 -111.5 62.5t-41.5 106.5v2q0 76 64.5 127.5t158.5 51.5t158.5 -51.5t64.5 -127.5v-2q0 -62 -41.5 -106.5t-111.5 -62.5q77 -17 125.5 -66.5t48.5 -115.5v-2q0 -79 -66 -133.5t-178 -54.5zM300 371
q85 0 143 44t58 114v2q0 68 -58.5 114t-143.5 46t-142.5 -45t-57.5 -113v-2q0 -71 58 -115.5t143 -44.5zM301 9q101 0 161 48t60 119v2q0 75 -64 124t-159 49t-158 -48t-63 -123v-2q0 -71 61 -120t162 -49z" />
    <glyph glyph-name="nine.tab" 
d="M284 263q-100 0 -164 62t-64 157v2q0 93 67 160.5t164 67.5t168 -71q81 -81 81 -269v-2q0 -168 -71.5 -275t-193.5 -107q-105 0 -193 86l15 15q81 -81 179 -81q112 0 177 100.5t65 263.5q0 16 -2 88q-8 -84 -72.5 -140.5t-155.5 -56.5zM287 692q-87 0 -148 -62t-61 -146
q0 -88 58 -144.5t149 -56.5t151.5 59.5t60.5 145.5q0 82 -62 143t-148 61z" />
    <glyph glyph-name="period.tab" horiz-adv-x="300" 
d="M129 0v56h42v-56h-42z" />
    <glyph glyph-name="comma.tab" horiz-adv-x="300" 
d="M124 -81l-7 13q34 16 33 68h-20v56h40v-50q0 -68 -46 -87z" />
    <glyph glyph-name="colon.tab" horiz-adv-x="300" 
d="M129 444v56h42v-56h-42zM129 0v56h42v-56h-42z" />
    <glyph glyph-name="semicolon.tab" horiz-adv-x="300" 
d="M129 444v56h42v-56h-42zM124 -81l-7 13q34 16 33 68h-20v56h40v-50q0 -68 -46 -87z" />
    <glyph glyph-name="twodotleader.tab" 
d="M432 0v52h36v-52h-36zM132 0v52h36v-52h-36z" />
    <glyph glyph-name="periodcentered.tab" horiz-adv-x="300" 
d="M129 270v56h42v-56h-42z" />
    <glyph glyph-name="slash.tab" 
d="M559 798l-510 -926h-23l510 926h23z" />
    <glyph glyph-name="bar.tab" horiz-adv-x="300" 
d="M140 -128v926h20v-926h-20z" />
    <glyph glyph-name="underscore.tab" 
d="M-2 -149v20h604v-20h-604z" />
    <glyph glyph-name="dollar.tab" 
d="M362 779l-11 -85q89 -15 161 -77l-14 -16q-72 61 -150 75l-37 -311q112 -25 167.5 -68t55.5 -119t-59.5 -127t-155.5 -51q-28 0 -52 3l-15 -121h-20l15 125q-107 21 -189 101l15 15q78 -78 177 -98l40 324q-106 25 -155 67t-49 111q0 76 56 124t148 48q14 0 42 -2l10 82
h20zM513 177q0 69 -50.5 106.5t-154.5 61.5l-39 -324q24 -3 51 -3q85 0 139 46t54 113zM107 528q0 -61 44 -98.5t141 -60.5l38 310q-26 2 -41 2q-83 0 -132.5 -42.5t-49.5 -110.5z" />
    <glyph glyph-name="sterling.tab" 
d="M155 339v117q0 129 67 196q58 58 146 58q118 0 191 -111l-18 -12q-68 103 -174 103q-78 0 -130 -52q-60 -60 -60 -179v-120h302v-20h-302v-299h375v-20h-488v13l91 8v298h-91v20h91z" />
    <glyph glyph-name="Euro.tab" 
d="M46 439v20h90q20 112 80 181t149 69q102 0 174 -97l-16 -13q-66 90 -159 90q-80 0 -133.5 -63t-72.5 -167h268v-20h-272q-6 -40 -6 -85v-6q0 -47 4 -80h274v-20h-271q18 -108 71.5 -172.5t133.5 -64.5q93 0 165 96l16 -12q-78 -104 -182 -104q-88 0 -147.5 70t-77.5 187
h-88v20h85q-4 33 -4 79v6q0 44 6 86h-87z" />
    <glyph glyph-name="yen.tab" 
d="M88 140h201v150h-201v20h191l-255 390h27l250 -388l250 388h25l-256 -390h191v-20h-200v-150h200v-20h-200v-120h-22v120h-201v20z" />
    <glyph glyph-name="cent.tab" 
d="M394 706l-19 -94q82 -15 152 -88l-14 -14q-70 70 -142 84l-93 -478q19 -4 45 -4q113 0 193 92l14 -12q-84 -99 -208 -99q-28 0 -48 4l-20 -103h-20l21 108q-82 23 -133 93.5t-51 158.5v2q0 106 75 183.5t181 77.5q11 0 29 -2l18 91h20zM92 355q0 -81 47 -146t121 -88
l92 475q-16 2 -26 2q-98 0 -166 -71.5t-68 -169.5v-2z" />
    <glyph glyph-name="numbersign.tab" 
d="M45 220h103l45 266h-114v19h117l34 195h20l-34 -195h219l34 195h20l-34 -195h100v-19h-103l-45 -266h114v-19h-118l-34 -201h-20l34 201h-219l-34 -201h-20l34 201h-99v19zM213 486l-46 -266h219l46 266h-219z" />
    <glyph glyph-name="paragraph.tab" 
d="M442 0v277h-80q-116 0 -192.5 56.5t-76.5 155.5q0 97 71 154t183 57h117v-700h-22z" />
    <glyph glyph-name="section.tab" 
d="M302 -10q-60 0 -115 20t-90 48l14 17q32 -26 84.5 -45.5t106.5 -19.5q72 0 114.5 27t42.5 72q0 49 -51 77t-159 48q-96 18 -144 48.5t-48 80.5t51.5 82t140.5 28q-130 33 -130 118q0 52 48.5 85.5t130.5 33.5q60 0 115 -20t90 -48l-14 -17q-32 26 -84.5 45.5t-106.5 19.5
q-72 0 -114.5 -27t-42.5 -72q0 -49 51 -77t159 -48q96 -18 144 -48.5t48 -80.5t-51.5 -82t-140.5 -28q130 -33 130 -118q0 -52 -48.5 -85.5t-130.5 -33.5zM230 457q-66 0 -108.5 -26.5t-42.5 -66.5q0 -41 41.5 -66.5t132.5 -42.5q61 -12 117 -12q66 0 108.5 26.5t42.5 66.5
q0 41 -41.5 66.5t-132.5 42.5q-61 12 -117 12z" />
    <glyph glyph-name="degree.tab" 
d="M299 313q-82 0 -141 58t-59 139t60 139t142 58t141 -58t59 -139t-60 -139t-142 -58zM299 332q74 0 127.5 52.5t53.5 125.5t-52.5 125.5t-126.5 52.5t-127.5 -52.5t-53.5 -125.5t52.5 -125.5t126.5 -52.5z" />
    <glyph glyph-name="percent.tab" 
d="M151 708q50 0 81.5 -47t31.5 -117v-4q0 -70 -31.5 -118t-81.5 -48t-81.5 47t-31.5 117v4q0 70 31.5 118t81.5 48zM449 326q50 0 81.5 -47t31.5 -117v-4q0 -70 -31.5 -118t-81.5 -48t-81.5 47t-31.5 117v4q0 70 31.5 118t81.5 48zM449 307q-41 0 -67 -42.5t-26 -101.5v-8
q0 -59 26 -101.5t67 -42.5t67 42.5t26 101.5v8q0 59 -26 101.5t-67 42.5zM151 689q-41 0 -67 -42.5t-26 -101.5v-8q0 -59 26 -101.5t67 -42.5t67 42.5t26 101.5v8q0 59 -26 101.5t-67 42.5zM484 700h21l-197 -354l-192 -346h-21l198 355z" />
    <glyph glyph-name="quotedbl.tab" 
d="M361 446l66 254h26v-2l-79 -252h-13zM151 446l66 254h26v-2l-79 -252h-13z" />
    <glyph glyph-name="quotesingle.tab" horiz-adv-x="300" 
d="M106 446l66 254h26v-2l-79 -252h-13z" />
    <glyph glyph-name="plus.tab" 
d="M529 343h-219v-223h-20v223h-219v18h219v223h20v-223h219v-18z" />
    <glyph glyph-name="minus.tab" 
d="M529 343h-458v18h458v-18z" />
    <glyph glyph-name="divide.tab" 
d="M282 537v52h36v-52h-36zM529 343h-458v18h458v-18zM282 115v52h36v-52h-36z" />
    <glyph glyph-name="equal.tab" 
d="M507 460h-414v20h414v-20zM507 225h-414v20h414v-20z" />
    <glyph glyph-name="multiply.tab" 
d="M491 146l-192 193l-192 -193l-13 13l193 192l-193 192l15 15l192 -193l192 193l13 -13l-193 -192l193 -192z" />
    <glyph glyph-name="less.tab" 
d="M517 112l-460 235v10l460 235v-23l-428 -217l428 -217v-23z" />
    <glyph glyph-name="greater.tab" 
d="M543 347l-460 -235v23l428 217l-428 217v23l460 -235v-10z" />
    <glyph glyph-name="plusminus.tab" 
d="M529 373h-219v-213h-20v213h-219v18h219v213h20v-213h219v-18zM529 0h-458v18h458v-18z" />
    <glyph glyph-name="space.tab" horiz-adv-x="300" 
 />
    <glyph glyph-name="NUL" horiz-adv-x="0" 
 />
    <glyph glyph-name="hfjslug" horiz-adv-x="694" 
d="M644 -200h-208l-8 14h-163l-8 -14h-207v303q14 0 23 9.5t9 22.5t-9.5 22.5t-22.5 9.5v554h100l30 79h334l29 -79h101v-921zM400 563v-172h15v78h38v14h-38v66h43v14h-58zM184 563v-172h15v79h47v-79h15v172h-15v-79h-47v79h-15zM460 394q10 -4 21 -4q31 0 31 36v137h-16
v-137q0 -22 -16 -22q-8 0 -20 5v-15zM371 465l-13 3q-4 -18 -8 -30h-1l-16 31q23 21 23 42q0 31 -27 31q-12 0 -20 -9t-8 -22t14 -39q-23 -18 -23 -47q0 -16 8 -26.5t21 -10.5q19 0 29 24h1l12 -24l12 6l-17 32q6 14 13 39zM523 323v-46h8v12l8 8l15 -20h10l-20 26l18 20
h-10l-20 -24h-1v24h-8zM488 292l10 -15h9l-12 17q10 4 10 14q0 15 -17 15h-20v-46h8v15h12zM426 276q10 0 17 7t7 17q0 9 -7 16.5t-17 7.5t-17 -7.5t-7 -16.5q0 -10 7 -17t17 -7zM370 301l-13 22h-9l18 -29v-17h8v17l18 29h-9zM193 323v-46h34v7h-26v13h23v7h-23v12h26v7
h-34zM132 323v-46h8v32l25 -32h7v46h-8v-32l-25 32h-7zM241 323l14 -47h8l11 34h1l11 -34h8l14 47h-8l-10 -35h-1l-11 35h-7l-11 -35h-1l-10 35h-8zM327 479q-12 22 -12 32q0 19 14 19q13 0 13 -19q0 -15 -15 -32zM342 423q-8 -21 -20 -21q-16 0 -16 25q0 19 16 35zM487 299
h-11v17h11q10 0 10 -8q0 -9 -10 -9zM426 283q-16 0 -16 17q0 6 4.5 11.5t11.5 5.5t11.5 -5.5t4.5 -11.5q0 -17 -16 -17z" />
    <glyph glyph-name="i.dot" horiz-adv-x="219" 
d="M94 643v57h31v-57h-31zM99 0v500h21v-500h-21z" />
    <glyph glyph-name="zero.num" horiz-adv-x="400" 
d="M199 304q-63 0 -100 56.5t-37 144.5v2q0 88 37.5 145.5t100.5 57.5t100.5 -56.5t37.5 -144.5v-2q0 -88 -38 -145.5t-101 -57.5zM199 691q-52 0 -84 -52t-32 -131v-2q0 -79 32.5 -131t84.5 -52t84.5 52t32.5 131v2q0 79 -32.5 131t-85.5 52z" />
    <glyph glyph-name="one.num" horiz-adv-x="325" 
d="M197 314h-21v370l-102 -36l-6 18l113 41h16v-393z" />
    <glyph glyph-name="one.num_alt" horiz-adv-x="400" 
d="M350 314h-275v18h131v352l-120 -42l-6 18l131 47h16v-375h123v-18z" />
    <glyph glyph-name="two.num" horiz-adv-x="400" 
d="M61 314v18l164 142q46 40 64.5 67t18.5 61q0 39 -28 64t-72 25q-70 0 -123 -83l-17 10q62 92 141 92q51 0 85.5 -31t34.5 -76q0 -41 -20 -70t-72 -73l-148 -127h245v-19h-273z" />
    <glyph glyph-name="three.num" horiz-adv-x="400" 
d="M196 304q-87 0 -141 66l16 13q50 -60 126 -60q45 0 77.5 26.5t32.5 67.5q0 44 -35.5 67.5t-98.5 23.5h-23l-5 13l152 160h-225v19h251v-18l-148 -156q73 0 113 -28.5t40 -79.5q0 -49 -39 -81.5t-93 -32.5z" />
    <glyph glyph-name="four.num" horiz-adv-x="400" 
d="M287 411v-99h-19v99h-206l-6 16l207 279h24v-277h63v-18h-63zM268 429v253l-188 -253h188z" />
    <glyph glyph-name="five.num" horiz-adv-x="400" 
d="M193 304q-75 0 -133 63l15 13q53 -57 120 -57q54 0 88 30t34 75q0 42 -31.5 68.5t-83.5 26.5q-51 0 -106 -25l-13 8l13 194h225v-19h-207l-12 -162q51 23 102 23q59 0 96.5 -32t37.5 -81q0 -54 -42.5 -89.5t-102.5 -35.5z" />
    <glyph glyph-name="six.num" horiz-adv-x="400" 
d="M196 305q-55 0 -92 37q-46 46 -46 149v2q0 96 43 156.5t112 60.5q59 0 105 -44l-16 -16q-38 41 -91 41q-58 0 -95.5 -57t-36.5 -159q41 78 125 78q53 0 89.5 -32.5t36.5 -87.5q0 -53 -39 -90.5t-95 -37.5zM197 324q46 0 79 31t33 77t-29.5 74t-77.5 28q-46 0 -80 -31
t-34 -75t32.5 -74t76.5 -30z" />
    <glyph glyph-name="seven.num" horiz-adv-x="400" 
d="M149 312h-23l187 369h-243v19h265v-16z" />
    <glyph glyph-name="eight.num" horiz-adv-x="400" 
d="M200 304q-60 0 -100 30t-40 77q0 71 89 102q-76 29 -76 94q0 45 38.5 74t90.5 29q51 0 89 -29.5t38 -73.5q0 -68 -75 -94q88 -28 88 -100q0 -49 -40.5 -79t-101.5 -30zM201 692q-46 0 -76.5 -24t-30.5 -61q0 -38 30 -62.5t77 -24.5t77 24.5t30 62.5q0 37 -30.5 61
t-76.5 24zM201 503q-54 0 -87 -26t-33 -66q0 -39 33.5 -64t86.5 -25t86.5 25t33.5 64q0 40 -33.5 66t-86.5 26z" />
    <glyph glyph-name="nine.num" horiz-adv-x="400" 
d="M204 709q55 0 92 -37q46 -46 46 -149v-2q0 -96 -43 -156.5t-112 -60.5q-59 0 -110 47l16 16q42 -44 96 -44q58 0 95.5 56.5t36.5 157.5q-42 -80 -125 -80q-53 0 -89.5 33t-36.5 89q0 55 39 92.5t95 37.5zM198 476q46 0 80 31.5t34 76.5q0 44 -32.5 75t-76.5 31
q-46 0 -79 -31.5t-33 -78.5q0 -48 29.5 -76t77.5 -28z" />
    <glyph glyph-name="zero.den" horiz-adv-x="400" 
d="M199 -10q-63 0 -100 56.5t-37 144.5v2q0 88 37.5 145.5t100.5 57.5t100.5 -56.5t37.5 -144.5v-2q0 -88 -38 -145.5t-101 -57.5zM199 377q-52 0 -84 -52t-32 -131v-2q0 -79 32.5 -131t84.5 -52t84.5 52t32.5 131v2q0 79 -32.5 131t-85.5 52z" />
    <glyph glyph-name="one.den" horiz-adv-x="325" 
d="M197 0h-21v370l-102 -36l-6 18l113 41h16v-393z" />
    <glyph glyph-name="one.den_alt" horiz-adv-x="400" 
d="M350 0h-275v18h131v352l-120 -42l-6 18l131 47h16v-375h123v-18z" />
    <glyph glyph-name="two.den" horiz-adv-x="400" 
d="M61 0v18l164 142q46 40 64.5 67t18.5 61q0 39 -28 64t-72 25q-70 0 -123 -83l-17 10q62 92 141 92q51 0 85.5 -31t34.5 -76q0 -41 -20 -70t-72 -73l-148 -127h245v-19h-273z" />
    <glyph glyph-name="three.den" horiz-adv-x="400" 
d="M196 -10q-87 0 -141 66l16 13q50 -60 126 -60q45 0 77.5 26.5t32.5 67.5q0 44 -35.5 67.5t-98.5 23.5h-23l-5 13l152 160h-225v19h251v-18l-148 -156q73 0 113 -28.5t40 -79.5q0 -49 -39 -81.5t-93 -32.5z" />
    <glyph glyph-name="four.den" horiz-adv-x="400" 
d="M287 97v-99h-19v99h-206l-6 16l207 279h24v-277h63v-18h-63zM268 115v253l-188 -253h188z" />
    <glyph glyph-name="five.den" horiz-adv-x="400" 
d="M193 -10q-75 0 -133 63l15 13q52 -57 120 -57q54 0 88 30t34 75q0 42 -31.5 68.5t-83.5 26.5q-51 0 -106 -25l-13 8l13 194h225v-19h-207l-12 -162q51 23 102 23q59 0 96.5 -32t37.5 -81q0 -54 -42.5 -89.5t-102.5 -35.5z" />
    <glyph glyph-name="six.den" horiz-adv-x="400" 
d="M196 -9q-55 0 -92 37q-46 46 -46 149v2q0 96 43 156.5t112 60.5q59 0 105 -44l-16 -16q-38 41 -91 41q-58 0 -95.5 -57t-36.5 -159q41 78 125 78q53 0 89.5 -32.5t36.5 -87.5q0 -53 -39 -90.5t-95 -37.5zM197 10q46 0 79 31t33 77t-29.5 74t-77.5 28q-46 0 -80 -31
t-34 -75t32.5 -74t76.5 -30z" />
    <glyph glyph-name="seven.den" horiz-adv-x="400" 
d="M149 -2h-23l187 369h-243v19h265v-16z" />
    <glyph glyph-name="eight.den" horiz-adv-x="400" 
d="M200 -10q-60 0 -100 30t-40 77q0 71 89 102q-76 29 -76 94q0 45 38.5 74t90.5 29q51 0 89 -29.5t38 -73.5q0 -68 -75 -94q88 -28 88 -100q0 -49 -40.5 -79t-101.5 -30zM201 378q-46 0 -76.5 -24t-30.5 -61q0 -38 30 -62.5t77 -24.5t77 24.5t30 62.5q0 37 -30.5 61
t-76.5 24zM201 189q-54 0 -87 -26t-33 -66q0 -39 33.5 -64t86.5 -25t86.5 25t33.5 64q0 40 -33.5 66t-86.5 26z" />
    <glyph glyph-name="nine.den" horiz-adv-x="400" 
d="M204 395q55 0 92 -37q46 -46 46 -149v-2q0 -96 -43 -156.5t-112 -60.5q-59 0 -110 47l16 16q42 -44 96 -44q58 0 95.5 56.5t36.5 157.5q-42 -80 -125 -80q-53 0 -89.5 33t-36.5 89q0 55 39 92.5t95 37.5zM198 162q46 0 80 31.5t34 76.5q0 44 -32.5 75t-76.5 31
q-46 0 -79 -31.5t-33 -78.5q0 -48 29.5 -76t77.5 -28z" />
    <glyph glyph-name="caron.alt" horiz-adv-x="500" 
d="M230 581l17 149h25v-2l-30 -147h-12z" />
    <glyph glyph-name="acute.cap" horiz-adv-x="500" 
d="M205 765l99 99l23 -12l-104 -87h-18z" />
    <glyph glyph-name="hungarumlaut.cap" horiz-adv-x="500" 
d="M126 765l99 99l23 -12l-104 -87h-18zM247 765l99 99l23 -12l-104 -87h-18z" />
    <glyph glyph-name="grave.cap" horiz-adv-x="500" 
d="M295 765h-18l-104 87l23 12z" />
    <glyph glyph-name="circumflex.cap" horiz-adv-x="500" 
d="M135 765l106 97h18l106 -97h-21l-94 75l-94 -75h-21z" />
    <glyph glyph-name="caron.cap" horiz-adv-x="500" 
d="M365 862l-106 -97h-18l-106 97h21l94 -75l94 75h21z" />
    <glyph glyph-name="breve.cap" horiz-adv-x="500" 
d="M250 764q-55 0 -87 23t-39 61h17q19 -64 109 -64q89 0 109 64h17q-8 -38 -40 -61t-86 -23z" />
    <glyph glyph-name="tilde.cap" horiz-adv-x="500" 
d="M314 776q-21 0 -71 28q-42 24 -59 24q-38 0 -57 -57l-13 3q17 74 72 74q21 0 71 -28q42 -24 59 -24q38 0 57 57l13 -3q-17 -74 -72 -74z" />
    <glyph glyph-name="macron.cap" horiz-adv-x="500" 
d="M114 791v20h272v-20h-272z" />
    <glyph glyph-name="dieresis.cap" horiz-adv-x="500" 
d="M301 784v50h38v-50h-38zM161 784v50h38v-50h-38z" />
    <glyph glyph-name="dotaccent.cap" horiz-adv-x="500" 
d="M231 784v50h38v-50h-38z" />
    <glyph glyph-name="ring.cap" horiz-adv-x="500" 
d="M250 764q-42 0 -71.5 25t-29.5 63t29.5 63t71.5 25t71.5 -25t29.5 -63t-29.5 -63t-71.5 -25zM250 780q34 0 58 20t24 52t-24 52t-58 20t-58 -20t-24 -52t24 -52t58 -20z" />
    </font>
</defs>
</svg>
